<?xml version="1.0" encoding="UTF-8" standalone="no"?><!DOCTYPE svg PUBLIC "-//W3C//DTD SVG 1.1//EN" "http://www.w3.org/Graphics/SVG/1.1/DTD/svg11.dtd"><svg width="100%" height="100%" viewBox="0 0 182 187" version="1.1" xmlns="http://www.w3.org/2000/svg" xmlns:xlink="http://www.w3.org/1999/xlink" xml:space="preserve" xmlns:serif="http://www.serif.com/" style="fill-rule:evenodd;clip-rule:evenodd;stroke-linejoin:round;stroke-miterlimit:1.41421;"><path d="M164.412,62.303c2.038,7.134 0.868,17.972 -0.221,25.1c-1.539,10.05 -2.564,16.412 -6.551,28.752c-10.092,31.22 -42.606,56.04 -78.143,45.687c-23.837,-6.942 -42.185,-26.493 -55.474,-46.509c-19.529,-29.408 -33.865,-92.004 16.161,-100.694c26.89,-4.676 52.245,14.402 76.802,22.857c14.385,4.955 26.959,2.194 37.324,9.858c6.76,4.997 7.877,7.145 10.102,14.949Z" style="fill:#edf4fb;fill-rule:nonzero;"/><path d="M170.635,45.346c0.161,0.468 0.316,0.939 0.466,1.414l0.715,-0.224c-0.152,-0.482 -0.309,-0.96 -0.472,-1.435l-0.709,0.245Zm0.891,2.841c0.135,0.477 0.264,0.957 0.387,1.44l0.727,-0.186c-0.125,-0.489 -0.255,-0.974 -0.393,-1.458l-0.721,0.204Zm0.736,2.889c0.109,0.483 0.213,0.969 0.311,1.457l0.736,-0.148c-0.1,-0.494 -0.205,-0.986 -0.316,-1.476l-0.731,0.167Zm0.587,2.922c0.085,0.489 0.166,0.98 0.24,1.472l0.741,-0.113c-0.075,-0.498 -0.156,-0.994 -0.243,-1.488l-0.738,0.129Zm0.445,2.949c0.062,0.492 0.119,0.987 0.171,1.482l0.746,-0.078c-0.052,-0.5 -0.11,-1 -0.173,-1.499l-0.744,0.095Zm0.309,2.967c0.04,0.495 0.075,0.991 0.104,1.488l0.748,-0.045c-0.029,-0.501 -0.064,-1.003 -0.105,-1.504l-0.747,0.061Zm0.174,2.978c0.019,0.497 0.032,0.995 0.038,1.491l0.75,-0.011c-0.007,-0.502 -0.02,-1.005 -0.038,-1.508l-0.75,0.028Zm0.044,2.983c-0.004,0.497 -0.012,0.995 -0.024,1.492l0.749,0.019c0.013,-0.502 0.021,-1.004 0.025,-1.506l-0.75,-0.005Zm-0.075,2.985c-0.02,0.497 -0.046,0.994 -0.075,1.492l0.748,0.043c0.03,-0.501 0.055,-1.003 0.077,-1.504l-0.75,-0.031Zm-0.174,2.982c-0.037,0.495 -0.078,0.992 -0.123,1.488l0.747,0.067c0.045,-0.5 0.087,-1 0.123,-1.5l-0.747,-0.055Zm-0.266,2.976c-0.052,0.495 -0.106,0.99 -0.165,1.485l0.746,0.087c0.058,-0.498 0.113,-0.996 0.165,-1.495l-0.746,-0.077Zm-0.349,2.968c-0.064,0.494 -0.132,0.987 -0.202,1.482l0.742,0.105c0.071,-0.496 0.139,-0.993 0.204,-1.49l-0.744,-0.097Zm-0.423,2.96c-0.076,0.492 -0.155,0.984 -0.237,1.476l0.74,0.123c0.082,-0.494 0.162,-0.989 0.238,-1.484l-0.741,-0.115Zm-0.489,2.952c-0.087,0.489 -0.177,0.98 -0.268,1.47l0.737,0.139c0.092,-0.493 0.182,-0.987 0.269,-1.48l-0.738,-0.129Zm-0.549,2.941c-0.096,0.488 -0.194,0.977 -0.294,1.466l0.734,0.151c0.1,-0.491 0.2,-0.982 0.295,-1.474l-0.735,-0.143Zm-0.601,2.932c-0.104,0.488 -0.209,0.976 -0.317,1.463l0.733,0.161c0.107,-0.488 0.213,-0.978 0.317,-1.468l-0.733,-0.156Zm-0.644,2.924c-0.111,0.487 -0.224,0.974 -0.337,1.46l0.73,0.171c0.114,-0.488 0.227,-0.976 0.338,-1.464l-0.731,-0.167Zm-0.683,2.918c-0.116,0.485 -0.234,0.97 -0.353,1.455l0.729,0.179c0.119,-0.486 0.237,-0.973 0.353,-1.46l-0.729,-0.174Zm-0.713,2.91c-0.079,0.317 -0.158,0.634 -0.239,0.951c-0.042,0.167 -0.084,0.334 -0.127,0.501l0.727,0.186c0.043,-0.168 0.085,-0.336 0.128,-0.503c0.08,-0.318 0.16,-0.635 0.238,-0.953l-0.727,-0.182Zm-0.744,2.901c-0.128,0.481 -0.259,0.963 -0.392,1.444l0.723,0.2c0.134,-0.483 0.265,-0.968 0.394,-1.451l-0.725,-0.193Zm-0.797,2.88c-0.137,0.478 -0.276,0.955 -0.419,1.432l0.719,0.214c0.143,-0.479 0.283,-0.959 0.421,-1.439l-0.721,-0.207Zm-0.852,2.86c-0.147,0.476 -0.295,0.951 -0.446,1.425l0.713,0.229c0.153,-0.477 0.303,-0.955 0.45,-1.432l-0.717,-0.222Zm-0.908,2.847c-0.157,0.473 -0.315,0.945 -0.476,1.417l0.709,0.242c0.162,-0.475 0.322,-0.949 0.479,-1.424l-0.712,-0.235Zm-0.966,2.83c-0.166,0.47 -0.334,0.94 -0.505,1.408l0.705,0.256c0.172,-0.471 0.341,-0.943 0.507,-1.415l-0.707,-0.249Zm-1.023,2.812c-0.175,0.467 -0.353,0.933 -0.534,1.399l0.7,0.271c0.181,-0.468 0.36,-0.937 0.536,-1.406l-0.702,-0.264Zm-1.081,2.794c-0.185,0.463 -0.373,0.926 -0.563,1.388l0.694,0.285c0.191,-0.464 0.379,-0.93 0.566,-1.396l-0.697,-0.277Zm-1.14,2.772c-0.195,0.46 -0.393,0.919 -0.593,1.377l0.687,0.3c0.201,-0.46 0.4,-0.922 0.596,-1.385l-0.69,-0.292Zm-1.2,2.748c-0.206,0.457 -0.414,0.912 -0.623,1.365l0.68,0.315c0.211,-0.456 0.42,-0.913 0.627,-1.372l-0.684,-0.308Zm-1.262,2.724c-0.215,0.452 -0.433,0.903 -0.653,1.352l0.673,0.33c0.222,-0.451 0.441,-0.904 0.658,-1.359l-0.678,-0.323Zm-1.32,2.691c-0.226,0.446 -0.453,0.889 -0.683,1.331l0.665,0.346c0.232,-0.444 0.461,-0.891 0.687,-1.338l-0.669,-0.339Zm-1.381,2.654c-0.236,0.44 -0.474,0.878 -0.714,1.314l0.656,0.362c0.242,-0.439 0.481,-0.879 0.719,-1.322l-0.661,-0.354Zm-1.445,2.619c-0.247,0.434 -0.496,0.866 -0.747,1.296l0.648,0.378c0.252,-0.432 0.503,-0.867 0.751,-1.304l-0.652,-0.37Zm-1.51,2.581c-0.258,0.428 -0.519,0.853 -0.781,1.275l0.637,0.396c0.265,-0.425 0.526,-0.853 0.786,-1.284l-0.642,-0.387Zm-1.579,2.54c-0.269,0.421 -0.541,0.838 -0.815,1.253l0.626,0.413c0.276,-0.418 0.55,-0.838 0.821,-1.261l-0.632,-0.405Zm-1.647,2.495c-0.281,0.412 -0.565,0.822 -0.851,1.228l0.614,0.432c0.288,-0.41 0.573,-0.822 0.856,-1.238l-0.619,-0.422Zm-1.72,2.445c-0.293,0.403 -0.589,0.805 -0.887,1.202l0.6,0.45c0.301,-0.4 0.599,-0.805 0.894,-1.212l-0.607,-0.44Zm-1.793,2.39c-0.305,0.395 -0.614,0.786 -0.925,1.174l0.585,0.469c0.314,-0.391 0.625,-0.786 0.933,-1.183l-0.593,-0.46Zm-1.869,2.331c-0.319,0.384 -0.64,0.764 -0.964,1.141l0.57,0.489c0.326,-0.38 0.65,-0.763 0.971,-1.151l-0.577,-0.479Zm-1.947,2.264c-0.332,0.373 -0.667,0.741 -1.004,1.107l0.551,0.508c0.341,-0.367 0.678,-0.739 1.013,-1.115l-0.56,-0.5Zm-2.027,2.193c-0.346,0.36 -0.694,0.715 -1.045,1.066l0.531,0.531c0.354,-0.355 0.706,-0.715 1.055,-1.078l-0.541,-0.519Zm-2.11,2.111c-0.359,0.346 -0.722,0.687 -1.086,1.024l0.508,0.551c0.369,-0.34 0.735,-0.685 1.098,-1.034l-0.52,-0.541Zm-2.193,2.023c-0.373,0.33 -0.749,0.655 -1.129,0.975l0.485,0.573c0.383,-0.324 0.763,-0.652 1.14,-0.986l-0.496,-0.562Zm-2.278,1.926c-0.387,0.312 -0.778,0.62 -1.17,0.923l0.456,0.594c0.398,-0.306 0.793,-0.617 1.185,-0.934l-0.471,-0.583Zm-2.363,1.818c-0.402,0.294 -0.806,0.582 -1.214,0.865l0.429,0.616c0.412,-0.286 0.822,-0.578 1.228,-0.876l-0.443,-0.605Zm-2.447,1.7c-0.417,0.273 -0.834,0.541 -1.256,0.802l0.396,0.637c0.427,-0.265 0.851,-0.535 1.271,-0.813l-0.411,-0.626Zm-2.535,1.574c-0.431,0.251 -0.864,0.497 -1.3,0.736l0.361,0.658c0.442,-0.242 0.881,-0.491 1.317,-0.747l-0.378,-0.647Zm-2.618,1.434c-0.442,0.227 -0.887,0.447 -1.335,0.661l0.323,0.677c0.454,-0.217 0.906,-0.44 1.354,-0.67l-0.342,-0.668Zm-2.688,1.282c-0.453,0.199 -0.909,0.393 -1.368,0.58l0.282,0.694c0.466,-0.189 0.929,-0.385 1.389,-0.588l-0.303,-0.686Zm-2.752,1.117c-0.462,0.172 -0.928,0.337 -1.397,0.495l0.24,0.711c0.476,-0.16 0.948,-0.328 1.418,-0.503l-0.261,-0.703Zm-2.813,0.948c-0.474,0.144 -0.951,0.28 -1.43,0.409l0.195,0.725c0.487,-0.132 0.971,-0.27 1.452,-0.416l-0.217,-0.718Zm-2.871,0.773c-0.482,0.113 -0.966,0.22 -1.453,0.318l0.148,0.735c0.495,-0.1 0.987,-0.208 1.476,-0.323l-0.171,-0.73Zm-2.915,0.589c-0.488,0.083 -0.977,0.158 -1.47,0.225l0.102,0.744c0.5,-0.069 0.998,-0.145 1.493,-0.229l-0.125,-0.74Zm-2.946,0.404c-0.491,0.051 -0.985,0.095 -1.481,0.131l0.054,0.749c0.504,-0.037 1.006,-0.082 1.506,-0.135l-0.079,-0.745Zm-2.966,0.217c-0.494,0.02 -0.99,0.033 -1.488,0.039l0.008,0.75c0.506,-0.006 1.01,-0.019 1.511,-0.04l-0.031,-0.749Zm-2.977,0.032c-0.497,-0.009 -0.994,-0.026 -1.488,-0.048l-0.035,0.749c0.501,0.023 1.005,0.04 1.509,0.049l0.014,-0.75Zm-2.975,-0.138c-0.495,-0.036 -0.99,-0.08 -1.483,-0.13l-0.076,0.746c0.5,0.051 1.002,0.095 1.504,0.132l0.055,-0.748Zm-2.967,-0.301c-0.494,-0.064 -0.987,-0.134 -1.478,-0.211l-0.115,0.741c0.497,0.078 0.997,0.15 1.498,0.214l0.095,-0.744Zm-2.949,-0.461c-0.489,-0.09 -0.977,-0.187 -1.463,-0.289l-0.155,0.734c0.493,0.104 0.987,0.201 1.483,0.292l0.135,-0.737Zm-2.918,-0.616c-0.484,-0.115 -0.966,-0.236 -1.446,-0.364l-0.192,0.726c0.486,0.129 0.974,0.251 1.464,0.368l0.174,-0.73Zm-2.881,-0.763c-0.477,-0.139 -0.952,-0.285 -1.426,-0.435l-0.227,0.715c0.479,0.152 0.96,0.299 1.443,0.44l0.21,-0.72Zm-2.84,-0.904c-0.469,-0.162 -0.937,-0.329 -1.402,-0.502l-0.261,0.703c0.471,0.175 0.944,0.344 1.419,0.508l0.244,-0.709Zm-2.793,-1.037c-0.461,-0.183 -0.921,-0.371 -1.378,-0.564l-0.293,0.69c0.463,0.196 0.927,0.387 1.394,0.572l0.277,-0.698Zm-2.744,-1.16c-0.452,-0.203 -0.904,-0.411 -1.352,-0.624l-0.322,0.678c0.454,0.215 0.91,0.425 1.367,0.63l0.307,-0.684Zm-2.692,-1.276c-0.444,-0.222 -0.886,-0.448 -1.326,-0.679l-0.349,0.664c0.445,0.234 0.891,0.463 1.34,0.686l0.335,-0.671Zm-2.639,-1.383c-0.435,-0.24 -0.868,-0.483 -1.299,-0.73l-0.373,0.65c0.435,0.25 0.872,0.495 1.311,0.737l0.361,-0.657Zm-2.585,-1.485c-0.425,-0.254 -0.85,-0.513 -1.272,-0.776l-0.396,0.637c0.426,0.265 0.853,0.526 1.283,0.784l0.385,-0.645Zm-2.531,-1.575c-0.417,-0.27 -0.832,-0.543 -1.245,-0.82l-0.418,0.622c0.417,0.28 0.835,0.555 1.256,0.828l0.407,-0.63Zm-2.477,-1.662c-0.408,-0.282 -0.814,-0.569 -1.219,-0.86l-0.437,0.609c0.408,0.293 0.817,0.582 1.228,0.868l0.428,-0.617Zm-2.424,-1.739c-0.4,-0.296 -0.797,-0.595 -1.193,-0.898l-0.455,0.596c0.399,0.305 0.799,0.606 1.202,0.904l0.446,-0.602Zm-2.372,-1.813c-0.391,-0.308 -0.78,-0.618 -1.167,-0.932l-0.472,0.583c0.389,0.316 0.781,0.628 1.175,0.938l0.464,-0.589Zm-2.322,-1.881c-0.382,-0.318 -0.763,-0.639 -1.142,-0.963l-0.487,0.57c0.381,0.326 0.765,0.649 1.149,0.97l0.48,-0.577Zm-2.271,-1.942c-0.375,-0.329 -0.747,-0.659 -1.118,-0.993l-0.502,0.557c0.373,0.336 0.748,0.669 1.125,1l0.495,-0.564Zm-2.224,-2c-0.367,-0.338 -0.731,-0.678 -1.094,-1.02l-0.515,0.545c0.365,0.344 0.732,0.686 1.101,1.027l0.508,-0.552Zm-2.177,-2.054c-0.359,-0.347 -0.716,-0.695 -1.071,-1.046l-0.528,0.534c0.357,0.352 0.717,0.703 1.078,1.051l0.521,-0.539Zm-2.132,-2.104c-0.352,-0.354 -0.702,-0.711 -1.049,-1.069l-0.539,0.523c0.35,0.36 0.702,0.718 1.056,1.074l0.532,-0.528Zm-2.088,-2.15c-0.345,-0.362 -0.688,-0.726 -1.028,-1.091l-0.549,0.511c0.343,0.367 0.687,0.733 1.033,1.098l0.544,-0.518Zm-2.047,-2.193c-0.337,-0.369 -0.672,-0.739 -1.005,-1.11l-0.559,0.501c0.335,0.373 0.672,0.745 1.012,1.115l0.552,-0.506Zm-2.001,-2.229l-0.103,-0.118c-0.292,-0.331 -0.581,-0.669 -0.866,-1.012l-0.577,0.479c0.29,0.349 0.583,0.692 0.88,1.028l0.104,0.119l0.562,-0.496Zm-1.904,-2.289c-0.304,-0.388 -0.605,-0.784 -0.902,-1.186l-0.603,0.446c0.301,0.408 0.606,0.808 0.914,1.203l0.591,-0.463Zm-1.771,-2.395c-0.282,-0.405 -0.561,-0.816 -0.837,-1.233l-0.626,0.413c0.279,0.422 0.562,0.838 0.848,1.249l0.615,-0.429Zm-1.643,-2.488c-0.262,-0.418 -0.52,-0.844 -0.775,-1.273l-0.645,0.382c0.257,0.435 0.519,0.865 0.784,1.289l0.636,-0.398Zm-1.521,-2.565c-0.243,-0.431 -0.481,-0.868 -0.716,-1.309l-0.662,0.353c0.238,0.446 0.479,0.887 0.724,1.323l0.654,-0.367Zm-1.404,-2.633c-0.224,-0.442 -0.444,-0.888 -0.659,-1.338l-0.677,0.324c0.219,0.455 0.441,0.906 0.666,1.353l0.67,-0.339Zm-1.291,-2.691c-0.205,-0.451 -0.407,-0.905 -0.605,-1.364l-0.688,0.296c0.199,0.464 0.403,0.923 0.61,1.379l0.683,-0.311Zm-1.183,-2.741c-0.187,-0.459 -0.371,-0.922 -0.551,-1.387l-0.7,0.27c0.183,0.47 0.368,0.937 0.557,1.401l0.694,-0.284Zm-1.076,-2.785c-0.17,-0.466 -0.337,-0.936 -0.499,-1.408l-0.709,0.244c0.164,0.477 0.332,0.951 0.504,1.421l0.704,-0.257Zm-0.972,-2.824c-0.153,-0.472 -0.303,-0.947 -0.448,-1.425l-0.718,0.219c0.147,0.481 0.298,0.961 0.453,1.437l0.713,-0.231Zm-0.871,-2.857c-0.136,-0.478 -0.269,-0.958 -0.398,-1.44l-0.725,0.194c0.13,0.487 0.264,0.97 0.401,1.452l0.722,-0.206Zm-0.771,-2.886c-0.12,-0.482 -0.236,-0.967 -0.349,-1.453l-0.73,0.169c0.113,0.491 0.23,0.979 0.351,1.465l0.728,-0.181Zm-0.672,-2.911c-0.104,-0.485 -0.203,-0.972 -0.298,-1.46l-0.736,0.144c0.096,0.493 0.196,0.983 0.301,1.472l0.733,-0.156Zm-0.572,-2.925c-0.087,-0.488 -0.17,-0.977 -0.249,-1.469l-0.741,0.12c0.08,0.495 0.164,0.989 0.252,1.481l0.738,-0.132Zm-0.473,-2.942c-0.071,-0.491 -0.138,-0.984 -0.201,-1.477l-0.744,0.094c0.063,0.498 0.131,0.995 0.202,1.49l0.743,-0.107Zm-0.376,-2.958c-0.054,-0.493 -0.104,-0.988 -0.151,-1.483l-0.747,0.069c0.046,0.5 0.097,0.999 0.152,1.496l0.746,-0.082Zm-0.277,-2.97c-0.037,-0.495 -0.071,-0.991 -0.101,-1.488l-0.749,0.044c0.03,0.501 0.064,1.002 0.102,1.501l0.748,-0.057Zm-0.177,-2.977c-0.021,-0.497 -0.038,-0.994 -0.05,-1.491l-0.75,0.018c0.012,0.502 0.03,1.003 0.051,1.504l0.749,-0.031Zm-0.076,-2.984c-0.002,-0.239 -0.003,-0.478 -0.003,-0.717c0,-0.259 0.002,-0.517 0.004,-0.776l-0.75,-0.007c-0.002,0.261 -0.004,0.522 -0.004,0.783c0,0.241 0.002,0.482 0.003,0.722l0.75,-0.005Zm0.027,-2.984c0.013,-0.497 0.031,-0.994 0.053,-1.491l-0.75,-0.032c-0.022,0.501 -0.039,1.002 -0.053,1.503l0.75,0.02Zm0.131,-2.981c0.031,-0.497 0.066,-0.992 0.105,-1.489l-0.747,-0.059c-0.04,0.5 -0.075,1.001 -0.106,1.501l0.748,0.047Zm0.237,-2.975c0.049,-0.495 0.102,-0.99 0.159,-1.484l-0.744,-0.086c-0.058,0.498 -0.112,0.997 -0.161,1.497l0.746,0.073Zm0.346,-2.965c0.067,-0.492 0.138,-0.984 0.214,-1.476l-0.741,-0.114c-0.077,0.496 -0.149,0.993 -0.216,1.49l0.743,0.1Zm0.456,-2.948c0.085,-0.49 0.175,-0.979 0.27,-1.467l-0.736,-0.144c-0.096,0.494 -0.187,0.987 -0.273,1.482l0.739,0.129Zm0.568,-2.929c0.104,-0.486 0.213,-0.972 0.327,-1.456l-0.73,-0.172c-0.115,0.489 -0.225,0.98 -0.33,1.47l0.733,0.158Zm0.683,-2.904c0.123,-0.482 0.251,-0.962 0.385,-1.442l-0.723,-0.2c-0.134,0.484 -0.264,0.969 -0.389,1.455l0.727,0.187l0,0Zm0.799,-2.874c0.142,-0.476 0.29,-0.951 0.443,-1.423l-0.713,-0.231c-0.154,0.478 -0.304,0.958 -0.448,1.439l0.718,0.215Zm0.917,-2.837c0.162,-0.469 0.33,-0.937 0.503,-1.402l-0.703,-0.261c-0.175,0.471 -0.344,0.943 -0.509,1.417l0.709,0.246Zm1.036,-2.793c0.182,-0.462 0.37,-0.922 0.563,-1.38l-0.691,-0.291c-0.194,0.463 -0.385,0.928 -0.569,1.394l0.697,0.277Zm1.157,-2.745c0.202,-0.454 0.41,-0.904 0.623,-1.352l-0.677,-0.322c-0.216,0.453 -0.426,0.909 -0.63,1.367l0.684,0.307Zm1.278,-2.689c0.222,-0.443 0.45,-0.883 0.683,-1.322l-0.662,-0.352c-0.236,0.443 -0.467,0.889 -0.691,1.336l0.67,0.338Zm1.397,-2.626c0.243,-0.431 0.491,-0.861 0.744,-1.287l-0.644,-0.383c-0.257,0.432 -0.508,0.866 -0.753,1.302l0.653,0.368Zm1.518,-2.556c0.263,-0.421 0.532,-0.838 0.806,-1.254l-0.626,-0.413c-0.278,0.42 -0.549,0.843 -0.816,1.269l0.636,0.398Zm1.641,-2.489c0.283,-0.407 0.571,-0.812 0.865,-1.214l-0.605,-0.442c-0.298,0.407 -0.59,0.816 -0.876,1.228l0.616,0.428Zm1.759,-2.406c0.303,-0.393 0.61,-0.783 0.923,-1.17l-0.583,-0.472c-0.317,0.392 -0.629,0.787 -0.935,1.185l0.595,0.457Zm1.874,-2.318c0.321,-0.378 0.647,-0.753 0.979,-1.125l-0.56,-0.498c-0.336,0.375 -0.666,0.755 -0.991,1.137l0.572,0.486Zm1.984,-2.224c0.338,-0.362 0.683,-0.72 1.032,-1.076l-0.535,-0.526c-0.354,0.36 -0.702,0.723 -1.044,1.089l0.547,0.513Zm2.09,-2.126c0.356,-0.344 0.717,-0.685 1.083,-1.023l-0.509,-0.552c-0.37,0.342 -0.736,0.688 -1.095,1.037l0.521,0.538Zm2.191,-2.021c0.372,-0.327 0.748,-0.65 1.13,-0.97l-0.481,-0.576c-0.387,0.324 -0.768,0.652 -1.144,0.983l0.495,0.563Zm2.285,-1.914c0.387,-0.309 0.778,-0.614 1.176,-0.917l-0.454,-0.596c-0.402,0.305 -0.799,0.614 -1.19,0.926l0.468,0.587Zm2.373,-1.804c0.4,-0.291 0.806,-0.577 1.217,-0.861l-0.425,-0.617c-0.416,0.286 -0.827,0.577 -1.233,0.87l0.441,0.608Zm2.454,-1.693c0.414,-0.272 0.832,-0.54 1.256,-0.805l-0.398,-0.636c-0.428,0.268 -0.851,0.539 -1.269,0.814l0.411,0.627l0,0Zm2.529,-1.581c0.425,-0.253 0.856,-0.502 1.29,-0.748l-0.369,-0.653c-0.44,0.249 -0.875,0.501 -1.305,0.757l0.384,0.644Zm2.597,-1.468c0.092,-0.049 0.184,-0.099 0.277,-0.149c0.353,-0.187 0.701,-0.372 1.044,-0.554l-0.35,-0.663c-0.345,0.182 -0.693,0.368 -1.046,0.555c-0.094,0.051 -0.188,0.1 -0.281,0.15l0.356,0.661Zm2.647,-1.403c0.45,-0.236 0.891,-0.468 1.327,-0.695l-0.348,-0.665c-0.436,0.227 -0.878,0.459 -1.329,0.697l0.35,0.663Zm2.655,-1.386c0.452,-0.234 0.896,-0.463 1.331,-0.686l-0.341,-0.667c-0.437,0.223 -0.882,0.452 -1.335,0.686l0.345,0.667Zm2.666,-1.364c0.455,-0.229 0.901,-0.453 1.338,-0.67l-0.334,-0.672c-0.439,0.218 -0.886,0.442 -1.342,0.672l0.338,0.67Zm2.68,-1.33c0.459,-0.222 0.908,-0.438 1.348,-0.647l-0.321,-0.677c-0.443,0.209 -0.894,0.426 -1.354,0.65l0.327,0.674Zm2.702,-1.279c0.463,-0.213 0.917,-0.418 1.361,-0.614l-0.304,-0.687c-0.448,0.199 -0.904,0.405 -1.371,0.619l0.314,0.682Zm2.73,-1.207c0.469,-0.199 0.928,-0.388 1.378,-0.568l-0.278,-0.697c-0.455,0.182 -0.919,0.373 -1.392,0.574l0.292,0.691Zm2.768,-1.105c0.475,-0.178 0.941,-0.344 1.401,-0.502l-0.243,-0.71c-0.466,0.16 -0.94,0.329 -1.42,0.509l0.262,0.703Zm2.814,-0.963c0.481,-0.148 0.956,-0.286 1.426,-0.414l-0.196,-0.723c-0.479,0.13 -0.962,0.27 -1.451,0.421l0.221,0.716Zm2.865,-0.776c0.486,-0.112 0.968,-0.215 1.451,-0.307l-0.14,-0.737c-0.493,0.095 -0.985,0.199 -1.48,0.314l0.169,0.73Zm2.913,-0.558c0.488,-0.074 0.977,-0.138 1.471,-0.194l-0.084,-0.746c-0.503,0.058 -1.002,0.123 -1.499,0.198l0.112,0.742Zm2.949,-0.336c0.488,-0.038 0.982,-0.069 1.484,-0.093l-0.035,-0.749c-0.511,0.024 -1.012,0.055 -1.507,0.094l0.058,0.748Zm2.971,-0.144c0.472,-0.01 0.951,-0.015 1.441,-0.015l0.05,0l0.001,-0.75l-0.051,0c-0.494,0 -0.98,0.005 -1.457,0.015l0.016,0.75Zm2.984,0c0.487,0.009 0.985,0.023 1.494,0.039l0.024,-0.75c-0.512,-0.016 -1.013,-0.03 -1.504,-0.039l-0.014,0.75Zm2.988,0.096c0.488,0.022 0.986,0.046 1.496,0.072l0.039,-0.749c-0.512,-0.026 -1.012,-0.05 -1.502,-0.072l-0.033,0.749Zm2.99,0.155c0.488,0.028 0.987,0.058 1.496,0.091l0.047,-0.749c-0.511,-0.032 -1.01,-0.062 -1.499,-0.091l-0.044,0.749Zm2.991,0.186c0.49,0.032 0.988,0.065 1.497,0.099l0.05,-0.748c-0.509,-0.034 -1.008,-0.067 -1.497,-0.099l-0.05,0.748Zm2.993,0.201c0.489,0.033 0.988,0.066 1.496,0.101l0.051,-0.748c-0.508,-0.034 -1.007,-0.069 -1.496,-0.102l-0.051,0.749Zm2.993,0.203l0.026,0.002c0.482,0.032 0.971,0.069 1.464,0.11l0.063,-0.747c-0.498,-0.042 -0.99,-0.079 -1.477,-0.112l-0.025,-0.001l-0.051,0.748Zm2.979,0.248c0.492,0.048 0.988,0.1 1.488,0.156l0.084,-0.745c-0.504,-0.057 -1.003,-0.109 -1.498,-0.158l-0.074,0.747Zm2.974,0.333c0.491,0.061 0.985,0.126 1.483,0.194l0.103,-0.744c-0.501,-0.068 -0.999,-0.133 -1.493,-0.194l-0.093,0.744Zm2.965,0.405c0.491,0.073 0.984,0.149 1.479,0.228l0.118,-0.741c-0.498,-0.079 -0.994,-0.156 -1.487,-0.228l-0.11,0.741Zm2.956,0.471c0.491,0.083 0.983,0.169 1.475,0.258l0.133,-0.739c-0.496,-0.089 -0.989,-0.175 -1.482,-0.259l-0.126,0.74Zm2.944,0.528c0.489,0.093 0.978,0.189 1.468,0.286l0.146,-0.736c-0.492,-0.098 -0.983,-0.193 -1.474,-0.286l-0.14,0.736Zm2.934,0.584c0.488,0.103 0.976,0.207 1.464,0.313l0.16,-0.733c-0.49,-0.107 -0.981,-0.211 -1.471,-0.314l-0.153,0.734Zm2.927,0.639c0.489,0.111 0.975,0.224 1.461,0.339l0.173,-0.73c-0.488,-0.116 -0.977,-0.229 -1.467,-0.341l-0.167,0.732Zm2.92,0.691c0.486,0.119 0.97,0.241 1.453,0.365l0.186,-0.727c-0.485,-0.124 -0.972,-0.246 -1.46,-0.366l-0.179,0.728Zm2.902,0.743c0.483,0.128 0.966,0.258 1.445,0.39l0.199,-0.723c-0.481,-0.132 -0.966,-0.263 -1.452,-0.392l-0.192,0.725Zm2.886,0.795c0.483,0.138 0.962,0.279 1.437,0.42l0.214,-0.719c-0.478,-0.142 -0.96,-0.283 -1.444,-0.421l-0.207,0.72Zm2.87,0.854c0.48,0.148 0.956,0.298 1.427,0.449l0.23,-0.714c-0.474,-0.152 -0.953,-0.303 -1.436,-0.452l-0.221,0.717Zm2.849,0.915c0.479,0.16 0.95,0.32 1.416,0.483l0.247,-0.709c-0.469,-0.163 -0.944,-0.325 -1.425,-0.486l-0.238,0.712Zm2.825,0.984c0.475,0.173 0.943,0.347 1.402,0.522l0.267,-0.701c-0.463,-0.176 -0.933,-0.351 -1.412,-0.525l-0.257,0.704Zm2.793,1.066c0.471,0.189 0.933,0.378 1.382,0.569l0.292,-0.691c-0.454,-0.193 -0.919,-0.384 -1.394,-0.574l-0.28,0.696Zm2.75,1.165c0.281,0.127 0.556,0.253 0.827,0.38c0.176,0.082 0.349,0.166 0.521,0.25l0.33,-0.673c-0.175,-0.086 -0.353,-0.172 -0.534,-0.256c-0.273,-0.128 -0.552,-0.257 -0.837,-0.385l-0.307,0.684Zm2.657,1.316c0.438,0.246 0.86,0.498 1.268,0.759l0.404,-0.633c-0.42,-0.268 -0.855,-0.528 -1.306,-0.78l-0.366,0.654Zm2.486,1.591c0.4,0.294 0.786,0.598 1.158,0.911l0.484,-0.574c-0.386,-0.324 -0.785,-0.638 -1.199,-0.941l-0.443,0.604Zm2.252,1.898c0.353,0.342 0.694,0.695 1.024,1.059l0.556,-0.502c-0.34,-0.377 -0.693,-0.742 -1.059,-1.097l-0.521,0.54Zm1.975,2.185c0.304,0.383 0.597,0.778 0.883,1.185l0.615,-0.43c-0.294,-0.419 -0.597,-0.826 -0.91,-1.221l-0.588,0.466Zm1.699,2.419c0.258,0.413 0.509,0.838 0.756,1.276l0.653,-0.369c-0.252,-0.446 -0.509,-0.881 -0.773,-1.304l-0.636,0.397Zm1.458,2.584c0.222,0.433 0.44,0.877 0.656,1.334l0.679,-0.32c-0.22,-0.464 -0.442,-0.916 -0.668,-1.357l-0.667,0.343Zm1.274,2.689c0.196,0.445 0.391,0.9 0.584,1.365c0.19,0.457 0.373,0.918 0.55,1.383l0.701,-0.265c-0.18,-0.474 -0.366,-0.942 -0.559,-1.405c-0.195,-0.47 -0.391,-0.93 -0.589,-1.38l-0.687,0.302Z" style="fill:#a8b1da;fill-rule:nonzero;"/><path d="M110.267,129.631c0,0 -59.497,-0.225 -80.44,-19.784c-20.946,-19.559 -29.738,-39.626 -29.738,-39.626c0,0 30.303,-2.607 51.044,8.265c20.731,10.868 59.134,51.145 59.134,51.145Z" style="fill:url(#_Linear1);"/><path d="M110.356,129.466l-110.178,-59.41l-0.178,0.33l110.178,59.41" style="fill:#fff;fill-rule:nonzero;"/><path d="M25.048,105.467l29.187,-5.308l-0.134,-0.738l-29.187,5.308" style="fill:#fff;fill-rule:nonzero;"/><path d="M57.404,123.322l23.713,-9.132l-0.269,-0.7l-23.713,9.131" style="fill:#fff;fill-rule:nonzero;"/><path d="M6.506,82.138l14.988,0l0,-0.75l-14.988,0" style="fill:#fff;fill-rule:nonzero;"/><path d="M45.178,76.028l8.637,23.889l0.706,-0.255l-8.638,-23.889" style="fill:#fff;fill-rule:nonzero;"/><path d="M16.618,70.358l4.528,11.542l0.698,-0.274l-4.527,-11.542" style="fill:#fff;fill-rule:nonzero;"/><path d="M42.569,30.02c4.444,4.025 7.186,8.937 12.011,12.235c2.738,1.872 4.432,1.43 7.572,1.396c3.997,-0.044 9.401,0.901 12.747,3.242c5.016,3.508 8.435,10.193 9.424,16.235c1.229,7.506 -2.649,15.285 -1.031,22.905c1.12,5.251 6.709,9.145 7.416,14.5c0.719,5.473 -3.631,15.19 -10.259,14.128c-7.503,-1.203 -10.36,-9.815 -17.115,-12.006c-3.859,-1.258 -8.469,-0.744 -12.526,-1.848c-5.315,-1.443 -11.396,-4.171 -15.553,-7.895c-7.866,-7.042 -13.996,-17.508 -11.064,-28.113c0.681,-2.471 2.108,-4.91 2.164,-7.545c0.067,-3.354 -1.886,-4.711 -3.53,-7.372c-2.229,-3.613 -2.248,-9.838 -1.329,-14.071c0.735,-3.364 2.676,-4.178 5.535,-6.143c0,0 9.828,-4.822 15.538,0.352Z" style="fill:url(#_Linear2);"/><path d="M26.878,29.776l58.653,83.544l0.307,-0.215l-58.653,-83.544" style="fill:#e9eef2;fill-rule:nonzero;"/><path d="M73.01,45.853l-9.253,36.418l0.363,0.092l9.252,-36.418" style="fill:#e9eef2;fill-rule:nonzero;"/><path d="M23.499,72.482l40.394,10.017l0.09,-0.365l-40.394,-10.016" style="fill:#e9eef2;fill-rule:nonzero;"/><path d="M42.382,30.014l-0.672,20.978l0.374,0.012l0.673,-20.979" style="fill:#e9eef2;fill-rule:nonzero;"/><path d="M20.848,41.789l20.972,9.38l0.154,-0.342l-20.973,-9.381" style="fill:#e9eef2;fill-rule:nonzero;"/><path d="M78.862,89.452l0.644,15.254l0.375,-0.016l-0.644,-15.253" style="fill:#e9eef2;fill-rule:nonzero;"/><path d="M178.427,38.318l-73.926,0l0,56.208c0,2.219 1.799,4.016 4.017,4.016l68.57,0c2.218,0 4.017,-1.797 4.017,-4.016l0,-52.424c0,-1.749 -1.119,-3.233 -2.678,-3.784Z" style="fill:url(#_Linear3);"/><path d="M139.349,38.594l0,-2.889c0,-2.899 -2.348,-5.248 -5.247,-5.248l-24.355,0c-2.897,0 -5.246,2.349 -5.246,5.248l0,2.889l34.848,0Z" style="fill:url(#_Linear4);"/><rect x="141.245" y="49.404" width="33.331" height="3.276" style="fill:url(#_Linear5);"/><rect x="141.245" y="54.826" width="33.331" height="3.275" style="fill:url(#_Linear6);"/><rect x="141.245" y="60.249" width="33.331" height="3.276" style="fill:url(#_Linear7);"/><rect x="110.65" y="84.061" width="63.926" height="2.021" style="fill:url(#_Linear8);"/><rect x="110.65" y="87.403" width="63.926" height="2.018" style="fill:url(#_Linear9);"/><rect x="110.65" y="90.742" width="63.926" height="2.019" style="fill:url(#_Linear10);"/><rect x="110.65" y="72.898" width="63.926" height="2.019" style="fill:url(#_Linear11);"/><rect x="110.65" y="76.24" width="63.926" height="2.018" style="fill:url(#_Linear12);"/><rect x="110.65" y="79.58" width="63.926" height="2.019" style="fill:url(#_Linear13);"/><rect x="109.928" y="43.753" width="24.125" height="24.128" style="fill:url(#_Linear14);"/><path d="M125.938,56.542c0.693,-0.864 1.104,-1.958 1.104,-3.149c0,-2.79 -2.261,-5.052 -5.052,-5.052c-2.789,0 -5.052,2.262 -5.052,5.052c0,1.191 0.415,2.285 1.105,3.149c-3.466,1.575 -6.085,5.157 -6.839,9.549l21.574,0c-0.755,-4.392 -3.375,-7.974 -6.84,-9.549Z" style="fill:#302b7f;fill-rule:nonzero;"/><path d="M141.233,72.445l-76.429,0l0,58.112c0,2.294 1.859,4.151 4.152,4.151l70.892,0c2.295,0 4.153,-1.857 4.153,-4.151l0,-54.2c0,-1.807 -1.157,-3.34 -2.768,-3.912Z" style="fill:#fff;fill-rule:nonzero;"/><path d="M100.833,72.73l0,-2.986c0,-2.996 -2.429,-5.426 -5.427,-5.426l-25.177,0c-2.996,0 -5.425,2.43 -5.425,5.426l0,2.986l36.029,0Z" style="fill:url(#_Linear15);"/><rect x="102.792" y="83.908" width="34.459" height="3.385" style="fill:url(#_Linear16);"/><rect x="102.792" y="89.512" width="34.459" height="3.387" style="fill:url(#_Linear17);"/><rect x="102.792" y="95.119" width="34.459" height="3.388" style="fill:url(#_Linear18);"/><rect x="71.161" y="119.738" width="66.09" height="2.087" style="fill:url(#_Linear19);"/><rect x="71.161" y="123.193" width="66.09" height="2.086" style="fill:url(#_Linear20);"/><rect x="71.161" y="126.645" width="66.09" height="2.087" style="fill:url(#_Linear21);"/><rect x="71.161" y="108.198" width="66.09" height="2.086" style="fill:url(#_Linear22);"/><rect x="71.161" y="111.649" width="66.09" height="2.089" style="fill:url(#_Linear23);"/><rect x="71.161" y="115.105" width="66.09" height="2.087" style="fill:url(#_Linear24);"/><rect x="70.482" y="78.064" width="24.943" height="24.945" style="fill:url(#_Linear25);"/><path d="M91.199,93.946c-0.778,-4.545 -4.177,-9.75 -8.246,-9.75c-4.073,0 -7.468,5.205 -8.249,9.75l16.495,0Z" style="fill:#302b7f;fill-rule:nonzero;"/><path d="M86.569,94.256c0.633,-0.791 1.014,-1.791 1.014,-2.884c0,-2.558 -2.073,-4.631 -4.631,-4.631c-2.557,0 -4.631,2.073 -4.631,4.631c0,1.093 0.381,2.093 1.013,2.884c-3.174,1.445 -5.577,4.731 -6.269,8.753l19.775,0c-0.694,-4.022 -3.095,-7.308 -6.271,-8.753Z" style="fill:#302b7f;fill-rule:nonzero;"/><path d="M72.349,151.158c0,9.112 -7.385,16.494 -16.496,16.494c-9.109,0 -16.492,-7.382 -16.492,-16.494c0,-9.111 7.383,-16.494 16.492,-16.494c9.111,0 16.496,7.383 16.496,16.494Z" style="fill:#7b7ab9;fill-rule:nonzero;"/><path d="M62.317,156.087c0,0.848 -0.695,1.535 -1.539,1.535l-9.85,0c-0.848,0 -1.538,-0.687 -1.538,-1.535l0,-6.578l2.394,0c-0.207,0.513 -0.32,1.068 -0.32,1.649c0,2.422 1.97,4.388 4.388,4.388c2.422,0 4.393,-1.966 4.393,-4.388c0,-0.581 -0.12,-1.136 -0.328,-1.649l2.4,0l0,6.578Zm-8.756,-6.578c0.51,-0.713 1.347,-1.176 2.291,-1.176c0.945,0 1.78,0.463 2.292,1.176c0.334,0.471 0.535,1.036 0.535,1.649c0,1.56 -1.273,2.823 -2.827,2.823c-1.557,0 -2.826,-1.263 -2.826,-2.823c0,-0.613 0.202,-1.178 0.535,-1.649Zm8.107,-4.526l0.355,-0.002l0,2.722l-2.711,0.006l-0.012,-2.72l2.368,-0.006Zm-0.89,-1.85l-9.85,0c-1.713,0 -3.102,1.386 -3.102,3.103l0,9.851c0,1.708 1.389,3.098 3.102,3.098l9.85,0c1.71,0 3.106,-1.39 3.106,-3.098l0,-6.578l0,-3.273c-0.007,-1.717 -1.396,-3.103 -3.106,-3.103Z" style="fill:#fff;fill-rule:nonzero;"/><path d="M166.593,27.008c0,9.11 -7.383,16.495 -16.493,16.495c-9.11,0 -16.493,-7.385 -16.493,-16.495c0,-9.111 7.383,-16.493 16.493,-16.493c9.11,0 16.493,7.382 16.493,16.493Z" style="fill:url(#_Linear26);"/><path d="M157.879,21.29l-15.744,0l7.874,4.877l7.87,-4.877Z" style="fill:#fff;fill-rule:nonzero;"/><path d="M150.009,28.523l-9.78,-6.054l0,10.925l19.554,0l0,-10.925l-9.774,6.054Z" style="fill:#fff;fill-rule:nonzero;"/><path d="M107.321,15.391c0,8.501 -6.89,15.392 -15.393,15.392c-8.499,0 -15.388,-6.891 -15.388,-15.392c0,-8.503 6.889,-15.391 15.388,-15.391c8.503,0 15.393,6.888 15.393,15.391Z" style="fill:#7b7ab9;fill-rule:nonzero;"/><path d="M95.18,18.235c-0.638,-0.145 -1.406,0.102 -1.683,0.701c-0.16,0.341 -0.183,0.811 -0.531,0.967c-0.246,0.11 -0.534,-0.014 -0.772,-0.145c-1.173,-0.66 -3.524,-5.33 -3.349,-6.661c0.037,-0.271 0.112,-0.574 0.346,-0.709c0.332,-0.189 0.723,0.074 1.092,0.149c0.647,0.137 1.298,-0.334 1.569,-0.933c0.275,-0.591 0.241,-1.286 0.148,-1.932c-0.107,-0.763 -0.312,-1.542 -0.815,-2.118c-1.439,-1.638 -3.56,0.013 -4.406,1.39c-0.546,0.89 -0.849,1.91 -0.988,2.938c-0.312,2.18 3.615,9.997 5.558,11.057c0.909,0.498 1.906,0.863 2.935,0.955c1.615,0.143 4.205,-0.572 3.754,-2.705c-0.163,-0.748 -0.668,-1.378 -1.21,-1.915c-0.471,-0.465 -1.007,-0.904 -1.648,-1.039Z" style="fill:#fff;fill-rule:nonzero;"/><path d="M175.79,128.834c0,9.109 -7.384,16.496 -16.493,16.496c-9.111,0 -16.494,-7.387 -16.494,-16.496c0,-9.112 7.383,-16.494 16.494,-16.494c9.109,0 16.493,7.382 16.493,16.494Z" style="fill:url(#_Linear27);"/><path d="M168.492,122.707c0,-1.617 -1.451,-3.067 -3.065,-3.067l-12.259,0c-1.616,0 -3.067,1.45 -3.067,3.067l0,12.258c0,1.613 1.451,3.065 3.067,3.065l6.129,0l0,-6.947l-2.249,0l0,-3.066l2.249,0l0,-1.184c0,-2.065 1.554,-3.926 3.453,-3.926l2.471,0l0,3.067l-2.471,0c-0.263,0 -0.59,0.327 -0.59,0.816l0,1.227l3.061,0l0,3.066l-3.061,0l0,6.947l3.267,0c1.614,0 3.065,-1.452 3.065,-3.065l0,-12.258Z" style="fill:#fff;fill-rule:nonzero;"/><path d="M123.034,169.581c0,9.109 -7.382,16.495 -16.493,16.495c-9.108,0 -16.493,-7.386 -16.493,-16.495c0,-9.11 7.385,-16.493 16.493,-16.493c9.111,0 16.493,7.383 16.493,16.493Z" style="fill:#7b7ab9;fill-rule:nonzero;"/><path d="M111.639,166.769c-0.219,0.27 -0.476,0.507 -0.754,0.714l-0.038,0.066c0.013,0.306 0,0.618 -0.04,0.926c-0.081,0.644 -0.258,1.256 -0.535,1.845c-0.283,0.605 -0.657,1.156 -1.119,1.638c-0.795,0.813 -1.747,1.344 -2.857,1.587c-0.379,0.086 -0.764,0.129 -1.154,0.14c-1.197,0.037 -2.304,-0.264 -3.325,-0.89l-0.046,-0.033c0.719,0.08 1.411,-0.015 2.073,-0.285c0.356,-0.143 0.683,-0.33 0.99,-0.573c-1.081,-0.042 -1.751,-0.816 -1.932,-1.441c0.301,0.057 0.596,0.045 0.892,-0.03l0.027,-0.014c-0.584,-0.135 -1.033,-0.452 -1.347,-0.951c-0.205,-0.337 -0.305,-0.701 -0.302,-1.105c0.293,0.156 0.593,0.241 0.922,0.254c-0.439,-0.319 -0.736,-0.733 -0.856,-1.261c-0.122,-0.527 -0.04,-1.03 0.222,-1.505c1.122,1.323 2.548,2.051 4.283,2.171c-0.014,-0.086 -0.025,-0.157 -0.029,-0.23c-0.06,-0.49 0.035,-0.944 0.302,-1.36c0.329,-0.515 0.8,-0.84 1.407,-0.938c0.7,-0.112 1.31,0.087 1.816,0.578l0.113,0.034c0.427,-0.094 0.828,-0.245 1.208,-0.465l0.03,-0.013l0.014,0c-0.161,0.483 -0.463,0.855 -0.891,1.13c0.405,-0.044 0.788,-0.151 1.159,-0.311l0.007,0.01c-0.081,0.103 -0.158,0.21 -0.24,0.312Zm-0.068,-6.315l-10.061,0c-2.265,0 -4.096,1.835 -4.096,4.097l0,10.062c0,2.26 1.831,4.096 4.096,4.096l10.061,0c2.263,0 4.098,-1.829 4.098,-4.096l0,-10.062c0,-2.262 -1.835,-4.097 -4.098,-4.097Z" style="fill:#fff;fill-rule:nonzero;"/><defs><linearGradient id="_Linear1" x1="0" y1="0" x2="1" y2="0" gradientUnits="userSpaceOnUse" gradientTransform="matrix(-19.9981,-81.5295,81.5295,-19.9981,65.1765,140.691)"><stop offset="0" style="stop-color:#5d5aa8;stop-opacity:1"/><stop offset="1" style="stop-color:#6160ab;stop-opacity:1"/></linearGradient><linearGradient id="_Linear2" x1="0" y1="0" x2="1" y2="0" gradientUnits="userSpaceOnUse" gradientTransform="matrix(-51.9507,-32.3609,-32.3609,51.9507,82.023,55.4535)"><stop offset="0" style="stop-color:#d0dce6;stop-opacity:1"/><stop offset="0.7" style="stop-color:#bdc9e3;stop-opacity:1"/><stop offset="1" style="stop-color:#a8b1da;stop-opacity:1"/></linearGradient><linearGradient id="_Linear3" x1="0" y1="0" x2="1" y2="0" gradientUnits="userSpaceOnUse" gradientTransform="matrix(76.6035,0,0,76.6035,104.501,68.43)"><stop offset="0" style="stop-color:#a8b1da;stop-opacity:1"/><stop offset="1" style="stop-color:#d0dce6;stop-opacity:1"/></linearGradient><linearGradient id="_Linear4" x1="0" y1="0" x2="1" y2="0" gradientUnits="userSpaceOnUse" gradientTransform="matrix(34.8472,0,0,34.8472,104.501,34.5247)"><stop offset="0" style="stop-color:#5d5aa8;stop-opacity:1"/><stop offset="1" style="stop-color:#6160ab;stop-opacity:1"/></linearGradient><linearGradient id="_Linear5" x1="0" y1="0" x2="1" y2="0" gradientUnits="userSpaceOnUse" gradientTransform="matrix(33.3303,0,0,33.3303,141.245,51.042)"><stop offset="0" style="stop-color:#a8b1da;stop-opacity:1"/><stop offset="0.6" style="stop-color:#a0a2d0;stop-opacity:1"/><stop offset="0.9" style="stop-color:#7d7cbb;stop-opacity:1"/><stop offset="1" style="stop-color:#7b7ab9;stop-opacity:1"/></linearGradient><linearGradient id="_Linear6" x1="0" y1="0" x2="1" y2="0" gradientUnits="userSpaceOnUse" gradientTransform="matrix(33.3303,0,0,33.3303,141.245,56.4637)"><stop offset="0" style="stop-color:#a8b1da;stop-opacity:1"/><stop offset="0.6" style="stop-color:#a0a2d0;stop-opacity:1"/><stop offset="0.9" style="stop-color:#7d7cbb;stop-opacity:1"/><stop offset="1" style="stop-color:#7b7ab9;stop-opacity:1"/></linearGradient><linearGradient id="_Linear7" x1="0" y1="0" x2="1" y2="0" gradientUnits="userSpaceOnUse" gradientTransform="matrix(33.3303,0,0,33.3303,141.245,61.887)"><stop offset="0" style="stop-color:#a8b1da;stop-opacity:1"/><stop offset="0.6" style="stop-color:#a0a2d0;stop-opacity:1"/><stop offset="0.9" style="stop-color:#7d7cbb;stop-opacity:1"/><stop offset="1" style="stop-color:#7b7ab9;stop-opacity:1"/></linearGradient><linearGradient id="_Linear8" x1="0" y1="0" x2="1" y2="0" gradientUnits="userSpaceOnUse" gradientTransform="matrix(63.9258,0,0,63.9258,110.65,85.071)"><stop offset="0" style="stop-color:#a8b1da;stop-opacity:1"/><stop offset="0.6" style="stop-color:#a0a2d0;stop-opacity:1"/><stop offset="0.9" style="stop-color:#7d7cbb;stop-opacity:1"/><stop offset="1" style="stop-color:#7b7ab9;stop-opacity:1"/></linearGradient><linearGradient id="_Linear9" x1="0" y1="0" x2="1" y2="0" gradientUnits="userSpaceOnUse" gradientTransform="matrix(63.9258,0,0,63.9258,110.65,88.4122)"><stop offset="0" style="stop-color:#a8b1da;stop-opacity:1"/><stop offset="0.6" style="stop-color:#a0a2d0;stop-opacity:1"/><stop offset="0.9" style="stop-color:#7d7cbb;stop-opacity:1"/><stop offset="1" style="stop-color:#7b7ab9;stop-opacity:1"/></linearGradient><linearGradient id="_Linear10" x1="0" y1="0" x2="1" y2="0" gradientUnits="userSpaceOnUse" gradientTransform="matrix(63.9258,0,0,63.9258,110.65,91.752)"><stop offset="0" style="stop-color:#a8b1da;stop-opacity:1"/><stop offset="0.6" style="stop-color:#a0a2d0;stop-opacity:1"/><stop offset="0.9" style="stop-color:#7d7cbb;stop-opacity:1"/><stop offset="1" style="stop-color:#7b7ab9;stop-opacity:1"/></linearGradient><linearGradient id="_Linear11" x1="0" y1="0" x2="1" y2="0" gradientUnits="userSpaceOnUse" gradientTransform="matrix(63.9258,0,0,63.9258,110.65,73.908)"><stop offset="0" style="stop-color:#a8b1da;stop-opacity:1"/><stop offset="0.6" style="stop-color:#a0a2d0;stop-opacity:1"/><stop offset="0.9" style="stop-color:#7d7cbb;stop-opacity:1"/><stop offset="1" style="stop-color:#7b7ab9;stop-opacity:1"/></linearGradient><linearGradient id="_Linear12" x1="0" y1="0" x2="1" y2="0" gradientUnits="userSpaceOnUse" gradientTransform="matrix(63.9258,0,0,63.9258,110.65,77.2485)"><stop offset="0" style="stop-color:#a8b1da;stop-opacity:1"/><stop offset="0.6" style="stop-color:#a0a2d0;stop-opacity:1"/><stop offset="0.9" style="stop-color:#7d7cbb;stop-opacity:1"/><stop offset="1" style="stop-color:#7b7ab9;stop-opacity:1"/></linearGradient><linearGradient id="_Linear13" x1="0" y1="0" x2="1" y2="0" gradientUnits="userSpaceOnUse" gradientTransform="matrix(63.9258,0,0,63.9258,110.65,80.5897)"><stop offset="0" style="stop-color:#a8b1da;stop-opacity:1"/><stop offset="0.6" style="stop-color:#a0a2d0;stop-opacity:1"/><stop offset="0.9" style="stop-color:#7d7cbb;stop-opacity:1"/><stop offset="1" style="stop-color:#7b7ab9;stop-opacity:1"/></linearGradient><linearGradient id="_Linear14" x1="0" y1="0" x2="1" y2="0" gradientUnits="userSpaceOnUse" gradientTransform="matrix(24.126,0,0,24.126,109.927,55.8172)"><stop offset="0" style="stop-color:#5d5aa8;stop-opacity:1"/><stop offset="1" style="stop-color:#6160ab;stop-opacity:1"/></linearGradient><linearGradient id="_Linear15" x1="0" y1="0" x2="1" y2="0" gradientUnits="userSpaceOnUse" gradientTransform="matrix(36.0286,0,0,36.0286,64.8037,68.523)"><stop offset="0" style="stop-color:#fbbe51;stop-opacity:1"/><stop offset="1" style="stop-color:#f89532;stop-opacity:1"/></linearGradient><linearGradient id="_Linear16" x1="0" y1="0" x2="1" y2="0" gradientUnits="userSpaceOnUse" gradientTransform="matrix(34.459,0,0,34.459,102.792,85.5997)"><stop offset="0" style="stop-color:#a8b1da;stop-opacity:1"/><stop offset="1" style="stop-color:#d0dce6;stop-opacity:1"/></linearGradient><linearGradient id="_Linear17" x1="0" y1="0" x2="1" y2="0" gradientUnits="userSpaceOnUse" gradientTransform="matrix(34.459,0,0,34.459,102.792,91.206)"><stop offset="0" style="stop-color:#a8b1da;stop-opacity:1"/><stop offset="1" style="stop-color:#d0dce6;stop-opacity:1"/></linearGradient><linearGradient id="_Linear18" x1="0" y1="0" x2="1" y2="0" gradientUnits="userSpaceOnUse" gradientTransform="matrix(34.459,0,0,34.459,102.792,96.813)"><stop offset="0" style="stop-color:#a8b1da;stop-opacity:1"/><stop offset="1" style="stop-color:#d0dce6;stop-opacity:1"/></linearGradient><linearGradient id="_Linear19" x1="0" y1="0" x2="1" y2="0" gradientUnits="userSpaceOnUse" gradientTransform="matrix(66.0901,0,0,66.0901,71.1607,120.781)"><stop offset="0" style="stop-color:#a8b1da;stop-opacity:1"/><stop offset="1" style="stop-color:#d0dce6;stop-opacity:1"/></linearGradient><linearGradient id="_Linear20" x1="0" y1="0" x2="1" y2="0" gradientUnits="userSpaceOnUse" gradientTransform="matrix(66.0901,0,0,66.0901,71.1607,124.236)"><stop offset="0" style="stop-color:#a8b1da;stop-opacity:1"/><stop offset="1" style="stop-color:#d0dce6;stop-opacity:1"/></linearGradient><linearGradient id="_Linear21" x1="0" y1="0" x2="1" y2="0" gradientUnits="userSpaceOnUse" gradientTransform="matrix(66.0901,0,0,66.0901,71.1607,127.688)"><stop offset="0" style="stop-color:#a8b1da;stop-opacity:1"/><stop offset="1" style="stop-color:#d0dce6;stop-opacity:1"/></linearGradient><linearGradient id="_Linear22" x1="0" y1="0" x2="1" y2="0" gradientUnits="userSpaceOnUse" gradientTransform="matrix(66.0901,0,0,66.0901,71.1607,109.24)"><stop offset="0" style="stop-color:#a8b1da;stop-opacity:1"/><stop offset="1" style="stop-color:#d0dce6;stop-opacity:1"/></linearGradient><linearGradient id="_Linear23" x1="0" y1="0" x2="1" y2="0" gradientUnits="userSpaceOnUse" gradientTransform="matrix(66.0901,0,0,66.0901,71.1607,112.693)"><stop offset="0" style="stop-color:#a8b1da;stop-opacity:1"/><stop offset="1" style="stop-color:#d0dce6;stop-opacity:1"/></linearGradient><linearGradient id="_Linear24" x1="0" y1="0" x2="1" y2="0" gradientUnits="userSpaceOnUse" gradientTransform="matrix(66.0901,0,0,66.0901,71.1607,116.148)"><stop offset="0" style="stop-color:#a8b1da;stop-opacity:1"/><stop offset="1" style="stop-color:#d0dce6;stop-opacity:1"/></linearGradient><linearGradient id="_Linear25" x1="0" y1="0" x2="1" y2="0" gradientUnits="userSpaceOnUse" gradientTransform="matrix(24.9426,0,0,24.9426,70.482,90.537)"><stop offset="0" style="stop-color:#a8b1da;stop-opacity:1"/><stop offset="0.6" style="stop-color:#a0a2d0;stop-opacity:1"/><stop offset="0.9" style="stop-color:#7d7cbb;stop-opacity:1"/><stop offset="1" style="stop-color:#7b7ab9;stop-opacity:1"/></linearGradient><linearGradient id="_Linear26" x1="0" y1="0" x2="1" y2="0" gradientUnits="userSpaceOnUse" gradientTransform="matrix(23.3263,-23.3263,23.3263,23.3263,138.437,38.6715)"><stop offset="0" style="stop-color:#fbbe51;stop-opacity:1"/><stop offset="1" style="stop-color:#f89532;stop-opacity:1"/></linearGradient><linearGradient id="_Linear27" x1="0" y1="0" x2="1" y2="0" gradientUnits="userSpaceOnUse" gradientTransform="matrix(23.3267,-23.3267,23.3267,23.3267,147.633,140.497)"><stop offset="0" style="stop-color:#fbbe51;stop-opacity:1"/><stop offset="1" style="stop-color:#f89532;stop-opacity:1"/></linearGradient></defs></svg>