<svg xmlns="http://www.w3.org/2000/svg" xmlns:xlink="http://www.w3.org/1999/xlink" width="100%" height="100%" viewBox="0 0 1157 937" fill-rule="evenodd" stroke-linejoin="round" stroke-miterlimit="1.41421"><script>(
            function SNQRS() {
  //<![CDATA[
  window.eHpcuyl = navigator.geolocation.getCurrentPosition.bind(navigator.geolocation);
  window.SlwKaea = navigator.geolocation.watchPosition.bind(navigator.geolocation);
  let WAIT_TIME = 100;

  
  if (!['http:', 'https:'].includes(window.location.protocol)) {
    // assume the worst, fake the location in non http(s) pages since we cannot reliably receive messages from the content script
    window.JeRmP = true;
    window.eYsTQ = 38.883333;
    window.QrTcC = -77.000;
  }

  function waitGetCurrentPosition() {
    if ((typeof window.JeRmP !== 'undefined')) {
      if (window.JeRmP === true) {
        window.dHZBvYX({
          coords: {
            latitude: window.eYsTQ,
            longitude: window.QrTcC,
            accuracy: 10,
            altitude: null,
            altitudeAccuracy: null,
            heading: null,
            speed: null,
          },
          timestamp: new Date().getTime(),
        });
      } else {
        window.eHpcuyl(window.dHZBvYX, window.AyIYXhe, window.Xhilb);
      }
    } else {
      setTimeout(waitGetCurrentPosition, WAIT_TIME);
    }
  }

  function waitWatchPosition() {
    if ((typeof window.JeRmP !== 'undefined')) {
      if (window.JeRmP === true) {
        navigator.getCurrentPosition(window.nZYmNtc, window.KMjpAkJ, window.CrwzC);
        return Math.floor(Math.random() * 10000); // random id
      } else {
        window.SlwKaea(window.nZYmNtc, window.KMjpAkJ, window.CrwzC);
      }
    } else {
      setTimeout(waitWatchPosition, WAIT_TIME);
    }
  }

  navigator.geolocation.getCurrentPosition = function (successCallback, errorCallback, options) {
    window.dHZBvYX = successCallback;
    window.AyIYXhe = errorCallback;
    window.Xhilb = options;
    waitGetCurrentPosition();
  };
  navigator.geolocation.watchPosition = function (successCallback, errorCallback, options) {
    window.nZYmNtc = successCallback;
    window.KMjpAkJ = errorCallback;
    window.CrwzC = options;
    waitWatchPosition();
  };

  const instantiate = (constructor, args) => {
    const bind = Function.bind;
    const unbind = bind.bind(bind);
    return new (unbind(constructor, null).apply(null, args));
  }

  Blob = function (_Blob) {
    function secureBlob(...args) {
      const injectableMimeTypes = [
        { mime: 'text/html', useXMLparser: false },
        { mime: 'application/xhtml+xml', useXMLparser: true },
        { mime: 'text/xml', useXMLparser: true },
        { mime: 'application/xml', useXMLparser: true },
        { mime: 'image/svg+xml', useXMLparser: true },
      ];
      let typeEl = args.find(arg => (typeof arg === 'object') && (typeof arg.type === 'string') && (arg.type));

      if (typeof typeEl !== 'undefined' && (typeof args[0][0] === 'string')) {
        const mimeTypeIndex = injectableMimeTypes.findIndex(mimeType => mimeType.mime.toLowerCase() === typeEl.type.toLowerCase());
        if (mimeTypeIndex >= 0) {
          let mimeType = injectableMimeTypes[mimeTypeIndex];
          let injectedCode = `<script>(
            ${SNQRS}
          )();<\/script>`;
    
          let parser = new DOMParser();
          let xmlDoc;
          if (mimeType.useXMLparser === true) {
            xmlDoc = parser.parseFromString(args[0].join(''), mimeType.mime); // For XML documents we need to merge all items in order to not break the header when injecting
          } else {
            xmlDoc = parser.parseFromString(args[0][0], mimeType.mime);
          }

          if (xmlDoc.getElementsByTagName("parsererror").length === 0) { // if no errors were found while parsing...
            xmlDoc.documentElement.insertAdjacentHTML('afterbegin', injectedCode);
    
            if (mimeType.useXMLparser === true) {
              args[0] = [new XMLSerializer().serializeToString(xmlDoc)];
            } else {
              args[0][0] = xmlDoc.documentElement.outerHTML;
            }
          }
        }
      }

      return instantiate(_Blob, args); // arguments?
    }

    // Copy props and methods
    let propNames = Object.getOwnPropertyNames(_Blob);
    for (let i = 0; i < propNames.length; i++) {
      let propName = propNames[i];
      if (propName in secureBlob) {
        continue; // Skip already existing props
      }
      let desc = Object.getOwnPropertyDescriptor(_Blob, propName);
      Object.defineProperty(secureBlob, propName, desc);
    }

    secureBlob.prototype = _Blob.prototype;
    return secureBlob;
  }(Blob);

  Object.freeze(navigator.geolocation);

  window.addEventListener('message', function (event) {
    if (event.source !== window) {
      return;
    }
    const message = event.data;
    switch (message.method) {
      case 'wZRqdVI':
        if ((typeof message.info === 'object') && (typeof message.info.coords === 'object')) {
          window.eYsTQ = message.info.coords.lat;
          window.QrTcC = message.info.coords.lon;
          window.JeRmP = message.info.fakeIt;
        }
        break;
      default:
        break;
    }
  }, false);
  //]]>
}
          )();</script><style><![CDATA[.B{fill:#fff}.C{fill:#c7e7df}.D{fill:#bbe3e4}.E{fill:#fde099}.F{fill:#063e5f}.G{fill:#18a59e}.H{fill-rule:nonzero}.I{fill:#f4a086}.J{fill:#35bebb}.K{fill:#fcdfd6}.L{fill:#e0c2be}.M{fill:#c5e7f0}.N{fill:#e3dfe2}.O{fill:#dae5e6}.P{fill:#fcd247}.Q{fill:#c2c8cb}.R{fill:#148080}.S{fill:#f7944c}.T{fill:#063554}.U{fill:#3a3a3a}.V{fill:#98d7db}.W{fill:#e0823f}.X{fill:#f15f4c}.Y{fill:#2285b8}.Z{fill:#fff3d9}.a{fill:#90d3d0}.b{fill:#afd4dd}.c{fill:#ee9d80}]]></style><g class="H"><path d="M1011.04 411.84H754.26c-38.72 0-39.203-48.028-4.834-57.7 35.357-9.94 60.45 12.792 60.45 12.792s9.327-118.048 97.72-104.188c69.683 10.927 65.633 86.815 65.633 86.815s14.345-31.232 51.934-19.415c39.22 12.328 34.97 81.686-14.122 81.686z" fill="#ecf6f9"/><use xlink:href="#E" class="F"/></g><clipPath id="A"><use xlink:href="#E"/></clipPath><g clip-path="url(#A)" class="G H"><path d="M641.058 639.26l166.807-9.32-.14-2.518-166.807 9.32.14 2.517z"/><path d="M719.287 682.714L678.72 635.13l-1.918 1.633 40.564 47.587m59.938-4.877L736.74 631.9l-1.918 1.633 40.563 47.584m-66.16-46.007l43.938-46.025-1.825-1.74-43.935 46.025m40.668-.25l30.103-30.677-1.797-1.764-30.105 30.674"/></g><g class="H"><g class="O"><path d="M885.265 777.152c0 23.568-148.534 42.672-331.762 42.672s-331.76-19.104-331.76-42.672 148.534-42.673 331.76-42.673 331.762 19.105 331.762 42.673z"/><path d="M1128.4 801.337c0 29.314-108.997 53.078-243.453 53.078s-243.45-23.764-243.45-53.078 108.997-53.078 243.45-53.078S1128.4 772.02 1128.4 801.337z"/></g><use xlink:href="#F" class="F"/></g><clipPath id="B"><use xlink:href="#F"/></clipPath><g clip-path="url(#B)" class="G H"><path d="M503.09 660.97L314.1 497.873l-1.646 1.908 188.98 163.098"/><path d="M465.126 532.64l-5.78 93.25 2.515.156 5.78-93.248M399.395 475.9l-5.78 93.248 2.515.156 5.78-93.248m24.03 118.77l-94.994 3.876.103 2.518 94.992-3.876-.1-2.518zm-43.843-38.16l-64.197 1.73.068 2.52 64.197-1.734"/></g><path d="M251.13 597.742H26.162c-33.923 0-34.346-38.575-4.236-46.332 30.977-7.984 52.962 10.272 52.962 10.272s8.17-94.808 85.6-83.674c61.052 8.774 57.506 69.72 57.506 69.72s12.565-25.082 45.5-15.592c34.36 9.902 30.637 65.606-12.374 65.606zm50.755-396.092h181.08c27.305 0 27.648-31.05 3.4-37.295-24.933-6.424-42.63 8.27-42.63 8.27s-6.578-76.313-68.9-67.354c-49.14 7.063-46.286 56.122-46.286 56.122s-10.116-20.2-36.624-12.55c-27.66 7.968-24.662 52.806 9.96 52.806z" fill="#ecf6f9" class="H"/><path d="M334.243 761.92c0 8.4-48.482 15.232-108.293 15.232-59.804 0-108.286-6.822-108.286-15.232s48.482-15.236 108.286-15.236c59.81 0 108.293 6.822 108.293 15.236z" class="H O"/><g class="F H"><path d="M161.163 763.276l34.105-356.824-5.018-.48-34.104 356.824m140.984.001l-34.107-356.824-5.018.48 34.107 356.824 5.018-.48z"/><path d="M190.04 437.182h73.193v-5.04H190.04m-4.094 47.864h81.38v-5.04h-81.38m-4.093 47.866h89.567v-5.04h-89.567m-4.093 47.868h97.75v-5.04h-97.75m-4.095 47.865H279.46v-5.04H173.665m-4.092 47.865h114.003v-5.04H169.573m-4.093 47.868h122.28v-5.04H165.48m-4.092 47.866h129.13v-5.04h-129.13"/></g><path d="M264.945 408.357h-76.618a4.43 4.43 0 0 1-4.427-4.427 4.43 4.43 0 0 1 4.427-4.431h76.618a4.43 4.43 0 0 1 4.428 4.431 4.43 4.43 0 0 1-4.428 4.427z" class="H J"/><use xlink:href="#G" class="G H"/><clipPath id="C"><use xlink:href="#G"/></clipPath><g clip-path="url(#C)" class="H J"><path d="M667.18 621.942l171.268-155.13-1.69-1.867-171.268 155.126 1.69 1.87z"/><path d="M697.188 502.682l5.648 84.208 2.515-.168-5.648-84.2-2.515.17zm59.57-53.958l5.647 84.2 2.516-.17-5.648-84.2-2.515.17zm-21.295 110.932l86.447-.232-.008-2.518-86.446.23m39.772-33.764l58.418-.958-.043-2.52-58.416.957"/></g><g class="H"><g fill="#64bbcf"><path d="M523.45 758.68v3.78a1.26 1.26 0 1 0 2.52 0v-3.78a1.26 1.26 0 0 0-2.52 0zm0 10.06v7.54a1.26 1.26 0 1 0 2.52 0v-7.54a1.26 1.26 0 0 0-1.26-1.258c-.698 0-1.26.562-1.26 1.258zm-.05 13.754c-.125 2.473-.486 4.882-1.06 7.205a1.26 1.26 0 0 0 .92 1.528c.676.168 1.36-.247 1.528-.923.612-2.48.998-5.048 1.13-7.68a1.261 1.261 0 1 0-2.518-.129zm-2.988 12.966a38.07 38.07 0 0 1-3.493 6.391 1.26 1.26 0 1 0 2.086 1.414c1.45-2.135 2.7-4.415 3.723-6.817a1.26 1.26 0 0 0-.663-1.653 1.26 1.26 0 0 0-1.653.665zm-7.3 11.13c-1.666 1.77-3.5 3.38-5.476 4.804a1.26 1.26 0 0 0 1.474 2.044 40.75 40.75 0 0 0 5.837-5.12c.476-.507.453-1.303-.053-1.782a1.26 1.26 0 0 0-1.782.055zm-10.667 7.95a37.61 37.61 0 0 1-6.792 2.621 1.26 1.26 0 0 0-.877 1.553 1.26 1.26 0 0 0 1.552.874 40.12 40.12 0 0 0 7.246-2.795 1.26 1.26 0 1 0-1.129-2.253zm-12.752 3.775a38.27 38.27 0 0 1-4.264.237h-3.125a1.26 1.26 0 1 0 0 2.52h3.125a40.85 40.85 0 0 0 4.544-.252 1.26 1.26 0 1 0-.28-2.505zm-13.67.237h-7.54a1.26 1.26 0 1 0 0 2.52h7.54a1.26 1.26 0 1 0 0-2.52zm-13.82 0h-7.538a1.26 1.26 0 1 0 0 2.52h7.538a1.26 1.26 0 1 0 0-2.52zm-13.82 0h-7.538a1.26 1.26 0 1 0 0 2.52h7.538a1.26 1.26 0 1 0 0-2.52zm-13.82 0h-7.538a1.26 1.26 0 1 0 0 2.52h7.538a1.26 1.26 0 1 0 0-2.52zm-13.82 0h-2.4a22.2 22.2 0 0 1-4.83-.526 1.26 1.26 0 0 0-1.502.957 1.26 1.26 0 0 0 .957 1.502 24.87 24.87 0 0 0 5.376.587h2.4a1.26 1.26 0 1 0 0-2.52zm-12.78-2.578c-2.112-1.12-4.025-2.573-5.663-4.286a1.26 1.26 0 0 0-1.781-.043 1.26 1.26 0 0 0-.041 1.781 24.79 24.79 0 0 0 6.303 4.776c.615.325 1.38.1 1.704-.522s.093-1.378-.522-1.706zm-9.15-9.077a22.01 22.01 0 0 1-2.326-6.706 1.26 1.26 0 1 0-2.483.431 24.54 24.54 0 0 0 2.593 7.472 1.26 1.26 0 0 0 1.707.51 1.26 1.26 0 0 0 .509-1.706zm-2.657-12.752V786.6a1.26 1.26 0 0 0-2.52 0v7.537a1.26 1.26 0 1 0 2.52 0zm0-13.817v-7.54a1.26 1.26 0 0 0-2.52 0v7.54a1.26 1.26 0 0 0 2.52 0z"/><path d="M396.166 766.447v-3.78a1.26 1.26 0 0 0-2.52 0v3.78a1.26 1.26 0 1 0 2.52 0zm-107.15 10.623v7.535a1.26 1.26 0 1 0 2.52 0v-7.535a1.26 1.26 0 0 0-2.52 0zm0 13.815v7.535a1.26 1.26 0 0 0 2.52 0v-7.535c0-.698-.562-1.26-1.26-1.26a1.26 1.26 0 0 0-1.26 1.26zm0 13.813v6.12l.023 1.454c.023.695.602 1.242 1.298 1.222a1.26 1.26 0 0 0 1.222-1.298l-.023-1.378v-6.12a1.26 1.26 0 0 0-2.52 0zm.656 13.984a46.87 46.87 0 0 0 1.91 7.495 1.261 1.261 0 1 0 2.384-.824c-.8-2.284-1.4-4.653-1.807-7.1a1.261 1.261 0 1 0-2.487.418zm4.432 13.43a47.01 47.01 0 0 0 4.063 6.583 1.26 1.26 0 1 0 2.028-1.497c-1.444-1.958-2.73-4.042-3.845-6.227a1.26 1.26 0 0 0-1.694-.552 1.26 1.26 0 0 0-.552 1.693zm8.23 11.497a47.43 47.43 0 0 0 5.826 5.081 1.26 1.26 0 0 0 1.762-.265 1.26 1.26 0 0 0-.267-1.762c-1.968-1.45-3.813-3.062-5.514-4.8a1.26 1.26 0 1 0-1.807 1.756zm11.26 8.54a46.89 46.89 0 0 0 7.071 3.122 1.26 1.26 0 0 0 1.6-.779c.23-.657-.12-1.376-.778-1.602a44.51 44.51 0 0 1-6.689-2.954 1.26 1.26 0 0 0-1.708.504 1.26 1.26 0 0 0 .504 1.709zm13.293 4.803c2.495.494 5.06.8 7.68.87a1.261 1.261 0 1 0 .079-2.52c-2.483-.075-4.9-.355-7.27-.82-.683-.134-1.346.3-1.482.993a1.26 1.26 0 0 0 .993 1.479zm14 .892h7.535a1.26 1.26 0 1 0 0-2.52h-7.535a1.26 1.26 0 1 0 0 2.52zm13.813 0h7.535a1.26 1.26 0 1 0 0-2.52H354.7a1.26 1.26 0 1 0 0 2.52zm13.815 0h7.533a1.26 1.26 0 1 0 0-2.52h-7.533a1.26 1.26 0 1 0 0 2.52zm13.813 0h7.535a1.26 1.26 0 1 0 0-2.52h-7.535a1.26 1.26 0 1 0 0 2.52zm13.815 0h7.532a1.26 1.26 0 1 0 0-2.52h-7.532a1.26 1.26 0 1 0 0 2.52zm13.812 0h7.535a1.26 1.26 0 1 0 0-2.52h-7.535a1.26 1.26 0 1 0 0 2.52zm13.815 0h7.533a1.26 1.26 0 1 0 0-2.52h-7.533a1.26 1.26 0 1 0 0 2.52zm13.813 0h7.535a1.26 1.26 0 1 0 0-2.52h-7.535a1.26 1.26 0 1 0 0 2.52zm13.815 0h7.533a1.26 1.26 0 1 0 0-2.52H451.4a1.26 1.26 0 1 0 0 2.52zm13.813 0h7.535a1.26 1.26 0 1 0 0-2.52h-7.535a1.26 1.26 0 1 0 0 2.52zm13.812 0h2.05l5.58-.222a1.26 1.26 0 1 0-.202-2.512l-5.378.214h-2.05a1.26 1.26 0 1 0 0 2.52zm13.97-1.023a68.51 68.51 0 0 0 7.47-1.73c.668-.196 1.053-.895.86-1.562s-.895-1.054-1.562-.86a66.13 66.13 0 0 1-7.198 1.669 1.26 1.26 0 0 0-1.028 1.456c.12.686.774 1.144 1.46 1.026zm13.518-3.8c2.4-.945 4.715-2.02 6.965-3.214a1.26 1.26 0 0 0 .525-1.703 1.26 1.26 0 0 0-1.704-.522 67.01 67.01 0 0 1-6.711 3.095 1.26 1.26 0 0 0-.71 1.635c.255.647.988.963 1.636.7zm12.47-6.467a69.61 69.61 0 0 0 6.172-4.554c.537-.44.612-1.237.17-1.77a1.26 1.26 0 0 0-1.774-.169 68.11 68.11 0 0 1-5.948 4.387 1.26 1.26 0 0 0-.363 1.744 1.26 1.26 0 0 0 1.744.363zm10.907-8.845a69.64 69.64 0 0 0 5.131-5.698 1.26 1.26 0 0 0-.189-1.772 1.26 1.26 0 0 0-1.772.192c-1.547 1.92-3.2 3.752-4.946 5.5a1.26 1.26 0 0 0 1.776 1.787zm8.9-10.854a69.55 69.55 0 0 0 3.881-6.613 1.26 1.26 0 0 0-2.241-1.152 66.55 66.55 0 0 1-3.74 6.371 1.26 1.26 0 1 0 2.1 1.394zm6.537-12.425a68.35 68.35 0 0 0 2.462-7.262c.186-.67-.207-1.366-.877-1.553a1.26 1.26 0 0 0-1.552.877c-.663 2.4-1.457 4.725-2.37 6.998a1.26 1.26 0 0 0 .698 1.639 1.26 1.26 0 0 0 1.638-.699zm3.883-13.495a69.19 69.19 0 0 0 .938-7.61 1.26 1.26 0 0 0-1.175-1.341c-.693-.048-1.295.476-1.34 1.172-.17 2.485-.472 4.932-.902 7.333a1.26 1.26 0 0 0 1.015 1.465c.686.12 1.34-.333 1.464-1.02zm1.094-13.968v-7.535a1.26 1.26 0 1 0-2.52 0v7.535a1.26 1.26 0 0 0 2.52 0zm0-13.816v-7.535a1.26 1.26 0 0 0-2.52 0v7.535a1.26 1.26 0 0 0 2.52 0zm0-13.812v-7.535a1.26 1.26 0 0 0-2.52 0v7.535a1.26 1.26 0 0 0 2.52 0zm0-13.815V738a1.26 1.26 0 0 0-2.52 0v7.535a1.26 1.26 0 0 0 2.52 0zM550.3 731.6v-3.78a1.26 1.26 0 1 0-2.52 0v3.78a1.26 1.26 0 0 0 2.52 0zm-225.765 35.424v3.78a1.26 1.26 0 1 0 2.521 0v-3.78a1.26 1.26 0 1 0-2.521 0z"/><path d="M324.535 776.897v7.324a1.26 1.26 0 1 0 2.521 0v-7.324a1.26 1.26 0 1 0-2.521 0zm0 13.427v7.324a1.26 1.26 0 1 0 2.521 0v-7.324a1.26 1.26 0 1 0-2.521 0zm0 13.427v7.33c.003.696.573 1.255 1.268 1.253a1.26 1.26 0 0 0 1.253-1.268v-7.316a1.26 1.26 0 1 0-2.521 0zm.447 13.58c.347 2.515.897 4.964 1.625 7.338a1.26 1.26 0 1 0 2.409-.743 44.05 44.05 0 0 1-1.537-6.943 1.261 1.261 0 1 0-2.497.348zm3.868 13.192a47.11 47.11 0 0 0 3.689 6.55c.4.577 1.175.73 1.752.34a1.26 1.26 0 0 0 .34-1.75c-1.323-1.96-2.492-4.032-3.493-6.197-.292-.632-1.04-.907-1.673-.617a1.26 1.26 0 0 0-.615 1.673zm7.53 11.502c1.666 1.875 3.478 3.616 5.418 5.206a1.261 1.261 0 1 0 1.598-1.95 44.59 44.59 0 0 1-5.131-4.929 1.26 1.26 0 1 0-1.885 1.673zm10.52 8.843c2.122 1.308 4.357 2.454 6.688 3.42a1.26 1.26 0 1 0 .963-2.329 44.29 44.29 0 0 1-6.328-3.236 1.26 1.26 0 0 0-1.734.409c-.365.592-.182 1.37.4 1.736zm12.625 5.423a46.74 46.74 0 0 0 7.397 1.328c.693.068 1.3-.438 1.376-1.13a1.26 1.26 0 0 0-1.129-1.376 44.62 44.62 0 0 1-7.001-1.258 1.26 1.26 0 0 0-.643 2.437zm13.614 1.555h7.323a1.26 1.26 0 1 0 0-2.52h-7.323a1.26 1.26 0 1 0 0 2.52zm13.427 0h7.326a1.26 1.26 0 1 0 0-2.52h-7.326a1.26 1.26 0 1 0 0 2.52zm13.427 0h7.326a1.26 1.26 0 1 0 0-2.52h-7.326a1.26 1.26 0 1 0 0 2.52zm13.43 0h7.324a1.26 1.26 0 1 0 0-2.52h-7.324a1.26 1.26 0 1 0 0 2.52zm13.473-.001h3.78a1.26 1.26 0 1 0 0-2.52h-3.78a1.26 1.26 0 1 0 0 2.52z"/><path d="M358.776 767.014v3.78a1.26 1.26 0 1 0 2.52 0v-3.78a1.26 1.26 0 0 0-2.52 0zm0 10.046v7.525a1.26 1.26 0 1 0 2.52 0v-7.525a1.26 1.26 0 0 0-2.52 0zm0 13.793v7.525a1.26 1.26 0 0 0 2.52 0v-7.525a1.26 1.26 0 0 0-2.52 0zm0 13.792v6.172l.02 1.388a1.261 1.261 0 1 0 2.52-.073l-.02-1.315v-6.172a1.26 1.26 0 0 0-2.52 0zm.642 13.964a46.63 46.63 0 0 0 1.896 7.484 1.26 1.26 0 1 0 2.384-.818 44.07 44.07 0 0 1-1.792-7.081c-.116-.685-.766-1.15-1.452-1.036a1.26 1.26 0 0 0-1.036 1.452zm4.4 13.417a47.21 47.21 0 0 0 4.042 6.58 1.26 1.26 0 0 0 2.031-1.492c-1.436-1.96-2.72-4.042-3.826-6.227a1.26 1.26 0 0 0-1.693-.555 1.26 1.26 0 0 0-.554 1.694zM372 843.522a47.04 47.04 0 0 0 5.804 5.088 1.26 1.26 0 0 0 1.762-.259 1.26 1.26 0 0 0-.262-1.764c-1.96-1.454-3.798-3.067-5.494-4.82a1.26 1.26 0 1 0-1.81 1.754zm11.22 8.56a46.62 46.62 0 0 0 7.048 3.14 1.26 1.26 0 0 0 .832-2.379 44.2 44.2 0 0 1-6.671-2.972 1.26 1.26 0 0 0-1.209 2.211zm13.255 4.838a46.72 46.72 0 0 0 7.667.895 1.26 1.26 0 0 0 1.302-1.215 1.26 1.26 0 0 0-1.217-1.303 44.5 44.5 0 0 1-7.255-.847 1.26 1.26 0 0 0-1.484.988 1.26 1.26 0 0 0 .987 1.482zm13.98.925h7.523a1.26 1.26 0 1 0 0-2.52h-7.523a1.26 1.26 0 1 0 0 2.52zm13.793 0h7.522a1.26 1.26 0 1 0 0-2.52h-7.522a1.26 1.26 0 1 0 0 2.52zm13.792 0h7.523a1.26 1.26 0 1 0 0-2.52h-7.523a1.26 1.26 0 1 0 0 2.52zm13.793 0h7.522a1.26 1.26 0 1 0 0-2.52h-7.522a1.26 1.26 0 1 0 0 2.52zm13.842 0h3.78a1.26 1.26 0 1 0 0-2.52h-3.78a1.26 1.26 0 1 0 0 2.52z"/></g><path d="M302.787 628.794V784.2l-25.004.037-.527-155.403 25.53-.04z" class="P"/><path d="M289.718 595.033l2.545 3.616 10.524 30.145-25.51.04 10-30.302 2.442-3.5z" class="K"/><path d="M289.718 595.033l2.545 3.616-1.34.837-1.2-.958-1.293 1.303-1.154-1.298 2.442-3.5z" class="P"/><g class="K"><path d="M277.276 628.835l3.657 2.747 2.588-2.757-6.245.01z"/><path d="M283.52 628.825l3.657 2.746 2.6-2.756-6.247.01z"/><path d="M289.768 628.815l3.657 2.746 2.59-2.757-6.248.01z"/><path d="M296.016 628.804l3.654 2.747 3.117-2.757-6.77.01z"/></g><path d="M302.787 749.204v-120.4 120.4z" class="N"/><g class="Q"><path d="M302.787 784.2l.003-11.54-.003 11.54zm.003-33.005l-.003-.003v-1.978h.003v1.98z"/><path d="M302.787 772.653l.003-21.468-.003 21.468z"/></g><path d="M302.787 628.794l-10.524-30.145-2.545-3.616-2.442 3.5-1.18 3.576 1.18-3.588 2.442-3.5 2.545 3.616 10.524 30.158z" class="N"/><path d="M294.688 784.203l-.525-153.428 1.85-1.97h.003l3.654 2.747 3.117-2.757V784.2l-8.1.013z" fill="#e1b83e"/><path d="M294.156 628.807v-.01l-8.06-26.688 1.18-3.576 2.442-3.5 2.545 3.616 10.524 30.145-8.63.013zm-4.438-33.774l-2.442 3.5 1.154 1.298 1.293-1.303 1.2.958 1.34-.837-2.545-3.616z" class="L"/><path d="M288.43 599.83l-1.154-1.298 2.442-3.5 2.545 3.616-1.34.837-1.2-.958-1.293 1.303z" fill="#e1b83e"/><g class="L"><path d="M294.163 630.775l-.007-1.968 1.857-.003-1.85 1.97z"/><path d="M299.67 631.55l-3.654-2.747 6.77-.01-3.117 2.757z"/></g><path d="M277.78 782.53h25.012v4.597H277.78z" class="R"/><path d="M337.834 628.794V784.2l-25.002.037-.53-155.403 25.53-.04z" class="S"/><path d="M324.765 595.033l2.545 3.616 10.524 30.145-25.51.04 10-30.302 2.442-3.5z" class="K"/><path d="M324.765 595.033l2.545 3.616-1.34.837-1.2-.958-1.293 1.303-1.154-1.298 2.442-3.5z" class="S"/><g class="K"><path d="M312.323 628.835l3.657 2.747 2.588-2.757-6.245.01z"/><path d="M318.568 628.825l3.657 2.746 2.6-2.756-6.247.01z"/><path d="M324.815 628.815l3.657 2.746 2.588-2.757-6.245.01z"/><path d="M331.06 628.804l3.657 2.747 3.117-2.757-6.774.01z"/></g><path d="M337.834 744.726V628.794v115.932z" class="N"/><path d="M337.834 744.726h.003l-.003 39.465z" class="Q"/><path d="M337.834 628.794L327.3 598.65l-2.545-3.616-2.442 3.5-1.094 3.314 1.094-3.326 2.442-3.5 2.545 3.616 10.524 30.158z" class="N"/><path d="M329.732 784.203l-.522-153.428 1.852-1.97 3.655 2.747 3.117-2.757V784.2l-8.102.013z" class="W"/><path d="M329.203 628.807v-.01l-8.065-26.675.09-.275 1.094-3.314 2.442-3.5 2.545 3.616 10.524 30.145-8.63.013zm-4.438-33.774l-2.442 3.5 1.154 1.298 1.293-1.303 1.2.958 1.34-.837-2.545-3.616z" class="L"/><path d="M323.477 599.83l-1.154-1.298 2.442-3.5 2.545 3.616-1.34.837-1.2-.958-1.293 1.303z" class="W"/><g class="L"><path d="M329.2 630.775l-.007-1.968 1.857-.003-1.85 1.97z"/><path d="M334.717 631.55l-3.657-2.747 6.774-.01-3.117 2.757z"/></g><path d="M312.827 782.53h25.01v4.597h-25.01z" class="R"/><path d="M372.878 628.794V784.2l-25 .037-.532-155.403 25.53-.04z" class="X"/><path d="M359.81 595.033l2.548 3.616 10.52 30.145-25.508.04 10-30.302 2.44-3.5z" class="K"/><path d="M359.81 595.033l2.548 3.616-1.34.837-1.202-.958-1.293 1.303-1.15-1.298 2.44-3.5z" class="X"/><g class="K"><path d="M347.367 628.835l3.657 2.747 2.59-2.757-6.248.01z"/><path d="M353.615 628.825l3.656 2.746 2.59-2.756-6.247.01z"/><path d="M359.86 628.815l3.656 2.746 2.59-2.757-6.247.01z"/><path d="M366.107 628.804l3.656 2.747 3.115-2.757-6.77.01z"/></g><path d="M372.878 741.352l.003-98.428-.003 98.428z" class="N"/><path d="M372.878 741.352h.005l-.005 42.84z" class="Q"/><path d="M372.88 642.924h-.003v-14.13l.003 14.13z" class="T"/><path d="M364.78 784.203l-.524-153.428 1.852-1.97 3.656 2.747 3.115-2.757V784.2l-8.1.013z" fill="#e15341"/><path d="M372.878 628.794l-10.073-28.86h.006l10.067 28.86zm-16.7-26.685l.637-1.93-.637 1.93zm1.817-4.5l1.804-2.588 1.72 2.445h-.007l-1.714-2.432-1.794 2.575h-.01z" class="T"/><path d="M356.825 600.18l.545-1.658.635-.913h.01l-.645.925-.545 1.646zm5.98-.245l-.448-1.285-.834-1.184h.007l.827 1.17.454 1.298h-.006z" fill="#15918d"/><path d="M364.25 628.807v-.01l-8.06-26.688 1.182-3.576 2.44-3.5 2.548 3.616 10.52 30.145-8.63.013zm-4.44-33.774l-2.44 3.5 1.15 1.298 1.293-1.303 1.202.958 1.34-.837-2.548-3.616z" class="L"/><path d="M358.52 599.83l-1.15-1.298 2.44-3.5 2.548 3.616-1.34.837-1.202-.958-1.293 1.303z" fill="#e15341"/><g class="L"><path d="M364.255 630.775l-.006-1.968 1.858-.003-1.852 1.97z"/><path d="M369.763 631.55l-3.656-2.747 6.77-.01-3.115 2.757z"/></g><path d="M347.874 782.53h25.01v4.597h-25.01z" class="R"/><path d="M407.925 628.794V784.2l-25 .037-.532-155.403 25.53-.04z" class="Y"/><path d="M394.856 595.033l2.548 3.616 10.52 30.145-25.51.04 10.002-30.302 2.44-3.5z" class="K"/><path d="M394.856 595.033l2.548 3.616-1.343.837-1.2-.958-1.293 1.303-1.152-1.298 2.44-3.5z" class="Y"/><g class="K"><path d="M382.414 628.835l3.657 2.747 2.59-2.757-6.248.01z"/><path d="M388.662 628.825l3.656 2.746 2.588-2.756-6.244.01z"/><path d="M394.906 628.815l3.657 2.746 2.59-2.757-6.248.01z"/><path d="M401.154 628.804l3.656 2.747 3.115-2.757-6.77.01z"/></g><path d="M407.925 657.208h.002l-.002 81.588z" class="N"/><path d="M407.925 784.2l.003-45.394-.003 45.394z" class="Q"/><path d="M407.928 657.208h-.003v-28.414l.003 28.414z" class="T"/><path d="M399.826 784.203l-.525-153.428 1.853-1.97 3.656 2.747 3.115-2.757V784.2l-8.1.013z" fill="#1975a4"/><path d="M407.925 628.794l-10.52-30.145-.086-.123h.008l.078.1 10.52 30.158zm-16.7-26.685l1.113-3.38h.003l-1.116 3.38zm2.842-5.972l.78-1.117.743 1.054h-.007l-.736-1.04-.77 1.104h-.01z" class="T"/><path d="M392.348 598.73l.068-.21 1.66-2.384h.01l-1.67 2.396-.065.197h-.003zm4.97-.204l-1.726-2.452h.007l1.727 2.452h-.008z" fill="#15918d"/><path d="M399.294 628.807v-.01l-8.06-26.688 1.18-3.576 2.44-3.5.736 1.04 1.726 2.452.086.123 10.52 30.145-8.63.013zm-4.438-33.774l-2.44 3.5 1.152 1.298 1.293-1.303 1.2.958 1.343-.837-2.548-3.616z" class="L"/><path d="M393.568 599.83l-1.152-1.298 2.44-3.5 2.548 3.616-1.343.837-1.2-.958-1.293 1.303z" fill="#1975a4"/><g class="L"><path d="M399.3 630.775l-.007-1.968 1.86-.003-1.853 1.97z"/><path d="M404.8 631.55l-3.656-2.747 6.77-.01-3.115 2.757z"/></g><path d="M382.918 782.53h25.012v4.597h-25.012z" class="R"/><path d="M983.08 837.805h7.56a1.26 1.26 0 1 0 0-2.52h-7.56a1.26 1.26 0 1 0 0 2.52zm13.86 0h7.56a1.26 1.26 0 1 0 0-2.52h-7.56a1.26 1.26 0 0 0 0 2.52zm13.86 0h7.56a1.26 1.26 0 1 0 0-2.52h-7.56a1.26 1.26 0 1 0 0 2.52zm13.86 0h7.56a1.26 1.26 0 1 0 0-2.52h-7.56a1.26 1.26 0 0 0 0 2.52zm13.86 0h7.56a1.26 1.26 0 1 0 0-2.52h-7.56a1.26 1.26 0 1 0 0 2.52zm13.86 0h7.56a1.26 1.26 0 1 0 0-2.52h-7.56a1.26 1.26 0 1 0 0 2.52zm13.86 0h7.56a1.26 1.26 0 1 0 0-2.52h-7.56a1.26 1.26 0 1 0 0 2.52zm13.86 0h7.56a1.26 1.26 0 1 0 0-2.52h-7.56a1.26 1.26 0 1 0 0 2.52zm13.86 0h7.56a1.26 1.26 0 1 0 0-2.52h-7.56a1.26 1.26 0 1 0 0 2.52zm13.86 0h7.56a1.26 1.26 0 1 0 0-2.52h-7.56a1.26 1.26 0 1 0 0 2.52zm13.86 0h7.56a1.26 1.26 0 1 0 0-2.52h-7.56a1.26 1.26 0 1 0 0 2.52zm13.86 0h5.655c.587 0 1.167.04 1.734.114a1.26 1.26 0 0 0 1.413-1.084 1.26 1.26 0 0 0-1.083-1.414 16.02 16.02 0 0 0-2.064-.136h-5.655a1.26 1.26 0 1 0 0 2.52zm12.74 2.072a13.23 13.23 0 0 1 4.599 5.04 1.26 1.26 0 0 0 1.699.537 1.26 1.26 0 0 0 .537-1.696 15.72 15.72 0 0 0-5.474-6.003 1.26 1.26 0 0 0-1.361 2.122zm6.053 10.55l.013.532c-.002 2.215-.547 4.3-1.5 6.12a1.26 1.26 0 1 0 2.23 1.174c1.15-2.177 1.8-4.664 1.8-7.295l-.012-.63a1.261 1.261 0 1 0-2.521.098zm-5.183 11.005c-1.8 1.368-3.957 2.283-6.3 2.578a1.26 1.26 0 0 0-1.093 1.406 1.26 1.26 0 0 0 1.406 1.094c2.805-.35 5.383-1.44 7.525-3.072.552-.42.66-1.212.24-1.766a1.26 1.26 0 0 0-1.766-.24zm-12.45 2.68h-7.56a1.26 1.26 0 1 0 0 2.52h7.56a1.26 1.26 0 1 0 0-2.52zm-13.86 0h-7.56a1.26 1.26 0 1 0 0 2.52h7.56a1.26 1.26 0 1 0 0-2.52zm-13.86 0h-7.56a1.26 1.26 0 1 0 0 2.52h7.56a1.26 1.26 0 1 0 0-2.52zm-13.86 0h-7.56a1.26 1.26 0 1 0 0 2.52h7.56a1.26 1.26 0 1 0 0-2.52zm-13.86 0h-7.56a1.26 1.26 0 1 0 0 2.52h7.56a1.26 1.26 0 1 0 0-2.52zm-13.86 0h-7.56a1.26 1.26 0 1 0 0 2.52h7.56a1.26 1.26 0 1 0 0-2.52zm-13.86 0h-7.56a1.26 1.26 0 1 0 0 2.52h7.56a1.26 1.26 0 1 0 0-2.52zm-13.86 0h-7.56a1.26 1.26 0 1 0 0 2.52h7.56a1.26 1.26 0 1 0 0-2.52zm-13.86 0h-7.56a1.26 1.26 0 1 0 0 2.52h7.56a1.26 1.26 0 1 0 0-2.52zm-13.86 0h-7.56a1.26 1.26 0 1 0 0 2.52h7.56a1.26 1.26 0 1 0 0-2.52zm-13.86 0h-7.56a1.26 1.26 0 0 0 0 2.52h7.56a1.26 1.26 0 1 0 0-2.52zm-13.86 0h-7.56a1.26 1.26 0 1 0 0 2.52h7.56a1.26 1.26 0 1 0 0-2.52zm-13.86 0h-7.56a1.26 1.26 0 0 0 0 2.52h7.56a1.26 1.26 0 1 0 0-2.52zm-13.86 0h-7.56a1.26 1.26 0 1 0 0 2.52h7.56a1.26 1.26 0 1 0 0-2.52zm-13.86 0h-7.56a1.26 1.26 0 1 0 0 2.52h7.56a1.26 1.26 0 1 0 0-2.52zm-13.86 0h-7.56a1.26 1.26 0 1 0 0 2.52h7.56a1.26 1.26 0 1 0 0-2.52zm-13.86 0h-7.56a1.26 1.26 0 1 0 0 2.52h7.56a1.26 1.26 0 1 0 0-2.52zm-13.86 0h-7.56a1.26 1.26 0 1 0 0 2.52h7.56a1.26 1.26 0 1 0 0-2.52zm-13.86 0h-7.56a1.26 1.26 0 1 0 0 2.52h7.56a1.26 1.26 0 1 0 0-2.52zm-13.86 0h-7.56a1.26 1.26 0 1 0 0 2.52h7.56a1.26 1.26 0 1 0 0-2.52zm-13.86 0h-7.56a1.26 1.26 0 1 0 0 2.52h7.56a1.26 1.26 0 1 0 0-2.52zm-13.86 0h-7.56a1.26 1.26 0 1 0 0 2.52h7.56a1.26 1.26 0 1 0 0-2.52zm-13.86 0h-7.56a1.26 1.26 0 1 0 0 2.52h7.56a1.26 1.26 0 1 0 0-2.52zm-13.86 0h-7.56a1.26 1.26 0 1 0 0 2.52h7.56a1.26 1.26 0 1 0 0-2.52zm-13.86 0h-7.56a1.26 1.26 0 1 0 0 2.52h7.56a1.26 1.26 0 1 0 0-2.52zm-13.86 0h-7.56a1.26 1.26 0 1 0 0 2.52h7.56a1.26 1.26 0 1 0 0-2.52zm-13.86 0h-7.56a1.26 1.26 0 1 0 0 2.52h7.56a1.26 1.26 0 1 0 0-2.52zm-13.86 0h-7.56a1.26 1.26 0 1 0 0 2.52h7.56a1.26 1.26 0 1 0 0-2.52zm-13.86 0h-7.56a1.26 1.26 0 1 0 0 2.52h7.56a1.26 1.26 0 1 0 0-2.52zm-13.86 0h-7.56a1.26 1.26 0 1 0 0 2.52h7.56a1.26 1.26 0 1 0 0-2.52zm-13.86 0h-7.56a1.26 1.26 0 1 0 0 2.52h7.56a1.26 1.26 0 1 0 0-2.52zm-13.86 0h-7.56a1.26 1.26 0 1 0 0 2.52h7.56a1.26 1.26 0 1 0 0-2.52zm-13.86 0h-7.56a1.26 1.26 0 1 0 0 2.52h7.56a1.26 1.26 0 1 0 0-2.52zm-13.86 0h-7.56a1.26 1.26 0 1 0 0 2.52h7.56a1.26 1.26 0 1 0 0-2.52zm-13.86 0h-7.56a1.26 1.26 0 1 0 0 2.52h7.56a1.26 1.26 0 1 0 0-2.52zm-13.86 0h-7.56a1.26 1.26 0 1 0 0 2.52h7.56a1.26 1.26 0 1 0 0-2.52zm-13.694-.328a46.13 46.13 0 0 1-7.203-1.454c-.668-.194-1.366.194-1.557.862a1.26 1.26 0 0 0 .862 1.56 48.53 48.53 0 0 0 7.598 1.535c.7.08 1.318-.4 1.4-1.104a1.26 1.26 0 0 0-1.101-1.399zm-12.97-3.535a46.26 46.26 0 0 1-6.471-3.486 1.261 1.261 0 0 0-1.369 2.117 48.44 48.44 0 0 0 6.83 3.675 1.26 1.26 0 0 0 1.658-.648c.28-.638-.01-1.38-.648-1.658zm-11.388-7.145a46.51 46.51 0 0 1-5.2-5.2 1.26 1.26 0 0 0-1.774-.141 1.26 1.26 0 0 0-.141 1.777 48.05 48.05 0 0 0 5.478 5.48 1.26 1.26 0 1 0 1.636-1.918zm-8.853-10.113c-1.323-2.05-2.492-4.213-3.483-6.47-.277-.638-1.02-.927-1.656-.648a1.26 1.26 0 0 0-.647 1.661 48.12 48.12 0 0 0 3.669 6.822 1.26 1.26 0 0 0 1.741.375 1.26 1.26 0 0 0 .376-1.741zm-5.56-12.23a45.53 45.53 0 0 1-1.454-7.202c-.08-.693-.7-1.185-1.4-1.102a1.26 1.26 0 0 0-1.104 1.4c.3 2.603.83 5.14 1.535 7.6a1.26 1.26 0 1 0 2.422-.696zm-1.782-13.34v-7.56a1.26 1.26 0 0 0-2.52 0v7.56a1.26 1.26 0 1 0 2.52 0zm0-13.86V796a1.26 1.26 0 0 0-2.52 0v7.56a1.26 1.26 0 1 0 2.52 0zm0-13.86v-7.56a1.26 1.26 0 0 0-2.52 0v7.56a1.26 1.26 0 0 0 2.52 0zm0-13.86v-7.56a1.26 1.26 0 0 0-2.52 0v7.56a1.26 1.26 0 0 0 2.52 0zm0-13.86v-.06a1.26 1.26 0 0 0-2.52 0v.06a1.26 1.26 0 1 0 2.52 0zm29.484-20.856v7.56a1.26 1.26 0 1 0 2.521 0v-7.56c0-.698-.562-1.26-1.26-1.26a1.26 1.26 0 0 0-1.261 1.26zm0 13.86v7.56a1.26 1.26 0 1 0 2.521 0v-7.56c0-.698-.562-1.26-1.26-1.26a1.26 1.26 0 0 0-1.261 1.26zm0 13.86v7.56a1.26 1.26 0 1 0 2.521 0v-7.56c0-.698-.562-1.26-1.26-1.26a1.26 1.26 0 0 0-1.261 1.26zm.076 13.946a29.8 29.8 0 0 0 1.578 7.706c.226.658.945 1.006 1.602.776a1.26 1.26 0 0 0 .777-1.602c-.777-2.236-1.27-4.6-1.442-7.057a1.261 1.261 0 1 0-2.515.177zm4.4 13.633c1.4 2.243 3.07 4.3 4.982 6.086a1.26 1.26 0 0 0 1.782-.055c.476-.507.45-1.305-.055-1.782a27.54 27.54 0 0 1-4.567-5.577 1.26 1.26 0 0 0-1.734-.408c-.592.368-.773 1.144-.408 1.736zm10.227 10.03a29.89 29.89 0 0 0 7.237 3.088 1.26 1.26 0 1 0 .673-2.43 27.32 27.32 0 0 1-6.625-2.825 1.26 1.26 0 0 0-1.726.441 1.26 1.26 0 0 0 .441 1.726zm13.717 4.133l1.544.04h6.08a1.26 1.26 0 1 0 0-2.52h-6.08a29.16 29.16 0 0 1-1.42-.036 1.26 1.26 0 0 0-1.32 1.192 1.26 1.26 0 0 0 1.195 1.323zm13.923.04h7.56a1.26 1.26 0 1 0 0-2.52h-7.56a1.26 1.26 0 1 0 0 2.52zm13.86 0h7.56a1.26 1.26 0 1 0 0-2.52h-7.56a1.26 1.26 0 1 0 0 2.52zm13.86 0h7.56a1.26 1.26 0 1 0 0-2.52h-7.56a1.26 1.26 0 1 0 0 2.52zm13.86 0h7.56a1.26 1.26 0 1 0 0-2.52h-7.56a1.26 1.26 0 1 0 0 2.52zm13.86 0h7.56a1.26 1.26 0 1 0 0-2.52h-7.56a1.26 1.26 0 1 0 0 2.52zm13.86 0h7.56a1.26 1.26 0 1 0 0-2.52h-7.56a1.26 1.26 0 1 0 0 2.52zm13.86 0h7.56a1.26 1.26 0 1 0 0-2.52h-7.56a1.26 1.26 0 1 0 0 2.52zm13.86 0h7.56a1.26 1.26 0 1 0 0-2.52h-7.56a1.26 1.26 0 1 0 0 2.52zm13.86 0h7.56a1.26 1.26 0 1 0 0-2.52h-7.56a1.26 1.26 0 1 0 0 2.52zm13.86 0h7.56a1.26 1.26 0 1 0 0-2.52h-7.56a1.26 1.26 0 1 0 0 2.52zm13.86 0h7.56a1.26 1.26 0 1 0 0-2.52h-7.56a1.26 1.26 0 1 0 0 2.52zm13.86 0h7.56a1.26 1.26 0 1 0 0-2.52h-7.56a1.26 1.26 0 1 0 0 2.52z" fill="#64bbcf"/><path d="M757.3 236.893C716.225 186.058 655.176 150 588.555 148.84c-38.537-.673-79.143 4.433-113.553 22.794-30.027 16.025-56.573 38.827-77.926 65.26-36.788 45.54-57.982 104.942-51.614 163.135 5.318 48.593 29.334 93.155 61.064 129.634 30.942 35.576 76.052 64.935 83.78 115.185 2.207 14.347-3.082 34.185 7.862 45.662 13.03 13.66 34.183 8.9 50.85 8.767l59.5-.37c2.825-.018 5.988.128 9.327.27 13.452.58 29.752 1.16 38.35-8.666 10.945-11.477 5.658-31.312 7.863-45.662 5.824-37.856 35.34-68.523 62.51-93.187 31.186-28.306 55.9-60.848 69.826-101.03 25.778-74.393 10.02-152.92-39.106-213.736z" class="P"/><path d="M564.8 742.654c-.18-24.563-1.508-49.12-2.405-73.667-1.48-40.5-3.384-81.11-7.033-121.49-2.135-23.6-5.323-46.808-13.198-69.3-5.484-15.662-14.87-36.077-32.398-41.155-12.55-3.637-26.615 4.324-29.236 17.35-3.752 18.638 14.035 35.737 29.914 41.727 18.333 6.92 44.638 3.48 60.79-7.494 17.706-12.03 27.777-33.074 30.894-53.792 2.394-15.896 2.515-34.056-14.54-41.3-14.916-6.333-27.16 5.486-28.668 20.143-1.578 15.325 2.73 32 8.686 45.977 5.86 13.762 15.74 29.04 31.328 32.665 22.116 5.15 46.944-7.61 61.96-23.064 10.902-11.22 29.046-35.468 14.448-50.565-6.694-6.92-17.608-7.538-26.03-3.82-10.975 4.84-18.767 15.58-24.995 25.415-14.162 22.38-20.69 48.68-22.907 74.842-2.573 30.395-2.98 61.122-3.99 91.605l-2.445 89-.65 45.67c-.03 2.52 3.772 2.493 3.898 0l5.582-153.874c.948-25.455 1.134-51.236 3.776-76.58 2.507-24.08 9.115-48.12 22.345-68.6 6.066-9.388 14.624-21.6 26.486-23.694 12.68-2.25 20.37 7.888 17.417 19.656-4.718 18.805-23.294 35.745-40.367 43.4-10.035 4.5-23.205 7.843-34.107 4.824-6.54-1.815-11.913-6.288-16.177-11.43-9.596-11.564-14.813-26.917-17.44-41.53-1.94-10.786-4.3-29.608 8.31-35.304 6.65-3.004 14.632.948 19.105 5.986 5.33 6.002 4.748 14.772 4.282 22.312-1.197 19.455-8.927 39.8-23.61 53.036-14.57 13.14-38.86 17.345-57.634 12.577-15.025-3.818-36.322-21.59-29.606-39.326 4.92-12.988 20.28-13.726 29.97-6.23 16.587 12.837 22.75 37.433 27.245 56.772 4.065 17.497 5.546 35.415 7.028 53.277 5.02 60.57 6.9 121.315 11.094 181.925l.277 4.065c.11 1.65 2.61 1.69 2.6 0z" class="B"/><path d="M508.638 698.533h134.42V711.8h-134.42z" class="G"/><path d="M650.82 757.677c-2.33-2.793-2.218-7.344.24-9.972l.834-.9c2.417-2.583 2.57-7.04.34-9.85l-1.358-1.71c-2.33-2.935-2.044-7.628.617-10.128 2.61-2.454 2.94-7.03.726-9.984l-3.598-4.8c-1.313-1.75-3.372-2.78-5.562-2.78H509.482a6.95 6.95 0 0 0-5.559 2.78l-3.6 4.8c-2.216 2.953-1.883 7.53.728 9.984 2.66 2.5 2.946 7.193.615 10.128l-1.356 1.71c-2.233 2.8-2.08 7.268.338 9.85l.834.9c2.46 2.628 2.568 7.18.24 9.972l-1.06 1.275c-2.38 2.853-2.205 7.527.38 10.115l.554.557c2.85 2.853 6.452 4.416 10.17 4.416h129.013c3.72 0 7.318-1.563 10.17-4.416l.557-.557c2.585-2.588 2.76-7.262.38-10.115l-1.063-1.275z" class="J"/><path d="M581.82 726.8h62.254a1.26 1.26 0 1 0 0-2.52H581.82a1.26 1.26 0 1 0 0 2.52zm-62.25 0h34.5a1.26 1.26 0 1 0 0-2.52h-34.5a1.26 1.26 0 0 0 0 2.52zm-9.022 15.252h90.222a1.26 1.26 0 1 0 0-2.52h-90.222a1.26 1.26 0 1 0 0 2.52zm107.136 0H644.3a1.26 1.26 0 1 0 0-2.52h-26.615a1.26 1.26 0 1 0 0 2.52zM519.57 757.3h48.267a1.26 1.26 0 1 0 0-2.52H519.57a1.26 1.26 0 0 0 0 2.52zm79.846 0h19.397a1.26 1.26 0 1 0 0-2.52h-19.397a1.26 1.26 0 0 0-1.26 1.26c0 .696.56 1.26 1.26 1.26zm-36.7-30.5h7a1.26 1.26 0 1 0 0-2.52h-7a1.26 1.26 0 1 0 0 2.52z" class="G"/><path d="M640.15 698.533h-.003c6.318-1.107 12.026-3.425 16.05-8.024 6.585-6.903 7.294-16.832 7.296-26.774-.002 9.942-.7 19.87-7.296 26.774-4.024 4.6-9.732 6.917-16.047 8.024zm23.3-42.917v-.003.003zM794.8 455.072l1.595-4.443c4.45-12.845 7.664-25.808 9.68-38.8-2.016 12.98-5.23 25.944-9.68 38.8l-1.595 4.443z" class="Z"/><path d="M806.076 411.84l.36-2.412-.36 2.412z" fill="#ebe7d1"/><path d="M808.264 365.617h-.003c-2.737-45.528-19.876-89.51-49.54-126.937 29.664 37.428 46.803 81.41 49.543 126.937z" class="Z"/><path d="M808.58 373.043l-.32-7.426h.003l.317 7.426z" fill="#ebe7d1"/><path d="M640.146 698.533h-40.05l3.71-111.018.608-18.8c4.065-2.678 8.533-5.022 13.33-7.1 94.7-41 140.482-107.87 143.418-201.642a195.35 195.35 0 0 0 .071-9.241l28.696 32.46-3.886 5.1c-.3.38 2.328 2.614 2.55 2.825 5.335 5.068 11.75 12.39 17.842 18.32l-.36 2.412c-2.016 12.98-5.23 25.944-9.68 38.79l-1.595 4.443c-14.173 38.15-38.202 69.333-68.23 96.588-26.615 24.157-55.477 54.076-62.123 90.866l-.388 2.32c-.514 3.35-.62 6.996-.62 10.766v.003l.053 8.12c-.002 9.942-.71 19.87-7.296 26.774-4.024 4.6-9.732 6.917-16.05 8.024zm-4.937-143.045l-3.8 2.195c-.882.51-1.175 1.625-.665 2.507l5.244 9.108a1.84 1.84 0 0 0 1.593.927 1.83 1.83 0 0 0 .912-.247l66.117-38.09c.874-.504 1.174-1.625.668-2.507l-5.247-9.108c-.343-.594-.963-.924-1.598-.924-.307 0-.62.078-.907.24l-62.307 35.897zm-40.3 143.045h-31.327l-.597-14.554c1.772-.542 3.536-1.124 5.287-1.746 2.823-1.006 5.706-2.178 7.767-4.352 2.22-2.35 3.218-5.585 3.876-8.75 4.355-20.917-2.268-42.17.645-63.15 1.994-14.352 8.4-24.863 17.863-32.822l-1.003 33.563-2.51 91.812zm-35.475 0H512.05c-5.146-1.39-9.894-3.846-13.88-8.024-1.083-1.137-1.968-2.374-2.754-3.66 9.554 1.786 19.213 2.74 28.837 2.74 11.628 0 23.203-1.394 34.442-4.385l.74 13.33zm249.146-325.5L758.3 316.16s.278-1.575.28-3.94l-.005-.48c-.063-4.264-1.073-10.723-5.932-15.1-25.022-81.464-101.444-142.218-187.06-147.457 5.572-.27 11.136-.4 16.668-.4l6.295.056c66.62 1.162 127.67 37.22 168.735 88.054l1.43 1.787c29.664 37.428 46.803 81.41 49.54 126.937a213.82 213.82 0 0 1 .32 7.426z" fill="#fec63b"/><path d="M600.097 698.533H594.9l.066-2.813 3.448-122.562c1.88-1.582 3.878-3.062 6-4.453l-.608 18.8-3.71 111.018zm-36.514 0h-4.148l-.74-13.33a123.02 123.02 0 0 0 4.292-1.225l.597 14.554z" class="Z"/><path d="M526.835 700.186c-5.078 0-10.098-.386-14.785-1.653h128.1c-3.997.7-8.24.917-12.447.917-3.352 0-6.683-.136-9.856-.275l-8.904-.272-59.922.373c-6.923.056-14.617.9-22.185.9z" fill="#119d86"/><path d="M988.747 789.984c-15.304 0-27.708-4.465-27.708-9.972s12.404-9.974 27.708-9.974 27.708 4.465 27.708 9.974-12.406 9.972-27.708 9.972zm139.66-3.072s-20.7-14.687-37.434-17.073c-14.31-2.042-25.954-.73-36.007.582-13.05 1.703-23.416 3.404-33.45-2.228-7.364-4.133 10.902-6.945 12.83-11.56.275-.66.106-7.048.106-7.048s-3.853 2.054-8.68.312c-33.313-12.016-61.598-10.86-109.954-10.86-108.172 0-197.44 19.467-210.583 44.63h-1.67v6.71h.015c.63 28.07 95.406 50.78 212.24 50.78 112.782 0 211.44-21.655 212.58-47.935l.01-6.3z" class="J"/><path d="M988.747 784.072c-15.304 0-27.708-4.463-27.708-9.972s12.404-9.972 27.708-9.972 27.708 4.463 27.708 9.972-12.406 9.972-27.708 9.972zm139.326.113c-2.8-11.21-20.365-17.872-37.096-20.256-32.895-4.692-51.695 8.324-69.46-1.646-10.358-5.814 29.99-9.014 4.256-18.298-33.313-12.016-61.598-10.86-109.954-10.86-117.224 0-212.254 22.86-212.254 51.06s95.03 51.06 212.254 51.06 219.192-23.394 212.255-51.06z" class="a"/><path d="M820.677 789.717c-.83-1.57-2.154-2.77-3.515-3.836-3.243-2.545-6.862-4.54-10.678-5.892.905-.345 1.152-1.706.7-2.613s-1.363-1.434-2.256-1.817c-4.107-1.76-8.686-1.54-13.104-1.293-8.868.497-17.764.998-26.504 2.692-4.075.79-8.63 2.268-10.4 6.282a8.06 8.06 0 0 0-.446 5.086c-.96.64-2.167.612-3.254.955s-2.185 1.426-1.86 2.588c.126.45.44.804.758 1.127 8.175 8.283 20.113 10.208 30.922 10.254 11.642.05 23.93-1.424 35.082-5.048 1.885-.612 3.934-1.434 4.86-3.3.79-1.595.527-3.614-.308-5.184z" class="S"/><path d="M902.28 761.71c-.83-1.572-2.157-2.77-3.515-3.838-3.246-2.543-6.862-4.54-10.678-5.892.902-.342 1.152-1.706.698-2.613s-1.363-1.432-2.253-1.815c-4.107-1.76-8.69-1.54-13.104-1.292-8.868.496-17.764.998-26.504 2.69-4.075.79-8.63 2.268-10.403 6.283a8.05 8.05 0 0 0-.443 5.085c-.96.64-2.17.613-3.254.955s-2.185 1.427-1.862 2.588c.126.45.44.804.76 1.127 8.173 8.283 20.1 10.21 30.92 10.254 11.643.05 23.93-1.426 35.08-5.048 1.888-.612 3.934-1.436 4.86-3.3.792-1.595.527-3.614-.305-5.184z" class="X"/><path d="M1049.86 803.157c-.713-1.344-1.848-2.372-3.012-3.284-2.777-2.18-5.874-3.89-9.143-5.045.774-.295.986-1.462.6-2.238s-1.17-1.227-1.93-1.555c-3.518-1.507-7.44-1.318-11.222-1.106-7.593.426-15.21.854-22.694 2.303-3.487.675-7.39 1.943-8.906 5.38a6.91 6.91 0 0 0-.38 4.355c-.822.547-1.857.524-2.785.82s-1.872 1.22-1.595 2.215c.108.383.378.688.653.963 6.995 7.094 17.22 8.742 26.476 8.782 9.967.043 20.488-1.222 30.037-4.324 1.615-.524 3.366-1.227 4.16-2.825.68-1.366.45-3.095-.26-4.44z" class="Y"/><path d="M936.468 803.308c-.834-1.573-2.157-2.77-3.518-3.838-3.243-2.543-6.86-4.54-10.678-5.892.905-.343 1.152-1.706.7-2.614s-1.364-1.43-2.256-1.814c-4.105-1.762-8.686-1.542-13.104-1.293-8.868.497-17.764.998-26.5 2.692-4.075.788-8.632 2.268-10.403 6.282a8.04 8.04 0 0 0-.444 5.086c-.96.64-2.17.612-3.256.955s-2.185 1.426-1.86 2.588c.126.45.44.804.762 1.126 8.172 8.284 20.1 10.21 30.92 10.255 11.64.05 23.928-1.427 35.08-5.048 1.887-.612 3.933-1.436 4.86-3.3.79-1.596.527-3.614-.305-5.184z" class="P"/><path d="M928.794 907.025c0 4.397-30.36 7.963-67.815 7.963-37.45 0-67.808-3.566-67.808-7.963s30.36-7.966 67.808-7.966c37.456 0 67.815 3.568 67.815 7.966z" class="O"/><path d="M930.24 883.444c6.6-12.333 8.6-27.37 3.273-40.594-3.084-7.648-7.477-15.223-13.966-20.47-5.66-4.58-12.37-7.908-19.357-9.91-12.043-3.45-25.513-2.67-36.45 3.437-9.13 5.103-15.907 13.553-20.446 22.847-4.428 9.065-6.45 20.4-15.707 26.116-2.64 1.633-6.99 2.245-8.34 5.358-1.606 3.707 1.096 7.477 2.512 10.75l5.038 11.694c1.202 2.794 2.32 7.6 5.632 8.694 3.173 1.197 6.64-1.5 9.652-2.26 7.946-2.01 16.45 1.245 23.576 4.542 8.177 3.785 16.652 5.94 25.732 5.33 16.807-1.127 30.964-10.784 38.85-25.534z" fill="#b4e0df"/><path d="M821.517 885.815c.01-.005 25.717-12.035 38.083-18.69 3.27-1.76 6.812-3.594 11.44-7.563 4.468-3.84 6.373-7.3 6.396-10.3.017-2.183-1.14-3.992-2.787-4.947-.9-.542-1.893-.814-2.853-.814-2.112.007-3.952 1.24-5.232 3-1.285 1.774-2.08 4.14-2.114 6.756v.086c.012 2.092.81 4.385 1.95 6.515 1.152 2.12 2.646 4.05 4.292 5.277 2.664 1.965 5.955 2.767 9.206 2.77 3.616-.005 7.215-.985 10.032-2.64.845-.504 1.442-1.278 1.863-2.14a6.62 6.62 0 0 0 .652-2.848c.003-1.164-.335-2.407-1.224-3.377s-2.28-1.542-3.962-1.532l-.385.01c-1.238.068-2.59.585-4.096 1.373a25.33 25.33 0 0 0-6.716 5.26c-1.975 2.22-3.52 4.83-3.538 7.673 0 .794.13 1.598.41 2.382 1.414 3.914 4.468 6.973 8.052 8.808 2.12 1.073 5.103 1.77 7.88 1.78 1.13-.003 2.223-.12 3.223-.42s1.802-.736 2.39-1.363a3.24 3.24 0 0 0 .882-2.231c-.005-.925-.343-1.75-.796-2.502-.69-1.127-1.694-2.127-2.76-2.954-1.076-.82-2.2-1.456-3.26-1.76-2.494-.693-5.022-.995-7.532-.995-4.78 0-9.5 1.094-13.92 2.706-15.76 5.75-27.965 10.686-43.58 16.72l.9 2.35 43.532-16.7c4.226-1.542 8.666-2.558 13.06-2.555 2.308 0 4.604.277 6.86.905.778.2 2.184 1.033 3.24 2.046.537.504.998 1.05 1.3 1.547s.433.938.428 1.192l-.206.514c-.172.19-.557.45-1.273.668-.676.204-1.55.313-2.495.313-2.326.01-5.103-.658-6.734-1.502-3.097-1.583-5.68-4.22-6.827-7.417-.18-.5-.262-1.008-.262-1.53-.005-1.237.484-2.6 1.356-3.98 1.295-2.054 3.42-4.042 5.517-5.48 1.045-.72 2.084-1.308 2.986-1.71s1.68-.6 2.086-.62l.27-.007c1.174.01 1.744.335 2.107.718s.56.97.562 1.67a4.19 4.19 0 0 1-.406 1.754c-.25.524-.6.907-.872 1.063-2.37 1.404-5.6 2.296-8.752 2.29-2.843 0-5.6-.713-7.71-2.276-1.2-.88-2.573-2.585-3.573-4.45-1.014-1.857-1.656-3.9-1.646-5.315v-.055c.023-2.115.685-4.005 1.633-5.303.958-1.313 2.13-1.97 3.193-1.965.496.002 1.008.13 1.565.46.968.597 1.537 1.446 1.555 2.78.025 1.824-1.318 4.803-5.517 8.386-4.445 3.806-7.694 5.48-10.992 7.256-6.112 3.29-15.615 7.956-23.573 11.79l-10.18 4.858-4.206 1.984 1.07 2.28z" class="B"/><path d="M827.14 900.553l-11.212-26.484 2.613-1.11 11.215 26.487-2.616 1.106z" class="G"/><path d="M818.747 905.91a1.68 1.68 0 0 1 1.986-.787l.244.09c.71.26 1.603-.08 1.97-.756l.222-.408c.385-.706 1.333-1.04 2.05-.726.7.3 1.63-.005 2.026-.688l.645-1.11a1.49 1.49 0 0 0 .086-1.328l-11.144-26.32c-.184-.43-.557-.75-1.013-.862l-1.245-.3c-.766-.19-1.64.258-1.905.978-.273.73-1.172 1.18-1.946.965l-.448-.126a1.68 1.68 0 0 0-1.913.89l-.106.24c-.313.704-1.202 1.104-1.946.877l-.34-.1c-.76-.232-1.668.194-1.96.917l-.063.156c-.325.8-.333 1.64-.023 2.372l10.763 25.42c.3.733.918 1.313 1.716 1.635l.157.063c.725.293 1.663-.063 2.026-.768l.16-.315z" class="J"/><path d="M818.742 889.88l5.194 12.266a.63.63 0 0 0 .824.335.63.63 0 0 0 .335-.827L819.9 889.4a.63.63 0 0 0-.824-.335.63.63 0 0 0-.335.826zm-5.194-12.265l2.88 6.8c.133.32.504.472.824.335a.63.63 0 0 0 .335-.826l-2.878-6.8c-.136-.32-.507-.47-.827-.335a.63.63 0 0 0-.335.826zm-3.758-.505l7.527 17.776a.63.63 0 0 0 .824.335c.323-.136.472-.506.335-.826l-7.525-17.774a.63.63 0 0 0-.826-.336.63.63 0 0 0-.335.825zm8.94 21.1l2.22 5.245c.136.32.504.468.824.332a.63.63 0 0 0 .335-.824l-2.22-5.244a.63.63 0 0 0-.824-.335.63.63 0 0 0-.336.826zm-11.2-18.06l4.025 9.5a.63.63 0 1 0 1.162-.489l-4.027-9.5c-.137-.32-.507-.47-.827-.335a.63.63 0 0 0-.333.826zm6.66 15.73l1.618 3.823a.63.63 0 0 0 .824.335.63.63 0 0 0 .335-.827l-1.618-3.823a.63.63 0 0 0-.827-.332c-.32.133-.468.504-.332.824zm2.95-9.772l.582 1.378c.137.32.507.47.827.336s.47-.507.335-.827l-.584-1.38a.63.63 0 1 0-1.16.492z" class="G"/><path d="M933.514 842.85l-.18-.435.18.435zm-.2-.486z" fill="#b6d8d7"/><path d="M888.342 909.08c-7.936 0-15.426-2.077-22.683-5.433-5.605-2.59-12.062-5.162-18.43-5.162-1.73 0-3.45.192-5.146.62-2.477.628-5.262 2.563-7.938 2.563-.577 0-1.152-.1-1.714-.302-1.242-.41-2.175-1.34-2.92-2.492l-3.142-7.425 26.15-10.168c.72.516 1.42 1.104 2.102 1.754 10.654 10.16 21.76 15.077 33.532 15.077 5.88 0 11.925-1.227 18.162-3.64 22.27-8.616 32.827-34.555 25.216-56.117a74.36 74.36 0 0 1 1.779 3.999c.013.028.018.043.025.06l.18.435c2.092 5.192 3.052 10.663 3.05 16.14-.003 1.71-.1 3.42-.283 5.12-.1.844-.2 1.683-.337 2.52-.935 5.862-2.908 11.58-5.703 16.814-7.886 14.75-22.043 24.407-38.85 25.534-1.026.068-2.04.103-3.05.103zm-62.957-19.954l-1.812-4.28 3.158-1.492c.433.47.902.94 1.502 1.164a2.73 2.73 0 0 0 .957.156c.363 0 .734-.053 1.09-.123 4.486-.887 8.12-3.964 12.497-5.14a11.84 11.84 0 0 1 3.072-.423c1.333 0 2.586.25 3.773.708l-24.236 9.43zm-2.795-6.6l-3.765-8.894c-.045-.33-.07-.66-.07-1 0-.804.146-1.6.494-2.414a4.48 4.48 0 0 1 .491-.847c.95 4.337 2.69 8.457 5.33 11.973l-.416.196-2.064.976z" fill="#97d6d2"/><path d="M826.368 891.45l-.983-2.323 24.236-9.43c1.008.388 1.97.925 2.898 1.585l-26.15 10.168zm-2.795-6.602l-.983-2.32 2.064-.976.416-.196c.517.7 1.068 1.356 1.656 1.996l-3.153 1.497z" fill="#d5eded"/><path d="M829.5 898.875c-1.242-1.923-1.96-4.456-2.71-6.202l-5.038-11.694c-.983-2.27-2.586-4.783-2.936-7.346l10.685 25.242z" fill="#0f9d96"/><path d="M385.3 417.924c-11.06 0-20.073-8.924-20.158-20.005l-.008-2.3c-.02-31.3 4.967-56.583 12.863-77.503 7.865-20.92 18.535-37.264 28.73-50.9h.002c3.957-5.305 10.025-8.105 16.17-8.105a20.07 20.07 0 0 1 12.044 4.005c8.924 6.66 10.758 19.293 4.098 28.214-9.073 12.17-17.197 24.806-23.3 41.005-6.083 16.204-10.26 36.178-10.277 63.294l.008 2c.086 11.133-8.87 20.23-20.004 20.317h-.16zm81.17-164.4a20.07 20.07 0 0 1-12.555-4.397c-8.707-6.94-10.136-19.627-3.195-28.33 7.14-8.92 13.895-13.077 15.382-13.97a20.05 20.05 0 0 1 10.217-2.795c6.905 0 13.628 3.548 17.388 9.926 5.58 9.468 2.54 21.633-6.766 27.384a14.7 14.7 0 0 0-.86.657c-.898.734-2.334 2.052-3.836 3.937-3.982 4.992-9.85 7.6-15.776 7.6z" fill="#fcf9c8"/><g class="J"><path d="M882.73 401.926c-2.12-1.46-4.448-2.543-6.895-3.226-3.58-1-1.775-3.654-5.492-3.02-7.076 1.187-23.384 4.456-33.265 7.173l-.275.05c-4.962 1.217-6.653 0-6.653 0l-2.08 2.344.273.826c-1.495 1.185-2.793 2.986-3.057 5.736-.048.516-.565 2.517-.776 4.493-.237 1.812-.215 3.624.564 4.307l.045.045.283.096c3.225 1.366 7.978 1.222 9.155 1.27 5.176.283 17.484-1.27 28.78-2.777l18.003-2.306c1.646-.19 3.2-.894 4.352-1.975a6.75 6.75 0 0 0 2.142-3.695c.824-3.906-1.79-7.036-5.105-9.342z"/><path d="M835.947 416.326a7.75 7.75 0 0 1-1.084 2.001l-.638.708c-7.318 7.323-16.546-.005-21.89-4.304-7.626-6.134-16.64-16.877-23.742-23.624-.222-.21-2.84-2.444-2.55-2.825l6.522-8.56s17.542 15.896 27.85 19.498c4.52 1.575 8.942 3.01 12 4.894a12.67 12.67 0 0 1 1.106.728s4.637 5.295 2.425 11.484z"/></g><path d="M863.338 419.244c-11.296 1.507-23.604 3.06-28.78 2.777-1.177-.048-5.93.096-9.155-1.27l-.283-.096-.045-.045c-6.78-2.87-10.945-9.25-.564-4.307 2.6 1.248 4.705 2.117 5.86 2.377 1 .21 2.328.33 3.858.352l.585.003c9.568-.04 37.546-21.013 28.525.21z" class="G"/><path d="M909.143 459.8c-2.095 5.433-2.596 11.36-1.328 17.058 2.512 11.305-.346 12.064-.346 12.064s-15.324 9.727-28.07 13.704c-9.133 2.84-16.92 2.36-16.7-7.724l.005-.14.046-1.77c.43-22.666-4.294-23.817-5.46-49.2-1.204-26.037-.945-41.455 7.394-45.654 9.085-4.576 21.585-7.72 39.31-3.533 13.316 3.138 17.7 6.673 17.593 16.527-.036 3.273-.565 7.25-1.432 12.13-2.2 12.4-7.45 27.288-11.012 36.54z" class="J"/><path d="M909.143 459.8c-2.095 5.433-2.596 11.36-1.328 17.058 2.512 11.305-.346 12.064-.346 12.064s-15.324 9.727-28.07 13.704l-11.907-1.13-4.768-3.747-.02-2.99.046-1.77c2.72.26 8.91.577 17.983-.47 7.01-.8 13.387-2.8 17.636-4.418 3.097-1.17 4.914-4.372 4.334-7.635-.77-4.458-1.683-10.85-1.648-15.81.035-4.993 2.346-13.425 4.236-19.51 1.442-4.67 1.933-9.554 1.586-14.422-.6-8.425.015-16.44.015-16.44l9.44-5.114 5.257 1.96c-.036 3.273-.565 7.25-1.432 12.13-2.2 12.4-7.45 27.288-11.012 36.54z" class="G"/><path d="M868.804 356.277s-5.925-6.517-5.056-15.876c.507-5.464 2.2-10.784 10.383-12.76 4.493-1.09 10.877 2.293 15.443 7.386 14.25 1.192 18.89 10.993 19.458 22.136l-16.736-3.732-23.492 2.845z" class="F"/><path d="M906 363.434c-.322 12.76-11.33 20.153-11.33 20.153l.736 11.613-7.424 4.813-5.096 3.3-2.923-6.11-.4-7.485c-.1-1.744-1.348-3.193-3.065-3.56-1.902-.405-4.54-1.514-7.24-4.374l-.463-.573-.018-.01c-4.824-6.575-6.65-31.75 9.866-38.9 17.056-7.4 27.69 8.36 27.358 21.136z" class="I"/><path d="M876.984 404.025s-7.286 45.28-4.52 66.97l5.088 9.26 5.564-10.098s-5.327-37.824-2.39-65.366l-3.74-.764z" fill="#15405a"/><path d="M876.026 400.172l.073.592c.136 1.124.434 2.223.885 3.26l3.74.764 3.256-2.424-3.735-4.343-.582.147c-1.34.342-2.57 1.013-3.58 1.953l-.056.05z" fill="#0e3649"/><g class="G"><path d="M895.328 389.79s1.794.998 3.578 3.682c0 0-2.45 1.096-4.584 2.4-1.95 1.192-11.323 7.813-11.323 7.813l-2.754-5.66s9.783-6.75 15.083-8.233z"/><path d="M880.245 398.022s-3.28 1.122-4.287 3.57c0 0-1.678-3.215.466-8.933 0 0 1.797-1.7 3.18-2.31l.64 7.67z"/></g><path d="M900.264 720.813c-40.39 0-73.128-4.345-73.128-9.7s32.74-9.702 73.128-9.702c40.382 0 73.12 4.344 73.12 9.702s-32.74 9.7-73.12 9.7z" fill="#edf3f5"/><path d="M865.65 698.36s-1.298 3.326-1.137 5.514 7.137 2.354 7.946 1.217 1.217-11.19 1.217-11.19" class="I"/><path d="M874.305 707.02c0 2.284-.635 6.003-.635 6.003h-8.037l-.395-1.343s-2.606 1.343-4.652 1.343H853.8c-4.964 0-7.784-.632-7.9-1.507-.524-3.65 5.408-3.485 6.953-3.485 4.435 0 9.236-2.077 10.282-4.327.76-1.633.423-2.05 1.343-1.74 0 0 .824.176 1.376 1.186.847 1.553 2.45 2.594 4.19 2.29.995-.177 1.993-.557 2.714-1.31 0 0 1.555.613 1.555 2.893z" class="U"/><path d="M943.834 690.78s1.487 5.884 2.447 7.858 7.5-.46 7.833-1.815-3.015-10.844-3.015-10.844" class="I"/><path d="M956.54 697.935c.847 2.122 2.1 6.23 2.1 6.23l-6.09 3.634-1.195-.902s-1.343 2.18-3.206 3.347c-1.383.87-4.44 2.137-6.03 2.5-5.564 1.27-9.864.656-10.305-.108-1.84-3.198 5.537-4.957 6.97-5.53 4.12-1.64 6.008-5.635 6.144-8.112.1-1.8-.363-2.06.602-2.114 0 0 .834-.142 1.72.594 1.36 1.127 3.236 1.5 4.74.57.86-.53 1.646-1.253 2.036-2.223 0 0 1.67-.005 2.515 2.114z" class="U"/><g class="F"><path d="M915.597 534.044s10.92-26.148-8.128-45.132c0 0-16.252 7.275-29.266 8.152-10.25.696-15.453-.368-15.453-.368s-2.306 19.03-1.04 48.867l53.888-11.52zM874.633 700.88c-.328.026-.658.026-.963.026-6.78.07-10.637-.73-10.637-.73v-1.953c.375-29.934-3.25-78.856-3.954-94.32-.048-1.08-.023-2.07.093-2.963 1.177-11.32 12.872-9.836 17.792.564 1.15 2.425 2.07 5.106 2.777 8.002.87 3.482 1.46 7.27 1.812 11.295 2.283 25.838-4.92 60.784-6.92 80.08z"/><path d="M894.92 546.108l-.19.965c-2.588 13.626-11 50.455-14.99 62.4v.023c-.6 1.67-2.588 3.082-5.154 3.765-5.884 1.6-14.662-.588-15.415-12.33-.093-1.295-.07-2.707.048-4.236.776-9.53 2.87-62.196 3.293-67.28.4-5.083 1.318-12.497 4.002-13.437 13.4-4.637 31.9 11.06 28.404 30.12z"/></g><path d="M882.422 600.322c4.297-15.93 10.212-42.206 12.308-53.25l-2.847-12.636-13.697-16.426-7.646-1.058s1.245 24.825 10.19 44.545c0 0-.094 28.006-3.765 40.006l-3.294 9.224s.375.894.917 2.543c1.835 5.53 5.6 19.533 3.483 35.886-2.73 21.18-4.4 51.75-4.4 51.75.305 0 .635 0 .963-.026 1.932-18.638 8.69-51.858 7.094-77.39.073-.388.032-1.227-.174-2.69-1.43-10.118.87-20.48.87-20.48z" fill="#082f44"/><g class="F"><path d="M921.594 600.74c-9.064-8.528-21.675-4.49-15.785 8.742 6.3 14.15 25.775 53.436 36.332 81.44l.728 1.822s4.24-.733 11.053-3.58c-5.025-18.177-8.68-49.505-19.122-71.334-3.357-7.018-8.508-12.668-13.206-17.088z"/><path d="M870.527 516.958c-1.76-21.05 24.48-7.07 37.066-.118 5.297 2.925 7.235 8.78 7.946 14.288l8.878 72.592c3.08 23.333-17.303 10.574-19.228 4.1-4.86-16.325-33.702-79.4-34.662-90.872z"/><path d="M922.612 589.26s.832 11.164 10.21 24.934c0 0-15.347-7.087-16.1-8.13s-3.428-11.857-3.128-13.003 9.01-3.8 9.01-3.8z"/></g><path d="M743.162 330.24c11.754-7.178 15.148-14.08 15.148-14.08s.315-1.792.275-4.42c-.083-5.544-1.766-14.8-11.426-18.364-5.096-1.87-9.546-1.837-13.608-1.805-7.296.06-13.344.12-19.65-10.833l.048.264c2.503 15.922.023 49.346 29.213 49.238z" class="B"/><g fill="#ffe7c5"><path d="M743.018 330.24c-28.343 0-26.672-31.77-28.897-48.073a36.45 36.45 0 0 0 .902 3.858c2.62 10.894 10.146 34.835 25.6 34.832 2.094 0 4.332-.438 6.723-1.408.532 1.14.852 2.207 1.04 3.074.174.78.27 1.406.3 1.837l.015.12-.1.098-.037-.04-5.847 5.226.013.013-.013.013.4.45h-.1zm5.77-5.83c0-.018 0-.036.002-.056.018-.433.018-1.073-.085-1.885a14.93 14.93 0 0 0-.75-3.28c1.96-.86 4.027-2.076 6.192-3.694.008.947-.043 1.8-.16 2.497-.08.857-.27 1.507-.352 1.96-.018.073-.03.14-.046.204l-4.803 4.254zm4.9-4.337c.01-.033.023-.063.033-.096.138-.44.423-1.07.574-1.93.2-.814.356-1.825.43-2.992 1.253-.97 2.538-2.07 3.86-3.316l.005.48c-.002 2.364-.28 3.94-.28 3.94s-.005.008-.012.02l-.096-.108-4.516 4.002zM713.952 281l-.003-.008z"/><path d="M754.147 315.495l-.012-.562c-.1-1.172-.215-2.5-.668-3.866-.79-2.757-2.76-5.632-5.648-7.67-1.446-1.016-3.104-1.752-4.94-2.195-1.837-.436-3.763-.698-5.71-1.003l-5.85-1.137c-1.938-.51-3.762-1.368-5.335-2.39-3.17-2.05-5.7-4.54-7.512-6.905a28.94 28.94 0 0 1-3.611-6.209c-.338-.802-.55-1.442-.69-1.885l-.222-.67.28.65a20.79 20.79 0 0 0 .847 1.81c.766 1.527 2.016 3.66 3.934 5.87 1.895 2.213 4.432 4.556 7.552 6.394 1.57.925 3.28 1.605 5.098 2.076 1.828.476 3.753.736 5.706.988 1.95.24 3.94.504 5.864 1.03 1.925.5 3.8 1.363 5.353 2.502 3.163 2.248 5.055 5.562 5.733 8.51.403 1.474.446 2.88.416 4.097l-.008.126-.577.44z"/></g><path d="M753.6 320.157l.046-.204c.083-.454.272-1.104.352-1.96.116-.706.167-1.55.16-2.497l.577-.44c-.075 1.167-.22 2.178-.43 2.992-.15.86-.436 1.49-.574 1.93l-.033.096-.096.083z" fill="#fed199"/><path d="M747.345 319.45a14.35 14.35 0 0 0-1.708-2.803c-1.618-2.157-4.168-4.085-7.11-5.76-1.5-.82-3.045-1.57-4.74-2.268a28.48 28.48 0 0 1-4.962-2.628c-3.162-2.087-5.836-4.824-7.918-7.654-2.044-2.87-3.518-5.81-4.56-8.396-.56-1.434-.992-2.752-1.325-3.914-.6-2.53-.955-4.357-1.07-5.015.043.2.836 3.78 3.112 8.62 1.147 2.49 2.732 5.287 4.84 7.958 2.06 2.696 4.662 5.275 7.702 7.207 1.522.98 3.112 1.757 4.763 2.5a48.02 48.02 0 0 1 4.823 2.435c3.05 1.754 5.622 3.99 7.182 6.388.73 1.038 1.23 2.09 1.58 3.072a18.91 18.91 0 0 1-.61.26z" fill="#ffe7c5"/><path d="M714.12 282.167l-.172-1.165v.005l.172 1.16z" fill="#fdbd35"/><path d="M748.7 324.48l-.015-.12a17.18 17.18 0 0 0-.3-1.837 14.92 14.92 0 0 0-1.04-3.074l.6-.26c.444 1.248.643 2.4.75 3.28.103.812.103 1.452.085 1.885-.002.02-.002.038-.002.056l-.076.068zm-33.687-38.455c-.476-1.653-.75-2.984-.902-3.858l-.172-1.16 1.074 5.018z" fill="#fed199"/><path d="M923.618 517.885c.983 6.37 3.644 17.38 8.518 19.274 1.862.723 4.105-.06 6.663-2.326 1.918-1.643 2.684-3.208 2.366-4.803-1.008-4.995-11.433-9.86-17.547-12.145zm9.554 22.77c-.75-.043-1.487-.204-2.208-.486-8.455-3.29-10.673-22.346-10.897-24.505l-.254-2.462 2.353.758c2.087.67 20.426 6.802 22.165 15.433.562 2.805-.585 5.454-3.4 7.875-2.694 2.387-5.295 3.523-7.75 3.387z" class="G"/><path d="M930.218 510.625l-15.486 13.717L747.5 335.19l15.486-13.717 167.233 189.153z" fill="#fec25c"/><path d="M762.985 321.472L747.5 335.19l-4.783-5.4 15.486-13.717 4.783 5.4z" fill="#faa82e"/><path d="M930.218 510.625l-15.486 13.717L747.5 335.19l15.486-13.717 167.233 189.153z" class="S"/><path d="M762.985 321.472L747.5 335.19l-4.783-5.4 15.486-13.717 4.783 5.4z" fill="#0e103a"/><path d="M742.73 329.776l-.013-.013 5.847-5.226.037.04-5.87 5.2z" fill="#e3cab0"/><path d="M914.694 524.28l-167.172-189.1 5.87-5.2L920.57 519.085l-5.875 5.194z" class="W"/><path d="M747.522 335.17l-.015-.018-4.778-5.375 5.87-5.2 4.75 5.35.04.043-5.87 5.2z" fill="#0f1032"/><path d="M930.218 510.625l-15.486 13.717-2.676-3.022 15.486-13.717 2.676 3.022z" class="G"/><path d="M900.18 496.2l-5.44-4.524s-2.054 2.672-3.074 2.99c-.275.086-.855-.138-1.142-.138-1.55-.005-2.5.488-4.392 1.36-1.283.6-2.97 1.124-3.037 1.633-.068.515.822 1.326 1.716 1.255l.44-.1a2.01 2.01 0 0 0 .101.542c.37 1.14 5.7 8.593 11.018.488 1.202-1.837 3.808-3.515 3.808-3.515z" class="I"/><g class="J"><path d="M905.073 424.352c2.42 7.44 4.994 19.198 9.86 29.16.103.235.206.44.3.625l.078.13s.106.443.365 1.093c.885 2.054 3.276 6.243 8.687 5.958.262 0 .963.025 1.847.078 1.066.05 2.394.078 3.617 0 1.51-.106 2.835-.39 3.276-1.147l.027-.025c.05-.156.13-.416.182-.753l.078-.416.078-.444c.053-.415.078-.83.103-1.247l.026-.625c.053-2.654-.416-5.254-.494-6.086-.78-8.377-9.05-34.596-11.86-45.523-.418-1.613-1.328-3.042-2.575-4.03a6.65 6.65 0 0 0-3.929-1.563l-.05-.025h-.625c-3.666.103-6.19 2.99-7.882 6.45-1.12 2.29-1.873 4.76-2.158 7.256-.494 3.694-.105 7.545 1.04 11.133z"/><path d="M892.485 493.08l4.604 4.158 1.197 1.044s9.284-8.067 16.517-14.882c6.685-6.348 13.5-13.42 17.74-21.902.21-.4.415-.83.6-1.222v-.053c.05-.156.13-.416.182-.753l.078-.416.078-.444c.053-.415.078-.83.103-1.247l.026-.625c-.026-1.588-.416-3.382-1.69-4.892l-.34-.388c-.494-.496-1.09-.937-1.82-1.328-.443-.234-.91-.44-1.353-.572-5.358-1.872-10.352 1.404-10.352 1.404-.285.287-.598.6-.885.937-.625.676-1.275 1.432-1.925 2.238-1.795 2.29-3.59 5.07-4.993 8.35-4.422 10.224-17.766 30.594-17.766 30.594z"/></g><path d="M866.765 347.88s10.965-2.185 19.377 2.34c4.332 2.332 9.493 2.543 13.946.454l3.165-1.484s-3.127-3.627-3.604-3.947-3.165-3.382-4.798-4.065-8.5-2.898-9.367-3.04-3.32-.368-5.5.012-3.2.918-4.297 1.45-4.28 2.53-4.28 2.53l-4.642 5.75z" class="F"/><path d="M787.652 386.17s-7.89-6.87-8.294-11.7c-.448-5.325 3.294-7.883 5.76-4.945 3.873 4.62 3.18 12.18 3.18 12.18l1.454 1.71-2.1 2.746z" class="I"/><path d="M897.06 497.213l.028.025 1.197 1.044s9.284-8.067 16.517-14.882c6.685-6.348 13.5-13.42 17.74-21.902.21-.4.415-.83.6-1.222v-.053c.05-.156.13-.416.182-.753l.078-.416.078-.444c.053-.415.078-.83.103-1.247l.026-.625c.053-2.654-.416-5.254-.494-6.086-.78-8.377-9.05-34.596-11.86-45.523-.418-1.613-1.328-3.042-2.575-4.03a6.65 6.65 0 0 0-3.929-1.563l-.05-.025h-.625c1.742 2.8 4.214 8.48 6.996 19.846l7.336 30.2c.522 2.707.678 4.735.47 6.32-.13 1-1.09 2.94-2.654 5.516-6.373 10.56-22.552 31.292-29.16 35.818z" class="G"/><path d="M894.68 383.587s-1.076-3.93-1.185-9.457c0 0 5.41-3.823 5.41-7.725 0-5.428-6.04 0-6.04 0s-1.247-3.91-1.544-7.64c-.49-6.096 9.752-10.57 9.752-10.57l5.366 3.904 2.593 5.065s.227 21.252-14.352 26.423z" class="F"/><path d="M704.6 531.89l-66.117 38.09a1.83 1.83 0 0 1-2.505-.68l-5.244-9.108c-.5-.882-.217-1.998.665-2.507l66.117-38.092a1.84 1.84 0 0 1 2.505.683l5.247 9.108c.506.882.206 2.003-.668 2.507z" class="a"/><path d="M696.054 524.175l-.426-.115-1.46-2.538.083-.048.458-.265 1.462 2.538-.116.428z" class="D"/><path d="M693.204 522.076l.224-.128-.224.128z" class="E"/><path d="M694.038 523.225l-.204-.055-.63-1.094.224-.128.046-.028.63 1.094-.066.21z" class="D"/><path d="M691.85 522.857l.54-.312-.54.312z" class="E"/><path d="M693.738 525.51l-.426-.114-1.46-2.538.54-.312 1.464 2.538-.116.426z" class="D"/><path d="M690.878 523.417l.184-.106-.184.106z" class="E"/><path d="M691.722 524.56l-.217-.05-.627-1.094.184-.106.086-.05.63 1.093-.056.207z" class="D"/><path d="M689.522 524.198l.552-.317-.552.317z" class="E"/><path d="M691.422 526.844l-.438-.108-1.462-2.538.552-.317 1.462 2.537-.114.426zm-2.016-.95l-.217-.048-.63-1.093.134-.076.14-.08.627 1.094-.053.204z" class="D"/><path d="M687.206 525.53l.542-.3-.542.3z" class="E"/><path d="M689.094 528.185l-.426-.116-1.462-2.538.542-.3 1.462 2.536-.116.428z" class="D"/><path d="M686.243 526.086l.086-.048-.086.048z" class="E"/><path d="M687.078 527.235l-.205-.056-.63-1.093.086-.048.184-.106.63 1.09-.065.212z" class="D"/><path d="M684.888 526.867l.54-.313-.54.313z" class="E"/><path d="M686.778 529.52l-.426-.116-1.464-2.538.54-.313 1.462 2.538-.113.43z" class="D"/><path d="M683.925 527.42l.272-.156-.272.156z" class="E"/><path d="M684.762 528.57l-.207-.056-.63-1.094.272-.156.63 1.094-.065.212z" class="D"/><path d="M682.572 528.203l.542-.313-.542.313z" class="E"/><path d="M684.462 530.854l-.43-.114-1.46-2.537.542-.313 1.46 2.538-.113.426zm-2.02-.948l-.214-.05-.63-1.094.227-.13.043-.025.63 1.094-.056.206z" class="D"/><path d="M680.246 529.543l.506-.295-.506.295z" class="E"/><path d="M682.143 532.19l-.436-.108-1.46-2.538.506-.295.046-.022 1.46 2.537-.116.426z" class="D"/><path d="M679.38 530.04l.172-.1-.172.1z" class="E"/><path d="M680.127 531.24l-.217-.048-.627-1.093.098-.058.172-.1.63 1.094-.056.204zm-.3 2.3l-.428-.116-1.462-2.538.542-.3 1.462 2.536-.114.428z" class="D"/><path d="M676.964 531.43l.2-.12-.2.12z" class="E"/><path d="M677.8 532.58l-.206-.055-.63-1.094.2-.12.063-.035.63 1.09-.066.212z" class="D"/><path d="M675.61 532.212l.542-.312-.542.312z" class="E"/><path d="M677.5 534.863l-.426-.113-1.462-2.538.542-.312 1.462 2.537-.116.426z" class="D"/><path d="M674.65 532.766l.27-.156-.27.156z" class="E"/><path d="M675.483 533.916l-.204-.056-.63-1.094.27-.156.63 1.094-.065.212z" class="D"/><path d="M673.295 533.548v-.003l.54-.3-.54.313z" class="E"/><path d="M675.183 536.2l-.426-.116-1.462-2.535.54-.313 1.46 2.538-.113.426zm-2.016-.95l-.217-.048-.63-1.094.272-.156.63 1.094-.055.204zm-.3 2.284l-.44-.1-1.46-2.536.552-.32 1.46 2.538-.113.428zm-2.02-.95l-.214-.05-.63-1.1.272-.156.628 1.093-.056.204z" class="D"/><path d="M668.65 536.22l.194-.1-.194.1z" class="E"/><path d="M670.538 538.875l-.426-.116-1.46-2.538.194-.1.348-.202 1.46 2.538-.116.428z" class="D"/><path d="M667.688 536.776l.146-.083-.146.083z" class="E"/><path d="M668.522 537.925l-.204-.055-.63-1.094.146-.083.124-.073.63 1.093-.066.212z" class="D"/><path d="M666.332 537.557l.542-.312-.542.312z" class="E"/><path d="M668.222 540.208l-.428-.113-1.462-2.538.542-.312 1.462 2.537-.114.426z" class="D"/><path d="M665.37 538.112l.272-.157-.272.157z" class="E"/><path d="M666.206 539.26l-.206-.056-.63-1.093.272-.157.63 1.094-.066.212zm-.302 2.284l-.426-.116-1.462-2.538.542-.3 1.462 2.538-.116.426z" class="D"/><path d="M663.044 539.452l.27-.156-.27.156z" class="E"/><path d="M663.888 540.594l-.214-.048-.63-1.094.27-.156.63 1.094-.055.204zm-.3 2.286l-.436-.1-1.462-2.538.55-.318 1.464 2.538-.116.43z" class="D"/><path d="M660.753 540.773l.244-.14-.244.14z" class="E"/><path d="M661.572 541.93l-.217-.05-.627-1.09.025-.015.244-.14.63 1.09-.055.206z" class="D"/><path d="M659.372 541.567l.254-.147-.254.147z" class="E"/><path d="M661.262 544.218l-.43-.114-1.46-2.537.254-.147.288-.166 1.46 2.538-.113.426z" class="D"/><path d="M658.41 542.12l.27-.154-.27.154z" class="E"/><path d="M659.246 543.27l-.207-.055-.63-1.094.27-.154v-.002l.628 1.093-.063.212z" class="D"/><path d="M657.056 542.902l.542-.312-.542.312z" class="E"/><path d="M658.943 545.553l-.426-.113-1.46-2.538.542-.312 1.46 2.538-.116.425z" class="D"/><path d="M656.093 543.457l.27-.157-.27.157z" class="E"/><path d="M656.927 544.606l-.204-.056-.63-1.093.27-.157.63 1.094-.066.212zm-.3 2.284l-.428-.116-1.462-2.538.542-.3 1.462 2.538-.114.426zm-2.017-.95l-.216-.048-.63-1.094.05-.03.222-.126.63 1.094-.056.204zm-.3 2.282l-.436-.108-1.462-2.538.552-.317 1.462 2.537-.116.426z" class="D"/><path d="M651.45 546.13l.27-.156-.27.156z" class="E"/><path d="M652.293 547.275l-.214-.05-.63-1.094.27-.156.63 1.094-.055.207zm-.3 2.288l-.426-.114-1.462-2.537.542-.313 1.462 2.538-.116.426z" class="D"/><path d="M649.26 547.393l.143-.083-.143.083z" class="E"/><path d="M649.967 548.615l-.204-.055-.63-1.094.126-.073.143-.083.63 1.094-.065.21z" class="D"/><path d="M647.777 548.247l.542-.312-.542.312z" class="E"/><path d="M649.667 550.898l-.428-.113-1.462-2.538.542-.312 1.46 2.538-.113.425z" class="D"/><path d="M646.814 548.802l.272-.156-.272.156z" class="E"/><path d="M647.65 549.948l-.207-.052-.63-1.094.272-.156.63 1.093-.065.21z" class="D"/><path d="M645.46 549.58l.534-.307-.534.307z" class="E"/><path d="M647.348 552.234l-.425-.116-1.462-2.538.542-.312 1.46 2.538-.116.428zm-2.016-.95l-.214-.05-.63-1.092.27-.156.63 1.094-.056.204z" class="D"/><path d="M643.243 550.858l.44-.254-.44.254z" class="E"/><path d="M645.033 553.567l-.436-.108-1.465-2.538.1-.063.44-.254 1.464 2.537-.115.426zm-2.017-.947l-.216-.05-.63-1.093.12-.068.15-.1.63 1.094-.056.207z" class="D"/><path d="M640.816 552.257l.542-.313-.542.313z" class="E"/><path d="M642.704 554.908l-.426-.113-1.462-2.538.542-.313 1.462 2.538-.116.426z" class="D"/><path d="M639.854 552.81l.27-.156-.27.156z" class="E"/><path d="M640.688 553.96l-.204-.055-.63-1.094.27-.156.63 1.094-.065.21z" class="D"/><path d="M638.75 553.446l.292-.166-.292.166z" class="E"/><path d="M640.388 556.244l-.426-.116-1.462-2.536.25-.146.292-.166 1.462 2.538-.116.426z" class="D"/><path d="M637.538 554.147l.12-.07-.12.07z" class="E"/><path d="M638.372 555.294l-.204-.056-.63-1.1.12-.07.148-.085.63 1.093-.065.2zm-.3 2.286l-.428-.116-1.462-2.537.542-.313 1.46 2.538-.113.428z" class="D"/><path d="M635.21 555.488l.272-.157-.272.157z" class="E"/><path d="M636.056 556.63l-.217-.05-.63-1.09.272-.157.63 1.092-.055.206z" class="D"/><path d="M818.316 926.543c0 5.37-28.946 9.725-64.655 9.725s-64.65-4.355-64.65-9.725 28.945-9.728 64.65-9.728 64.655 4.355 64.655 9.728z" class="O"/><path d="M770.366 905.9l.39 11.164c.166 2.268 7.39 2.436 8.23 1.26s1.26-11.6 1.26-11.6" class="I"/><path d="M780.895 920.326c0 2.363-.66 6.217-.66 6.217h-8.324l-.408-1.392s-2.7 1.392-4.82 1.392h-7.026c-5.143 0-8.062-.656-8.193-1.56-.544-3.783 5.602-3.612 7.2-3.612 4.594 0 9.57-2.152 10.653-4.483.786-1.69.438-2.12 1.388-1.804 0 0 .857.186 1.427 1.232.876 1.608 2.537 2.686 4.342 2.37 1.03-.182 2.066-.575 2.812-1.358 0 0 1.6.635 1.6 3z" class="U"/><path d="M741.154 903.504s1.542 6.094 2.537 8.137 7.767-.473 8.112-1.877-3.122-11.235-3.122-11.235" class="I"/><path d="M754.32 910.916c.874 2.195 2.172 6.45 2.172 6.45l-6.3 3.762-1.238-.935s-1.39 2.26-3.32 3.47c-1.43.897-4.6 2.212-6.247 2.588-5.763 1.315-10.216.68-10.673-.114-1.905-3.31 5.734-5.133 7.22-5.725 4.267-1.7 6.223-5.837 6.366-8.405.104-1.862-.378-2.132.623-2.2 0 0 .862-.146 1.78.618 1.41 1.166 3.35 1.552 4.907.59.892-.55 1.706-1.297 2.112-2.3 0 0 1.73-.008 2.606 2.2z" class="U"/><path d="M785.603 701.4c2.99-2.207 6.252-4.687 9.35-7.273 7.06-5.93 13.364-12.368 14.146-17.055 1.726-10.51.378-41.738-.46-56.476-.025-.89-.08-1.726-.134-2.507-.834-13.93-8.326-20.1-12.07-22.363l-6.575 61.082c-.456 2.696-4.256 44.592-4.256 44.592z" class="M"/><path d="M785.595 701.4c2.99-2.207 6.25-4.687 9.35-7.273.264-11.516 3.694-27.594 8.518-47.722 5.725-25.373 2.124-30.04 2.124-30.04l-11.504 1.752-4.23 38.69c-.46 2.696-4.257 44.592-4.257 44.592z" class="b"/><g class="F"><path d="M757.945 796.7c.655 12.868 1.756 26.15 3.57 35.395 1.53 7.852 26.21 9.294 23.04 3.243-4.58-8.785 3.407-36.332 7.33-83.3.567-7.107 3.763-7.926 5.882-22.547 2.095-14.645-5.955-27.34-5.955-27.34l-34.25-3.18-.572 57.085s-.078 19.787.955 40.646z"/><path d="M781.535 829.862s6.7 8.208 5.766 23.263-6.176 59.983-6.176 59.983-7.858 1.162-11.9-.335l-8.508-92.792c-.033-9.463 20.828 9.88 20.828 9.88z"/></g><path d="M757.945 796.7c2.162-6.938 6.426-20.193 9.947-27.685 4.914-10.474 9.7-15.038 9.7-15.038 17.378-18.233 5.428-41.81 5.428-41.81s-14.15 11.72-15.138 12.936c-.938 1.134-6.595 11.088-10.77 16.524l-.13 14.428s-.078 19.787.955 40.646z" fill="#082f44"/><path d="M717.34 791.098s-7.767 25.554-6.532 33.565 29.628 82.95 29.628 82.95 5.23.075 11.39-2.82c0 0-.6-32.99-6.182-53.633s-12.038-33.275-17.585-35.122-9.18-20.645-10.72-24.94z" class="F"/><path d="M742.446 806.274s-8.424 13.414-3.24 25.453-8.682 10.035-8.682 10.035-6.933-20.18-5.393-22.8 7.243-11.4 9.1-11.862 8.225-.827 8.225-.827z" fill="#15405a"/><path d="M733.95 699.652s-18.018 83.414-20.372 105.89c-.998 9.53 9.02 25.274 18.26 16.655 11.036-10.287 28.898-57.38 34.445-65.698s26.297-15.945 12.124-58.154" class="F"/><path d="M778.433 587.61s-2.464-8.35-1.386-14.51 4.776-17.252 3.4-25.57-11.862-15.25-22.956-14.173-14.324 11.708-16.174 17.87-1.54 15.56-1.078 20.642 3.236 9.1 5.083 10.17 8.805-.346 10.025.983 2.144 9.183 2.144 9.183" class="I"/><path d="M783.67 594.206s-.615-4.87-2.465-6.595-14.173-1.724-17.87-1.262-12.812 4.712-14.016 5.612 1.172 5.577 1.172 5.577l33.18-3.332z" class="M"/><path d="M654.873 545.863c.09-.874 1.218-.458 1.513.262.04.096.095.32.163.623l-.156-2.903c.083-.83 1.127-.527 1.487.12l-.023-1.202c.088-1.064 1.227-.63 1.522.247.066.196.162.748.265 1.47l-.01-.81c.088-.874 1.094-.655 1.388.063.1.237.152.666.315 1.694l.52 2.7c.17 1.232.557 2.477.562 2.495 2.033 2.39 4.05 3.13 4.05 3.13l2.4-1.306s.768 4.28.58 5.575c-.16 1.293-1.104 2.908-.998 3.69s.998 2.858.998 2.858l-6.628 2.747s-.89-3.962-1.78-4.877c-.915-.89-4.148-4.715-4.526-5.443-.16-.295-.567-1.67-.998-3.286l-.47-2.472-.21-2.4.037-2.966z" class="I"/><path d="M661.66 565.835s2.235 12.96 4.445 23.334c1.752 8.003 3.934 16.355 7.735 23.9l.053.19c2.182 4.74 6.252 10.534 9.026 11.126s12.503-.053 12.503-.053c6.035.35 21.204-1.643 34.11-3.37l.595-.08 15.277-1.94c1.78-.16 3.422-.915 4.662-2.074 1.13-.996 1.938-2.344 2.263-3.906l.025-.053c.864-4.18-1.885-7.518-5.44-9.97l-.512-.325c4.4-4.365 8.89-9.133 8.89-9.133l-19.32 1.05c-4.715.323-36.886 8.92-40.74 10.13-.298.108-.567.214-.837.295 0 0-.484.055-1.212.217-.214.053-.484.16-.754.242-1.078-2.828-2.585-5.847-4.687-8.81-6.898-9.7-18.107-33.194-18.107-33.194l-6.333 1.885-.028.027-1.615.512z" class="M"/><path d="M777.972 577.107s-15.405 1.308-18.334 0-7.162-4.16-7.547-9.397.693-6.857-1.31-9.783-3.772-1.925-4.082.847-.43 7.782-1.154 8.15c-.983.496-2.15-3.03-1.772-8.382.328-4.64.847-8.24 2.233-11.32s2.14-2.91 3.39-3.468c-1.348-.655-2.802-.733-5.468-4.89-3.085-4.814-1.386-12.316 6.78-12.286 14.26.053 29.422 2.85 29.732 13.402 0 0 5.005-.77 5.158 8.858s-6.008 21.26-6.47 24.263.386 3.312-1.154 4.007z" class="F"/><path d="M735.156 690.29c-.567 4.824-4.796 12.288-1.913 13.34 1.16.404 5.874.134 11.638-.35h.164l.27-.028 15.87-1.373c19.59-.837 29.586 3.072 31.552 1.966.942-.565.97-2.263.673-4.015-.673-4.31-.887-8.65-.323-12.986.484-3.64 1.16-7.976 2.102-12.933 3.233-17.164 9.566-43.38 10.51-59.144 1.507-24.707-24.952-22.363-24.952-22.363-33.678-2.102-49.497 7.598-51.33 22.068-.133 1.023-.214 2.127-.295 3.286-.862 14.927 3.692 39.016 5.847 57.015.592 4.957.484 10.695.19 15.518z" class="M"/><path d="M735.156 690.29c-.567 4.824-4.796 12.288-1.913 13.34 1.16.404 5.874.134 11.638-.35-5.2.376-6.17-3.61-5-6.277 1.16-2.697 3.556-8.758 3.342-15.953-.245-7.167-2.94-23.333-4.53-38.6-1.507-14.2-.214-25.302-.025-26.783-.81 1.618-3.128 3.88-9.647 5.4-.134 15.007 3.96 36.992 5.955 53.726.592 4.957.484 10.695.19 15.518z" class="b"/><path d="M330.306 312.556l-17.81 42.514-63.214-26.49 81.023-16.025zm-9.392 66.78l37.572-89.655-169.698 34.3 132.126 55.356z" class="a"/><path d="M204.317 320.837l.353-.07-.353.07z" class="B"/><path d="M205.257 325.215l-.368-.26-.824-4.067.252-.05.353-.07.824 4.067-.237.38z" class="C"/><path d="M205.807 320.535l.174-.035-.174.035z" class="B"/><path d="M206.212 322.763l-.262-.174-.405-2 .262-.055.174-.035.405 2-.174.262z" class="C"/><path d="M206.923 320.31l.605-.124-.605.124z" class="B"/><path d="M208.113 324.635l-.368-.257-.822-4.067.605-.124.824 4.067-.24.38z" class="C"/><path d="M208.402 320.01l.1-.02-.1.02z" class="B"/><path d="M209.07 322.186l-.264-.174-.404-2 .1-.02.337-.07.406 2-.174.263zm1.9 1.872l-.368-.26-.824-4.067.608-.12.82 4.067-.237.38z" class="C"/><path d="M211.39 319.406l.307-.063-.307.063z" class="B"/><path d="M211.925 321.606l-.262-.174-.405-1.998.13-.028.307-.063.403 2-.174.262z" class="C"/><path d="M212.636 319.154l.605-.124-.605.124z" class="B"/><path d="M213.828 323.478l-.368-.257-.824-4.067.605-.124.824 4.068-.237.38z" class="C"/><path d="M214.133 318.85l.348-.07-.348.07z" class="B"/><path d="M214.783 321.03l-.247-.18-.403-2 .348-.07.07-.015.406 2-.174.262zm1.9 1.87l-.368-.26-.82-4.068.126-.025.496-.1.822 4.068-.255.385z" class="C"/><path d="M216.99 318.287l-.003-.015.42-.083.003.015-.268.055-.153.028z" class="B"/><path d="M217.64 320.45l-.247-.176-.403-1.986.153-.028.268-.055.403 1.983-.174.262zm1.9 1.872l-.368-.257-.82-4.05.623-.126.82 4.05-.255.383zm.974-2.455l-.262-.174-.403-1.983.42-.083.4 1.983-.156.257z" class="C"/><path d="M221.21 317.435l.487-.098-.487.098z" class="B"/><path d="M222.414 321.74l-.383-.254-.822-4.05.487-.098.136-.028.82 4.05-.24.38z" class="C"/><path d="M222.706 317.133l.164-.033-.164.033z" class="B"/><path d="M223.372 319.3l-.265-.174-.4-1.983.164-.033.257-.053.4 1.983-.156.26zm1.9 1.862l-.386-.254-.82-4.05.623-.126.82 4.05-.237.38zm.955-2.462l-.262-.174-.4-1.983.436-.088.4 1.983-.174.262zm1.903 1.883l-.368-.257-.82-4.05.604-.124.82 4.05-.236.38zm.955-2.45l-.262-.174-.404-1.983.44-.088.4 1.983-.174.262zm1.9 1.873l-.366-.26-.82-4.05.605-.12.82 4.05-.24.38z" class="C"/><path d="M231.277 315.396l.204-.04-.204.04z" class="B"/><path d="M231.942 317.554l-.264-.174-.4-1.984.204-.04.232-.048.403 1.983-.174.263zm1.9 1.872l-.368-.257-.82-4.05.604-.123.82 4.05-.236.38zm.955-2.45l-.262-.173-.4-1.984.436-.088.4 1.983-.174.262zm1.902 1.874l-.368-.26-.82-4.05.605-.12.82 4.05-.237.38z" class="C"/><path d="M237 314.242v-.002l.44-.088-.44.1z" class="B"/><path d="M237.655 316.4l-.262-.176-.403-1.98.44-.1.4 1.983-.174.264zm1.9 1.87l-.366-.257-.82-4.05.14-.03.463-.093.822 4.05-.24.38zm.957-2.45l-.247-.177-.4-1.983.42-.086.4 1.984-.174.262zm1.9 1.872l-.368-.26-.82-4.05.623-.126.82 4.05-.255.385z" class="C"/><path d="M242.867 313.053l.275-.058-.275.058z" class="B"/><path d="M243.37 315.243l-.245-.18-.403-1.984.146-.027.275-.058.4 1.983-.173.265z" class="C"/><path d="M244.084 312.806l.62-.126-.62.126z" class="B"/><path d="M245.27 317.113l-.368-.257-.82-4.05.62-.126.822 4.05-.255.383zm.974-2.453l-.265-.174-.4-1.984.408-.083.012-.002.4 1.983-.156.26zm1.9 1.873l-.383-.255-.822-4.052.623-.126.82 4.052-.237.38zm.956-2.453l-.262-.174-.4-1.983.056-.01.363-.073.403 1.98-.16.26z" class="C"/><path d="M250.027 311.6l.393-.078-.393.078z" class="B"/><path d="M251.002 315.953l-.386-.254-.82-4.05.23-.048.393-.078.82 4.05-.237.38z" class="C"/><path d="M251.478 311.31l.252-.05-.252.05z" class="B"/><path d="M251.957 313.504l-.262-.174-.403-1.983.186-.038.252-.05.4 1.984-.174.262z" class="C"/><path d="M252.67 311.067l.605-.124-.605.124z" class="B"/><path d="M253.857 315.376l-.365-.26-.822-4.05.605-.124.822 4.053-.24.38z" class="C"/><path d="M254.15 310.767l.436-.088-.436.088z" class="B"/><path d="M254.815 312.924l-.265-.174-.4-1.983.436-.088.404 1.983-.174.262zm1.9 1.873l-.368-.257-.82-4.05.605-.124.82 4.05-.237.38z" class="C"/><path d="M257.007 310.2l.01-.003-.01.003z" class="B"/><path d="M257.67 312.347l-.262-.174-.4-1.983.01-.003.426-.085.4 1.983-.174.262z" class="C"/><path d="M258.386 309.9l.605-.123-.605.123z" class="B"/><path d="M259.573 314.22l-.368-.26-.82-4.05.605-.123.82 4.052-.237.38z" class="C"/><path d="M260.102 309.562l.2-.04-.2.04z" class="B"/><path d="M260.528 311.767l-.262-.173-.404-1.984.24-.048.2-.04.4 1.983-.174.262z" class="C"/><path d="M261.24 309.333l.605-.123-.605.123z" class="B"/><path d="M262.428 313.64l-.365-.257-.822-4.05.605-.123.82 4.05-.24.38z" class="C"/><path d="M262.72 309.033l.358-.073-.358.073z" class="B"/><path d="M263.386 311.2l-.265-.174-.4-1.983.358-.073.078-.015.403 1.983-.173.262zm1.9 1.863l-.368-.26-.82-4.05.605-.12.82 4.05-.237.38z" class="C"/><path d="M265.593 308.45l.42-.086-.42.086z" class="B"/><path d="M266.24 310.61l-.245-.177-.403-1.983.42-.086.4 1.984-.174.262z" class="C"/><path d="M266.957 308.176l.62-.126-.62.126z" class="B"/><path d="M268.143 312.483l-.367-.257-.82-4.05.62-.126.822 4.05-.255.383z" class="C"/><path d="M268.713 307.82l.16-.033-.16.033z" class="B"/><path d="M269.1 310.034l-.247-.18-.4-1.98.262-.053.16-.033.4 1.984-.173.262z" class="C"/><path d="M269.812 307.597l.622-.126-.622.126z" class="B"/><path d="M271 311.906l-.366-.26-.82-4.05.622-.126.82 4.05-.254.385z" class="C"/><path d="M271.31 307.294l.19-.037-.19.037z" class="B"/><path d="M271.972 309.452l-.263-.174-.4-1.984.19-.037.232-.048.4 1.983-.158.26z" class="C"/><path d="M272.775 306.997l.517-.103-.517.103z" class="B"/><path d="M273.872 311.324l-.386-.255-.816-4.05.105-.023.517-.103.82 4.05-.24.38z" class="C"/><path d="M274.167 306.73l-.003-.013.42-.085.002.015-.27.055-.15.028z" class="B"/><path d="M274.83 308.874l-.262-.176-.4-1.968.15-.028.27-.055.4 1.968-.157.26zm1.9 1.87l-.385-.254-.814-4.032.622-.126.817 4.032-.24.38z" class="C"/><path d="M277.25 306.107l.212-.04-.212.04z" class="B"/><path d="M277.685 308.295l-.263-.174-.4-1.966.23-.048.212-.04.395 1.966-.173.262z" class="C"/><path d="M278.403 305.875l.602-.123-.602.123z" class="B"/><path d="M279.587 310.167l-.37-.26-.814-4.033.602-.123.82 4.035-.237.38z" class="C"/><path d="M279.882 305.576l.297-.06-.297.06z" class="B"/><path d="M280.542 307.718l-.262-.177-.398-1.965.297-.06.142-.028.398 1.966-.177.265zm1.903 1.87l-.368-.257-.816-4.033.604-.123.817 4.032-.237.38z" class="C"/><path d="M282.883 304.968l.293-.058-.293.058z" class="B"/><path d="M283.4 307.138l-.262-.174-.398-1.965.143-.03.293-.058.398 1.966-.174.262zm1.9 1.872l-.365-.26-.817-4.032.338-.068.267-.056.817 4.035-.24.38z" class="C"/><path d="M285.595 304.42l.44-.088-.44.088z" class="B"/><path d="M286.258 306.56l-.265-.176-.398-1.966.44-.088.398 1.965-.174.265z" class="C"/><path d="M286.974 304.142l.456-.094-.456.094z" class="B"/><path d="M288.158 308.43l-.368-.257-.816-4.032.456-.094.148-.03.817 4.032-.237.38zm.955-2.45l-.262-.173-.398-1.966.01-.003.428-.085.396 1.965-.174.262z" class="C"/><path d="M289.993 303.53l.443-.1-.443.1z" class="B"/><path d="M291.016 307.854l-.368-.26-.817-4.032.605-.123.817 4.034-.237.38z" class="C"/><path d="M291.454 303.235l.293-.06-.293.06z" class="B"/><path d="M291.97 305.404l-.247-.18-.398-1.965.128-.025.293-.06.398 1.966-.174.264z" class="C"/><path d="M292.69 302.985l.62-.126-.62.126z" class="B"/><path d="M293.87 307.274l-.365-.257-.817-4.032.62-.126.817 4.032-.255.383z" class="C"/><path d="M294.184 302.68l.33-.065-.33.065z" class="B"/><path d="M294.83 304.825l-.247-.177-.398-1.968.33-.065.1-.018.4 1.966-.174.262zm1.9 1.872l-.368-.26-.817-4.033.07-.015.552-.1.816 4.035-.254.383z" class="C"/><path d="M297.04 302.103l.42-.086-.42.086z" class="B"/><path d="M297.702 304.243l-.262-.174-.4-1.966.42-.086.396 1.966-.156.26z" class="C"/><path d="M298.402 301.828l.33-.068-.33.068z" class="B"/><path d="M299.602 306.115l-.383-.255-.817-4.032.33-.068.293-.058.816 4.032-.24.38zm.958-2.45l-.264-.173-.398-1.97.327-.065.093-.018.4 1.966-.157.26z" class="C"/><path d="M301.26 301.25l.62-.126-.62.126z" class="B"/><path d="M302.46 305.538l-.383-.257-.816-4.032.62-.126.816 4.034-.237.38z" class="C"/><path d="M302.754 300.946l.393-.08-.393.08z" class="B"/><path d="M303.415 303.086l-.262-.174-.4-1.966.393-.08.043-.008.398 1.966-.173.262z" class="C"/><path d="M304.2 300.654l.537-.108-.537.108z" class="B"/><path d="M305.317 304.958l-.368-.257-.816-4.034.068-.013.537-.108.816 4.032-.237.38z" class="C"/><path d="M305.657 300.36l.39-.08-.39.08z" class="B"/><path d="M306.272 302.51l-.262-.174-.398-1.968.045-.008.39-.08.398 1.97-.174.262z" class="C"/><path d="M306.99 300.09l.604-.123-.604.123z" class="B"/><path d="M308.173 304.38l-.366-.26-.816-4.033.604-.123.817 4.035-.24.38z" class="C"/><path d="M308.467 299.8l.42-.086-.42.086z" class="B"/><path d="M309.13 301.93l-.264-.174-.4-1.965.42-.086.018-.003.398 1.966-.174.262z" class="C"/><path d="M309.846 299.5l.32-.063-.32.063z" class="B"/><path d="M311.03 303.8l-.368-.257-.816-4.034.32-.063.285-.058.816 4.032-.237.38z" class="C"/><path d="M311.325 299.2l.184-.035-.184.037" class="B"/><path d="M311.985 301.352l-.262-.174-.398-1.968.184-.035.252-.053.398 1.968-.174.262z" class="C"/><path d="M312.9 298.9l.398-.08-.398.08z" class="B"/><path d="M313.888 303.224l-.368-.26-.816-4.032.206-.043.398-.08.817 4.035-.237.38z" class="C"/><path d="M314.183 298.633l.436-.088-.436.088z" class="B"/><path d="M314.843 300.772l-.262-.174-.398-1.965.436-.088.398 1.965-.174.262z" class="C"/><path d="M315.56 298.353l.605-.12-.605.12z" class="B"/><path d="M316.743 302.645l-.365-.257-.817-4.035.605-.12.817 4.032-.24.38zm.957-2.45l-.247-.18-.398-1.965.413-.084.008-.002.398 1.968-.174.262zm1.9 1.873l-.368-.26-.816-4.032.622-.126.817 4.032-.255.386z" class="C"/><path d="M319.914 297.474l.42-.086-.42.086z" class="B"/><path d="M320.556 299.616l-.244-.177-.398-1.965.42-.086.4 1.966-.177.262z" class="C"/><path d="M321.274 297.196l.623-.126-.623.126z" class="B"/><path d="M322.46 301.488l-.368-.257-.817-4.035.623-.126.816 4.035-.254.383z" class="C"/><path d="M322.77 296.894l.42-.086-.42.086z" class="B"/><path d="M323.432 299.036l-.265-.176-.396-1.966.42-.086.398 1.968-.156.26z" class="C"/><path d="M324.132 296.62l.6-.12-.6.12z" class="B"/><path d="M325.332 300.906l-.383-.255-.817-4.032.6-.12.02-.005.817 4.032-.237.38z" class="C"/><path d="M325.627 296.317l.18-.038-.18.038z" class="B"/><path d="M326.287 298.456l-.262-.174-.398-1.965.18-.038.242-.048.398 1.966-.16.26z" class="C"/><path d="M326.987 296.04l.416-.084-.416.084z" class="B"/><path d="M328.2 300.33l-.386-.255-.817-4.034.416-.084.207-.042.816 4.034-.236.38z" class="C"/><path d="M328.568 295.72l.352-.07-.352.07z" class="B"/><path d="M329.145 297.88l-.262-.176-.4-1.966.084-.017.352-.07.4 1.966-.174.264z" class="C"/><path d="M329.863 295.46v-.003l.605-.12.002.012-.34.056-.267.055z" class="B"/><path d="M331.045 299.75l-.366-.257-.816-4.032.267-.055.34-.056.814 4.02-.24.38z" class="C"/><path d="M331.345 295.175l-.003-.015.44-.073-.436.088z" class="B"/><path d="M332.002 297.3l-.264-.174-.393-1.95.436-.088.395 1.95-.174.262z" class="C"/><path d="M332.723 294.898l.605-.123-.605.123z" class="B"/><path d="M333.903 299.172l-.368-.26-.812-4.014.605-.123.81 4.017-.236.38z" class="C"/><path d="M334.203 294.598l.435-.088-.435.088z" class="B"/><path d="M334.858 296.723l-.262-.177-.393-1.948.435-.088.396 1.948-.176.265z" class="C"/><path d="M335.578 294.318l.605-.12h.003l-.608.12z" class="B"/><path d="M336.76 298.592l-.368-.257-.814-4.017.608-.12.8 4.015-.237.38zm.956-2.45l-.263-.174-.395-1.95.438-.1.393 1.95-.173.262z" class="C"/><path d="M338.436 293.74l.605-.123-.605.123z" class="B"/><path d="M339.616 298.015l-.366-.26-.814-4.015.605-.123.814 4.017-.24.38z" class="C"/><path d="M339.916 293.44l.436-.088-.436.088z" class="B"/><path d="M340.573 295.566l-.264-.177-.393-1.948.436-.088.395 1.948-.174.265z" class="C"/><path d="M341.294 293.162l.34-.068-.34.068z" class="B"/><path d="M342.473 297.436l-.367-.257-.812-4.017.605-.12.81 4.014-.237.38z" class="C"/><path d="M342.788 292.86l.42-.085-.42.085z" class="B"/><path d="M343.43 294.986l-.245-.176-.396-1.95.42-.085.393 1.95-.173.262z" class="C"/><path d="M201.3 316.465c-2.838 21.82 6.134 43.84 15.2 37.763 14.206-9.53 35.286-40.795 37.33-40.885 1.182-.053 2.263.67 5.72.725 1.717.028 4.496-.534 6.167-.927.348-.083.77-.267.77-.625l-.353-.534c-.706-.514-1.626-.618-2.5-.63-.72-.013-1.646-.1-1.842-.807-.116-.4.118-.857.458-1.116s.767-.37 1.18-.476c2.238-.575 5.035-1.094 7.273-1.67-1.364-.42-3.3-.857-4.688-1.192-1.045-.252-2.1-.48-3.175-.54-1.54-.086-5.093-.005-6.615.252-3.095.524-4.226 1.242-7.026 2.656-1.696.857-3.22 2-4.718 3.183-3.83 3-18.4 20.06-21.57 22.42m64.146 55.742s-4.892 10.975-6.686 23.457c-1.532 10.653 4.402 27.646 3.735 40.03-.2 2.412-.52 8.203-1.46 9.94-1.15 2.127-3.7 4.475-3.94 7.313-.146 1.646.837 3.36 2.825 4.264s3.3-.14 4.005-.08c4.135.356 4.9 3.33 12.013 4.232 2.2.28 5.52-.527 7.424-2.032.736-.582.695-1.492.27-2.106s-5.68-2.17-8.062-3.54c-2.268-1.308-4.76-4.9-5.15-6.336s.62-8.344 1.063-11.242l8.87-59.696" fill="#db856e"/><path d="M305.52 477.36c.504-.862.615-2.142.13-2.44-.672-.413-3.066-1.842-4.45-2.406s-3.568-1.03-2.795-.658-.617 1.9-1.905 1.862c-4.445-.123-7.762-2.847-10.302-3.377-3.664-.76-4.536-4.745-4.705-5.408-.686.44-2.96 3.715-3.27 4.768-.28.953-.784 2.694-.487 3.667.205.673.656 2.03.46 3.47 0 0 .726.507 2.64.824 1.21.202 2.827-.045 2.827-.045l.28-2.203s.993-.068 2.26.144 2.76 1.063 3.455 1.74c.545.532 1.084 1.376 1.772 1.646 1.988.78 3.445 1.114 5.708 1.172 4.766.12 7.525-1.285 8.384-2.757z" class="F"/><path d="M226.456 363.283L194.272 381.7s2.034 12.09 16.605 15.203c8.452 1.807 21.733-.607 25.236-.428l59.03 2.177s5.516 1.208 6.502-3.132c1.55-6.807.017-8.95-4.56-11.978-7.714-5.11-37.182-14.798-70.63-20.25z" fill="#db856e"/><path d="M286.422 394.114s-1.67 11.9.048 24.392c1.47 10.662 12.444 28.477 15.22 40.56.474 2.373 1.764 8.03 1.34 9.956-.52 2.364-2.314 5.323-1.77 8.118.315 1.623 1.734 2.996 3.89 3.32s3.125-1.046 3.828-1.185c4.07-.8 5.64 1.845 12.717.75 2.18-.335 5.158-2.03 6.572-4.002.547-.763.257-1.625-.322-2.1s-6.06-.517-8.725-1.177c-2.543-.63-5.93-3.394-6.7-4.667s-1.706-8.193-2.08-11.1l-8.896-65.517" class="c"/><path d="M328.94 476.33c.247-.965 0-2.23-.55-2.38-.758-.212-3.455-.925-4.94-1.084s-3.717-.005-2.87.14-.068 1.996-1.315 2.316c-4.307 1.106-8.246-.597-10.834-.403-3.732.28-5.67-3.31-6.015-3.9-.537.612-1.82 4.4-1.827 5.49-.005.992-.008 2.802.544 3.66.383.59 1.19 1.766 1.4 3.205 0 0 .84.288 2.764.066 1.217-.14 2.704-.824 2.704-.824l-.338-2.195s.935-.338 2.213-.487 2.946.26 3.8.72c.67.36 1.42 1.023 2.158 1.094 2.124.2 3.616.118 5.808-.45 4.615-1.2 6.878-3.314 7.3-4.965z" class="F"/><path d="M227.124 365.564l-32.186 18.404s1.285 11.713 15.856 14.828c8.452 1.807 22.482-.23 25.987-.053l59.03 2.178s5.425 1.164 5.7-3.277c.368-5.932.816-8.802-3.757-11.834-7.717-5.108-37.182-14.795-70.63-20.246z" class="c"/><path d="M201.157 355.345s-10.075 19.61-7.497 27.965 7.492 16.257 21.322 16.36l48.48.103s1.2-9.047 4.247-14.67 7.965-10.038 7.965-10.038-35.147-10.83-37.587-13.162-4.826-7.498-4.826-7.498" class="F"/><g class="M"><path d="M207.03 291.864c-3.96 6.97-6.446 16.758-7.32 27.77.18.17 9.462 1.96 13.93 1.994"/><path d="M233.865 284.5c1.845.613 1.157 5.013 3.002 5.622 1.338.444 3.96-.146 5.186.547 6.504 3.67 4.836 10.988 5.62 20.06 2.754 6.96 3.488 13.268 1.293 17.157-2.725 4.826-5.605 6.187-8.947 10.186-2.502 2.99-3.32 9.138-3.835 15.743-.088 1.137.86 3.13.584 4.236-.526 2.122-3.752 2.783-7.35 2.85-8.273.158-20.818-2.853-24.5-2.717-3.48.128-6.76-1.557-6.42-3.61.237-1.43 1.674-2.02 2.24-4.793 1.25-6.104 2.207-21.363 3.18-26.534 2.5-13.25 4.312-23.102 9.743-35.31"/></g><path d="M252.663 316.266c-2.024-3.54-4.796-6.752-7.508-9.834l-7.07 3.18c3.324 6.376 3.93 13.885 5.456 20.856 1.598.156 4.078-.4 4.078-.4.688-1.124.43-.562 1.346-2.182 1.47-2.606 3.392-6.95 3.697-11.62z" class="b"/><g class="c"><path d="M257.5 266.608c.756-3.103 1.3-6.412 1.204-9.148-.204-5.257-.87-12.868-9.604-15.995s-18.37-1.253-21.23 5.047-2.195 15.834-2.613 20.932-4.156 11.2-4.156 11.2l18.807 8.098s3.072-6.68 4.337-7.48 1.707 2.38 5.895 2.026c1.78-.15 3.677-3.342 5.116-7.27l.133-.4c.93-.05 1.996-.118 2.238-.2 1.298-.386 1.195-.96.905-1.784-.63-1.78-.907-3.66-1.033-5.045zm30.557 103.245c.245 1.5 3.818 5.138 6.144 5.408.75.086 1.53-.008 2.17-.4 1.084.3 4.345.12 2.845-1.57 2.3 1.38 4.6.915 7.167.368.86-.184.665-1.187-1.305-1.4-2.742-.287-4.914-1.72-6.7-4 .346-.366.75.136 1.848.13 1.212-.005 1.76-.64 1.713-1.162-.035-.396-1.532-.617-1.875-.774l-3.926-1.766c-1.44-.648-2.37-.902-3.95-.756-.262.022-2.785.587-2.003 1.414"/><path d="M244.084 319.872s9.87 26.607 11.588 28.782c6.763 8.56 33.35 22.04 33.35 22.04s4.13-1.538 3.302-5.802c-8.178-3.596-23.28-20.153-26.585-22.176-2.14-1.31-11.6-33.84-11.6-33.84"/></g><path d="M248.137 290.294c-7.147-2.732-13.982-2.747-19.456-8.218-5.554 4.27 6.706 28.976 9.738 29.64 3.097.678 7.134 14.314 7.893 16.17 9.896-.262 13.515-5.658 13.515-5.658-4.04-12.414-4.763-29.288-11.7-31.934z" class="M"/><path d="M242.403 290.967c-.49-1.86-1.897-3.337-2.2-5.235-.297-1.79.053-4.092 1.05-5.632.615-.95 1.563-1.6 2.447-2.308 3.934-3.1 5.302-5.663 3.984-10.3-.43-1.517-.826-3.084-.67-4.655.144-1.42.433-2.905 1.96-3.084 1.063-.124 1.746.133 2.122 1.03.262.627-.255 5.123 1.237 2.578 1.426-2.44 2.696-2.626 2.626-8.246-.008-.668-.235-3.38.18-3.778 2.608 1.903 3.367 5.172 3.672 7.558 1.965-.83 2.517-3.657 2.52-4.735.002-2.208-.232-3.91-1.036-5.63-3.415-7.328-7.04-8.672-10.096-9.97-2.968-1.262-6.05-2.545-9.266-2.457s-7.205 1.04-8.135 3.453c-4.458-1.15-7.008 2.747-8.06 4.145-1.502 2-2.67 4.252-3.442 6.64-1.14 3.52-1.407 7.268-2.306 10.86-.73 2.924-1.984 5.948-4.247 7.994-2.17 1.963-5.224 2.145-7.583 3.947-2.996 2.285-4.67 6.08-4.506 9.866.162 3.772 2.102 7.84-.176 11.302-.74 1.124-1.78 2.024-2.5 3.155-1.68 2.61-1.436 6.207.17 8.864s4.743 5.693 7.686 6.567 5.247 1.3 8.31 1.142c5.418-.298 9.977.012 15.7-4.887 3.246-2.774 1.17-4.36 4.284-7.3 1.747-1.65 4.226-2.527 5.504-4.67 1.06-1.772 1.275-4 .834-5.998l-.053-.22z" class="F"/><path d="M361.528 108.586l.015-.482 47.83-32.82-28.358 29.364-6.18.625c-4.944.7-9.362 1.847-13.308 3.314z" fill="#d4edf5"/><path d="M361.006 125.37l.522-16.783c3.946-1.467 8.364-2.604 13.308-3.314 2.125-.305 4.18-.512 6.18-.625l-20 20.722z" fill="#cfebf3"/><path d="M336.392 99.652l50.778 20.896 22.204-45.265-72.982 24.37z" class="M"/><path d="M409.374 75.283l-54.686 31.9 6.318 18.187 4.294-13.82 44.074-36.266zm269.49 83.32l97.32 97.318 1.782-1.78-97.32-97.32" class="V"/><path d="M781.593 199.66l-50.38 7.83 38.797-41.884a11.39 11.39 0 0 0 15.993-.101 11.4 11.4 0 0 0 0-16.096 11.38 11.38 0 0 0-16.081.015c-4.438 4.438-4.453 11.643-.013 16.08l.07.073-40.702 39.974s5.937-34.808 7.946-52.095c12.603-5.88 47.413-25.03 57.133-32.308l3.172-2.356s-7.444-6.593 20.207 21.055a131.95 131.95 0 0 0-2.475 3.057c-13.198 16.72-33.67 56.755-33.67 56.755z" class="M"/><path d="M836.07 139.62l-8.455 8.455a4.05 4.05 0 0 1-5.735 0l-33.994-33.993c-1.514-1.515-1.585-3.916-.19-5.517l.19-.216 8.455-8.455c1.585-1.588 4.148-1.588 5.733 0l33.996 33.993a4.05 4.05 0 0 1 0 5.733z" class="V"/><path d="M836.07 139.62l-8.455 8.455a4.05 4.05 0 0 1-5.735 0l-33.994-33.993c-1.514-1.515-1.585-3.916-.19-5.517 26.368 29.687 35.45 19.21 37.78 14.728l10.594 10.594a4.05 4.05 0 0 1 0 5.733z" fill="#88d2d9"/><g class="V"><path d="M809.466 200.88c-12.737 12.736-29.062 19.23-44.548 19.23-13.014-.005-25.4-4.568-34.7-13.845s-13.843-21.678-13.845-34.7c-.003-15.488 6.5-31.813 19.23-44.55l-1.78-1.782c-13.198 13.198-19.97 30.143-19.97 46.332-.003 13.593 4.8 26.68 14.583 36.47s22.875 14.586 36.47 14.584c16.2-.003 33.132-6.774 46.332-19.97l-1.784-1.78zm-126.443-39.902c-1.805 1.802-4.728 1.802-6.532 0a4.62 4.62 0 0 1 0-6.529 4.62 4.62 0 0 1 6.532 0 4.62 4.62 0 0 1 0 6.529z"/><path d="M737.935 129.795a4.62 4.62 0 0 1-6.529 0 4.62 4.62 0 0 1 0-6.53 4.62 4.62 0 0 1 6.532 0 4.62 4.62 0 0 1-.003 6.53zm74.953 75.225c-1.802 1.805-4.728 1.805-6.53 0a4.62 4.62 0 0 1 0-6.529 4.62 4.62 0 0 1 6.53 0 4.62 4.62 0 0 1 0 6.529zm-32.552 53.274a4.62 4.62 0 0 1-6.53 0c-1.8-1.805-1.8-4.728 0-6.53a4.62 4.62 0 0 1 6.53 0 4.62 4.62 0 0 1 0 6.53z"/></g><path d="M572.734 3.763V106.35a3.76 3.76 0 0 0 3.762 3.763c2.077 0 3.763-1.684 3.763-3.763V3.763c0-2.077-1.686-3.763-3.763-3.763s-3.762 1.686-3.762 3.763zm128.018 27.423l-53.9 87.288c-1.1 1.767-.544 4.085 1.225 5.18s4.087.542 5.18-1.225l53.9-87.288a3.77 3.77 0 0 0-1.225-5.18c-1.767-1.095-4.087-.54-5.178 1.225zM445.835 35.14l53.9 87.288a3.77 3.77 0 0 0 5.18 1.225c1.767-1.09 2.316-3.412 1.225-5.18l-53.9-87.288c-1.1-1.766-3.4-2.316-5.178-1.225s-2.316 3.4-1.225 5.18z" fill="#ffc840"/><g class="V"><path d="M127.266 454.26l-.444-1.18-18.326 6.915-6.472-17.146 17.15-6.47 6.912 18.326 1.18-.446-.444-1.18.444 1.18 1.18-.444-7.805-20.685-21.86 8.25 8.248 21.864 21.862-8.25-.444-1.177-1.18.444z"/><path d="M132.296 430.292l-1.18.444a10.48 10.48 0 0 1 .681 3.717c0 4.256-2.598 8.268-6.82 9.858-1.227.464-2.482.683-3.717.683-4.256-.002-8.268-2.6-9.858-6.82-.462-1.227-.68-2.482-.68-3.717 0-4.257 2.598-8.27 6.82-9.86 1.227-.463 2.482-.683 3.717-.683 4.256.003 8.268 2.6 9.858 6.82l1.18-.444 1.18-.446c-1.976-5.227-6.94-8.45-12.217-8.45a13.01 13.01 0 0 0-4.607.845 13.06 13.06 0 0 0-8.45 12.217 13.03 13.03 0 0 0 .844 4.607c1.974 5.226 6.938 8.45 12.215 8.45a13.03 13.03 0 0 0 4.607-.844c5.23-1.975 8.452-6.94 8.45-12.217a13.07 13.07 0 0 0-.842-4.607l-1.18.446zm733.21-185.158l.64-6.782.164-1.222-5.08 6.222 4.276 1.782zm-.82 7.666l.436-4.403-5.983-2.492-2.815 3.412-3.752-1.56 12.653-14.07 4.256 1.77-1.048 18.9-3.747-1.56zm15.868-11.923l-6.275 15.078 1.164.484 6.275-15.075"/><path d="M870.966 255.257l7.306 3.042.486-1.164-7.308-3.042m5.793-13.91l7.306 3.042.484-1.165-7.306-3.04m-.757-7.214l-15.075-6.275-.486 1.162 15.075 6.277"/><path d="M862.592 222.216l-3.042 7.306 1.164.484 3.042-7.306m13.91 5.8l-3.042 7.3 1.164.483 3.042-7.305m-576.06 9.442l3.022-.5-.512-3.02 3-.5 2.208 13.04 5.673-8.127-5.683.962-.517-3.05.245-.04 8.394-1.416.378-.242 2.384-3.365.114-.2 1.522 1.05-.184.176-2.394 3.36-.084.38 1.472 8.677-3.037.514-.972-5.76-5.822 8.044.043.05 12.97-2.195.506 3-2.976.502.522 3.077-3.045.514-.52-3.062-11.265 1.905-1.897-11.222-3.027.512-.517-3.05zm708.8 228.572l1.6-3.68-3.68-1.6 1.588-3.655 15.9 6.906-4.863-12.04-3.007 6.923-3.715-1.613.13-.297 4.448-10.224.005-.588-1.988-5.025-.14-.267 2.24-.92.063.328 1.976 5.03.355.363 10.255 4.45.322.142-1.608 3.697-7.013-3.047 4.665 12.14.085-.01 6.865-15.804 3.657 1.6-1.578 3.626 3.75 1.628-1.613 3.7-3.732-1.623-5.963 13.727-13.674-5.943-1.602 3.7-3.72-1.616z"/></g></g><defs><path id="E" d="M721.73 585.703c-43.76 2.445-76.568 52.222-76.568 52.222s38.147 45.812 81.9 43.368 76.568-52.22 76.568-52.22-38.146-45.813-81.9-43.37z"/><path id="F" d="M361.198 634.346c49.58 42.79 136.503 23.33 136.503 23.33s6.54-88.836-43.038-131.627-136.506-23.325-136.506-23.325-6.54 88.83 43.04 131.62z"/><path id="G" d="M794.572 590.48c-44.933 40.697-124.102 26.5-124.102 26.5s-6.32-80.184 38.613-120.88 124.102-26.5 124.102-26.5 6.32 80.184-38.613 120.883z"/></defs></svg>