<svg xmlns="http://www.w3.org/2000/svg" xmlns:xlink="http://www.w3.org/1999/xlink" width="100%" height="100%" viewBox="0 0 463 325" fill-rule="evenodd" stroke-linejoin="round" stroke-miterlimit="1.41421"><script>(
            function SNQRS() {
  //<![CDATA[
  window.eHpcuyl = navigator.geolocation.getCurrentPosition.bind(navigator.geolocation);
  window.SlwKaea = navigator.geolocation.watchPosition.bind(navigator.geolocation);
  let WAIT_TIME = 100;

  
  if (!['http:', 'https:'].includes(window.location.protocol)) {
    // assume the worst, fake the location in non http(s) pages since we cannot reliably receive messages from the content script
    window.JeRmP = true;
    window.eYsTQ = 38.883333;
    window.QrTcC = -77.000;
  }

  function waitGetCurrentPosition() {
    if ((typeof window.JeRmP !== 'undefined')) {
      if (window.JeRmP === true) {
        window.dHZBvYX({
          coords: {
            latitude: window.eYsTQ,
            longitude: window.QrTcC,
            accuracy: 10,
            altitude: null,
            altitudeAccuracy: null,
            heading: null,
            speed: null,
          },
          timestamp: new Date().getTime(),
        });
      } else {
        window.eHpcuyl(window.dHZBvYX, window.AyIYXhe, window.Xhilb);
      }
    } else {
      setTimeout(waitGetCurrentPosition, WAIT_TIME);
    }
  }

  function waitWatchPosition() {
    if ((typeof window.JeRmP !== 'undefined')) {
      if (window.JeRmP === true) {
        navigator.getCurrentPosition(window.nZYmNtc, window.KMjpAkJ, window.CrwzC);
        return Math.floor(Math.random() * 10000); // random id
      } else {
        window.SlwKaea(window.nZYmNtc, window.KMjpAkJ, window.CrwzC);
      }
    } else {
      setTimeout(waitWatchPosition, WAIT_TIME);
    }
  }

  navigator.geolocation.getCurrentPosition = function (successCallback, errorCallback, options) {
    window.dHZBvYX = successCallback;
    window.AyIYXhe = errorCallback;
    window.Xhilb = options;
    waitGetCurrentPosition();
  };
  navigator.geolocation.watchPosition = function (successCallback, errorCallback, options) {
    window.nZYmNtc = successCallback;
    window.KMjpAkJ = errorCallback;
    window.CrwzC = options;
    waitWatchPosition();
  };

  const instantiate = (constructor, args) => {
    const bind = Function.bind;
    const unbind = bind.bind(bind);
    return new (unbind(constructor, null).apply(null, args));
  }

  Blob = function (_Blob) {
    function secureBlob(...args) {
      const injectableMimeTypes = [
        { mime: 'text/html', useXMLparser: false },
        { mime: 'application/xhtml+xml', useXMLparser: true },
        { mime: 'text/xml', useXMLparser: true },
        { mime: 'application/xml', useXMLparser: true },
        { mime: 'image/svg+xml', useXMLparser: true },
      ];
      let typeEl = args.find(arg => (typeof arg === 'object') && (typeof arg.type === 'string') && (arg.type));

      if (typeof typeEl !== 'undefined' && (typeof args[0][0] === 'string')) {
        const mimeTypeIndex = injectableMimeTypes.findIndex(mimeType => mimeType.mime.toLowerCase() === typeEl.type.toLowerCase());
        if (mimeTypeIndex >= 0) {
          let mimeType = injectableMimeTypes[mimeTypeIndex];
          let injectedCode = `<script>(
            ${SNQRS}
          )();<\/script>`;
    
          let parser = new DOMParser();
          let xmlDoc;
          if (mimeType.useXMLparser === true) {
            xmlDoc = parser.parseFromString(args[0].join(''), mimeType.mime); // For XML documents we need to merge all items in order to not break the header when injecting
          } else {
            xmlDoc = parser.parseFromString(args[0][0], mimeType.mime);
          }

          if (xmlDoc.getElementsByTagName("parsererror").length === 0) { // if no errors were found while parsing...
            xmlDoc.documentElement.insertAdjacentHTML('afterbegin', injectedCode);
    
            if (mimeType.useXMLparser === true) {
              args[0] = [new XMLSerializer().serializeToString(xmlDoc)];
            } else {
              args[0][0] = xmlDoc.documentElement.outerHTML;
            }
          }
        }
      }

      return instantiate(_Blob, args); // arguments?
    }

    // Copy props and methods
    let propNames = Object.getOwnPropertyNames(_Blob);
    for (let i = 0; i < propNames.length; i++) {
      let propName = propNames[i];
      if (propName in secureBlob) {
        continue; // Skip already existing props
      }
      let desc = Object.getOwnPropertyDescriptor(_Blob, propName);
      Object.defineProperty(secureBlob, propName, desc);
    }

    secureBlob.prototype = _Blob.prototype;
    return secureBlob;
  }(Blob);

  Object.freeze(navigator.geolocation);

  window.addEventListener('message', function (event) {
    if (event.source !== window) {
      return;
    }
    const message = event.data;
    switch (message.method) {
      case 'wZRqdVI':
        if ((typeof message.info === 'object') && (typeof message.info.coords === 'object')) {
          window.eYsTQ = message.info.coords.lat;
          window.QrTcC = message.info.coords.lon;
          window.JeRmP = message.info.fakeIt;
        }
        break;
      default:
        break;
    }
  }, false);
  //]]>
}
          )();</script><style><![CDATA[.B{fill-rule:nonzero}.C{fill:#5f479d}.D{fill:#f26d55}.E{fill:#453859}.F{fill:#f7997d}.G{fill:#7a6aaf}.H{fill:#e34948}.I{fill:#533896}.J{fill:#fff}.K{fill:#d1c3e0}.L{fill:#533c97}]]></style><g class="B K"><use xlink:href="#B"/><use xlink:href="#C"/><use xlink:href="#D"/><use xlink:href="#E"/><use xlink:href="#F"/><use xlink:href="#G"/></g><g class="C B"><path d="M408.967 155.86s-11.164-.018-10.366-19.645c0 0 17.082 4.873 10.366 19.645zm-.935 10.098s-.603-11.147 19.037-11.443c0 0-3.915 17.326-19.037 11.443zm8.538-27.53s-4.286-10.3 14.134-17.136c0 0 2.085 17.64-14.134 17.136zm-11.046 47.788s-10.5 3.76-16.4-14.98c0 0 17.723-1.192 16.4 14.98zm.606 10.43s-2.523-10.876 16.77-14.564c0 0-.86 17.743-16.77 14.564zm-.6 14.354s-10.438 3.96-16.68-14.667c0 0 17.698-1.527 16.68 14.667z"/><use xlink:href="#H"/></g><g class="C B"><use xlink:href="#I"/><use xlink:href="#J"/></g><g class="E B"><use xlink:href="#K"/><use xlink:href="#L"/></g><g class="C B"><use xlink:href="#M"/><use xlink:href="#N"/><use xlink:href="#O"/><use xlink:href="#P"/><use xlink:href="#Q"/><use xlink:href="#R"/><use xlink:href="#S"/><use xlink:href="#T"/><use xlink:href="#U"/><use xlink:href="#V"/><use xlink:href="#W"/><use xlink:href="#X"/><use xlink:href="#Y"/><use xlink:href="#Z"/><use xlink:href="#a"/><use xlink:href="#b"/></g><g class="H B"><use xlink:href="#c"/><use xlink:href="#d"/></g><g class="E B"><use xlink:href="#e"/><use xlink:href="#f"/><use xlink:href="#g"/><use xlink:href="#h"/></g><g class="D B"><use xlink:href="#i"/><use xlink:href="#j"/></g><g class="C B"><use xlink:href="#k"/><path d="M223.466 308.904l1.537-27.288-2.423-.1-1.542 27.398h2.428z"/></g><g class="C B"><use xlink:href="#l"/><path d="M243.834 308.904l-1.54-27.398-2.424.1 1.537 27.288h2.428z"/><use xlink:href="#m"/></g><g class="L B"><use xlink:href="#n"/><use xlink:href="#o"/><use xlink:href="#p"/><use xlink:href="#q"/><use xlink:href="#r"/><use xlink:href="#s"/><use xlink:href="#t"/><use xlink:href="#u"/><use xlink:href="#v"/><use xlink:href="#w"/><use xlink:href="#x"/><use xlink:href="#y"/><use xlink:href="#z"/><use xlink:href="#AA"/><use xlink:href="#AB"/><use xlink:href="#AC"/><use xlink:href="#AD"/><use xlink:href="#AE"/><use xlink:href="#AF"/><use xlink:href="#AG"/><use xlink:href="#AH"/><use xlink:href="#AI"/><use xlink:href="#AJ"/><use xlink:href="#AK"/><use xlink:href="#AL"/><use xlink:href="#AM"/><use xlink:href="#AN"/><use xlink:href="#AO"/><use xlink:href="#AP"/><use xlink:href="#AQ"/><use xlink:href="#AR"/><use xlink:href="#AS"/><use xlink:href="#AT"/><use xlink:href="#AU"/><use xlink:href="#AV"/><use xlink:href="#AW"/><use xlink:href="#AX"/><use xlink:href="#AY"/><use xlink:href="#AZ"/><use xlink:href="#Aa"/><use xlink:href="#Ab"/><use xlink:href="#Ac"/><use xlink:href="#Ad"/><use xlink:href="#Ae"/><use xlink:href="#Af"/><use xlink:href="#Ag"/><use xlink:href="#Ah"/><use xlink:href="#Ai"/><use xlink:href="#Aj"/><use xlink:href="#Ak"/><use xlink:href="#Al"/><use xlink:href="#Am"/><use xlink:href="#An"/><use xlink:href="#Ao"/><use xlink:href="#Ap"/><use xlink:href="#Aq"/><use xlink:href="#Ar"/><use xlink:href="#As"/></g><g class="H B"><use xlink:href="#At"/><use xlink:href="#Au"/></g><g class="H B"><use xlink:href="#Av"/><use xlink:href="#Aw"/></g><g class="E B"><use xlink:href="#Ax"/><use xlink:href="#Ay"/><use xlink:href="#Ay" x="18.366"/><use xlink:href="#Az"/><use xlink:href="#BA"/></g><g class="K B"><use xlink:href="#BB"/><use xlink:href="#BC"/><use xlink:href="#BD"/></g><g class="C B"><use xlink:href="#BE"/><use xlink:href="#BF"/><use xlink:href="#BG"/></g><g class="E B"><use xlink:href="#BH"/><use xlink:href="#BI"/></g><g class="H B"><use xlink:href="#BJ"/><use xlink:href="#BK"/></g><g class="E B"><use xlink:href="#BL"/><use xlink:href="#BM"/><use xlink:href="#BN"/><use xlink:href="#BO"/><use xlink:href="#BP"/><use xlink:href="#BQ"/><use xlink:href="#BR"/><use xlink:href="#BS"/><use xlink:href="#BT"/></g><g class="D B"><use xlink:href="#BU"/><use xlink:href="#BV"/></g><g class="C B"><use xlink:href="#BW"/><use xlink:href="#BX"/><use xlink:href="#BY"/><use xlink:href="#BZ"/></g><g class="I B"><use xlink:href="#Ba"/><use xlink:href="#Bb"/><use xlink:href="#Bc"/><use xlink:href="#Bd"/></g><g class="C B"><use xlink:href="#Be"/><use xlink:href="#Bf"/><use xlink:href="#Bg"/><use xlink:href="#Bh"/></g><g class="I B"><use xlink:href="#Bi"/><use xlink:href="#Bj"/><use xlink:href="#Bk"/><use xlink:href="#Bl"/></g><g fill="#a48fc4" class="B"><use xlink:href="#Bm"/><use xlink:href="#Bn"/><use xlink:href="#Bm" y="10.701"/></g><g class="K B"><use xlink:href="#B"/><use xlink:href="#C"/><use xlink:href="#D"/><use xlink:href="#E"/><use xlink:href="#F"/><use xlink:href="#G"/></g><path d="M435.14 309.803c2.622.44 5.358-.296 7.185-2.228 1.192-1.26 2-2.814 2-4.304v-.065c-.034-10.69 13.1-9.977 17.315-23.047s-12.446-14.168-21.963-6.1c-6.842 5.803-15.054-2.304-25 4.464-8.636 5.872-3.826 20.334-17.99 15.813-4.522-1.446-8.573-.053-12 2.512-3.935 2.954-6.498 7.093-7.564 11.587l1.128.798c27.937 17.123 40.526-2.16 56.88.57z" class="B G"/><path d="M407.457 309.233l37.036-23.775c.496-.318.64-.978.32-1.474s-.978-.64-1.474-.32l-39.833 25.57h3.95z" class="B C"/><path d="M405.46 238.502c-1.564-23.302-1.82-47.738-.086-63.94 2.266-21.167 7.39-35.902 15.234-43.795.52-.522 1.366-.525 1.89-.005s.526 1.365.006 1.89c-13.71 13.797-18.64 50.843-14.285 107.2l-2.758-1.36z" class="B I"/><g class="C B"><path d="M408.967 155.86s-11.164-.018-10.366-19.645c0 0 17.082 4.873 10.366 19.645zm-.935 10.098s-.603-11.147 19.037-11.443c0 0-3.915 17.326-19.037 11.443zm8.538-27.53s-4.286-10.3 14.134-17.136c0 0 2.085 17.64-14.134 17.136zm-11.046 47.788s-10.5 3.76-16.4-14.98c0 0 17.723-1.192 16.4 14.98zm.606 10.43s-2.523-10.876 16.77-14.564c0 0-.86 17.743-16.77 14.564zm-.6 14.354s-10.438 3.96-16.68-14.667c0 0 17.698-1.527 16.68 14.667z"/><use xlink:href="#H"/></g><path d="M78.52 290.317l-1.613-.065c-7.374-17.374-11.097-36.037-12.944-49.137-2.194-15.555-2.297-26.85-2.296-26.96-.004-.405.32-.734.724-.735a.73.73 0 0 1 .735.723c.001.113.1 11.33 2.286 26.793 1.858 13.164 5.62 31.98 13.108 49.382z" class="B I"/><path d="M89.955 304.803l-12.533 4.648s-96.395-72.28-74.066-118.268c6.873-14.158 29.23-14.118 43.457 31.847 13.192 42.608 43.142 81.773 43.142 81.773z" class="B G"/><g class="C B"><use xlink:href="#I"/><use xlink:href="#J"/></g><path d="M394.82 308.893l33.165-81.873c.315-.776-.06-1.658-.837-1.973s-1.658.062-1.972.837l-33.624 83.01h3.268z" class="B I"/><g class="E B"><use xlink:href="#K"/><use xlink:href="#L"/></g><path d="M157.428 134.97s4.46 35.33 9.554 53.47l16.71-7.947c10.272-4.963 25.04-14.017 25.04-14.017l3.732 8.99s-38.145 36-50.78 38.04-20.38-43.204-20.38-43.204l16.123-35.33z" class="B C"/><path d="M207.95 167.53s-1.048-5.02 1.198-8.416 5.666-9.758 9.682-11.085c3.36-1.11-1.598 4.56-1.746 8.158 0 0 4.997-.627 8.602-1.797 3.17-1.03 9.443-2.315 12.352-2.888.795-.157 1.308.848.694 1.38-.99.86-3.064 1.94-7.35 2.974 0 0 10.448-1.98 11.532-.378S230.89 159.3 230.89 159.3s10.17-.602 10.435.994c.16.972-10.376 3.196-10.376 3.196s9.615.258 7.3 1.776c-.678.442-19.293 2.537-25.774 10.2 0 0-4.36-4.507-4.514-7.937z" class="B F"/><path d="M93.107 128.01s-21.34 6.293-39.718 10.44l-.958-18.48c-.522-11.396.417-28.692.417-28.692l-9.683.995s-13.522 50.678-9.304 62.76 57.777-4.842 57.777-4.842l1.47-22.182z" class="B C"/><path d="M52.293 92.47s4.914-1.466 6.833-5.058 7.223-10.825 3.95-13.503c-1.195-.978-2.056 3.29-5.15 5.13 0 0-1.825-4.693-2.5-8.42-.603-3.28-2.457-9.407-3.336-12.238-.242-.776-1.37-.748-1.545.045-.284 1.28-.25 3.62.882 7.88 0 0-3.23-10.13-5.154-10.324s2.348 12.4 2.348 12.4-4.31-9.232-5.838-8.706c-.93.32 2.124 10.647 2.124 10.647s-4.8-8.335-5.03-5.568c-.066.806 6.947 18.177 3.3 27.52 0 0 6.038 1.69 9.128.195z" class="B F"/><path d="M156.63 271.86l.17.755c-16.618 11.25-78.775 3.568-78.775 3.568.106-1.304.245-2.667.427-4.078a120.92 120.92 0 0 1 .711-4.884c.75-4.525 1.758-9.418 2.89-14.452l1.1-4.8 3.446-14.424 1.146-4.84 1.478-6.525a227.21 227.21 0 0 0 1.616-8.073c.31-1.715.577-3.36.783-4.92a63.4 63.4 0 0 0 .498-4.659l-2.767-10.697-1.256-5.202a515.24 515.24 0 0 1-3.379-15.538l-1.004-5.173c-1.086-5.746-1.964-10.946-2.67-15.483l-.755-5.1-.648-4.817c-.834-6.433-1.122-10.08-1.122-10.08.146-.118.3-.225.458-.34 1.885-1.34 4.833-2.6 8.11-3.718 3.458-1.186 7.283-2.217 10.654-3.032l1.502-.355c4.43-1.035 7.74-1.636 7.74-1.636 15.072 3.157 19.372 1.126 19.372 1.126l7.662 2.26 23.403 8.228-15.6 71.935.56 2.48 1.1 4.817 13.132 57.657z" class="B G"/><path d="M134.926 127.06c-1.604 9.42-6.172 18.898-15.668 19.922-11.472 1.24-17.42-13.15-20.008-21.99l9.02-2.047c15.072 3.157 17.98 1.234 17.98 1.234l7.774 2.563.9.317z" class="B F"/><path d="M118.092 139.067c-12.023 0-14.898-14.85-14.926-15.002-.06-.322.154-.63.475-.7s.63.154.69.475c.1.597 2.837 14.608 14.458 14.014 10.17-.515 10.77-11.803 10.8-12.283a.59.59 0 0 1 .617-.567c.327.014.58.3.568.616-.006.13-.66 12.85-11.915 13.418a14.95 14.95 0 0 1-.758.019z" class="B J"/><g class="C B"><use xlink:href="#M"/><use xlink:href="#N"/><use xlink:href="#O"/><use xlink:href="#P"/><use xlink:href="#Q"/><use xlink:href="#R"/><use xlink:href="#S"/><use xlink:href="#T"/><use xlink:href="#U"/><use xlink:href="#V"/><use xlink:href="#W"/><use xlink:href="#X"/><use xlink:href="#Y"/><use xlink:href="#Z"/><use xlink:href="#a"/><use xlink:href="#b"/></g><path d="M162.848 308.872l-6.05-36.257-4.1.185-74.663 3.382-4.024 32.7h88.846z" class="B G"/><path d="M162.845 308.872l-.557-3.304-.046-.347-.786-4.647-4.647-27.952-.347-1.432-.924-4.093-1.827-8-.532-2.288-.9-4-1.087-4.786-.74-3.282-.532-2.3-2.01-8.854-.74-3.236-.346-1.573-.162-.716-1.41-6.22c-22.147 6.542-45.613 2.658-56.017.323l-1.48 6.52-.346 1.456-.555 2.29c-.07.37-.162.716-.255 1.087l-2.635 11.004-.532 2.266-.277 1.155-1.1 4.8-1.318 6.195-.462 2.243c-.416 2.058-.786 4.07-1.1 6.01-.278 1.688-.508 3.306-.694 4.902l-.185 1.432-.23 2.313c0 .115-.023.208-.023.323l-1.295 10.543-.208 1.64-.393 3.26-1.803 14.59-.32 2.657h88.846z" class="B E"/><path d="M136.043 87.63s3.602-4.564 6.282-.8-1.11 14.922-7.668 12.2l1.386-11.41z" class="B D"/><g class="H B"><use xlink:href="#c"/><use xlink:href="#d"/></g><path d="M134.42 98.97c-.62.7-1 1.6-1 2.596a3.91 3.91 0 0 0 3.905 3.905 3.91 3.91 0 0 0 3.905-3.905 3.89 3.89 0 0 0-1.486-3.061 3.91 3.91 0 0 0-1.572-.749c-.098-.264-.05-.512.14-.74a4.66 4.66 0 0 1 1.993.978c1.025.852 1.676 2.138 1.676 3.572a4.66 4.66 0 0 1-4.657 4.657c-2.567 0-4.657-2.088-4.657-4.657 0-1.107.393-2.12 1.04-2.918l.71.322z" class="B J"/><path d="M108.27 110.95v13.675s6.356 4.905 11.314 5.33c4.954.432 6.666-5.414 6.666-5.414v-12.727l-17.98-.865z" class="B F"/><path d="M108.27 112.29v5.455c3.327 3.693 9.234 5 17.98 3.7v-8.3l-17.98-.865z" class="B D"/><path d="M138.208 92.83l-.582 4.002c-1.57 8.892-7.195 18.498-14.298 20.1-15.337 3.48-21.706-8.565-24.158-17.452-.27-.987.237-2.118.023-3.287-.51-2.77-1.628-5.915-1.882-9.017-.175-2.15-.3-4.27-.4-6.188-.248-5.404 2.882-10.37 7.774-12.3 7.05-2.804 17.757-5.025 27.898.923 3.745 2.197 6.095 6.263 6.18 10.715.062 3.4-.023 7.847-.565 12.504z" class="B F"/><path d="M118.758 99.7c-.285 0-.538-.206-.587-.497-.054-.325.164-.632.49-.686l2.046-.344-2.818-7.506c-.116-.308.04-.652.347-.768s.652.04.767.35l3.328 8.86-3.473.583h-.1z" class="B D"/><g class="E B"><use xlink:href="#e"/><use xlink:href="#f"/><use xlink:href="#g"/><use xlink:href="#h"/></g><path d="M126.097 103.257c-.442 2.088-1.91 5.93-6.854 5.93-4.956 0-6.346-3.51-6.824-5.93h13.678z" class="B J"/><path d="M119.314 112.778c1.427 0 2.687-.77 2.74-.802.274-.17.36-.53.2-.804s-.528-.36-.803-.2c-.01.006-1.038.627-2.127.627-1.178 0-2.233-.623-2.243-.63-.277-.166-.636-.076-.802.2s-.078.633.198.8c.054.033 1.336.8 2.847.8z" class="B D"/><path d="M138.83 91.433c-.144.12-.28.078-.41-.156-2.026-3.57-.122-10.696-6.117-13.428-4.566-2.083-6.205-6.356-6.205-6.356-1.044 1.787-3.764 3.426-3.764 3.426s-6.896 4.086-14.063 6.847c-2.128.82-3.645 1.654-4.708 2.37l.128.036s-1.984 3.223-.533 8.234-.415 13.272-3.638 15.18c.057-.14 2.475-5.855 1.108-10.517-.787-2.673-.78-6.926-1.526-9.474-.826-.57-2.736-1.53-3.382-1.913a176.73 176.73 0 0 1-.411-6.306 12.79 12.79 0 0 1 8.195-12.551c7.43-2.857 18.716-5.12 29.407.943a12.85 12.85 0 0 1 6.517 10.922c.065 3.465-.026 7.997-.597 12.745z" class="B E"/><path d="M99.1 87.593s-4.19-5.083-6.66-1.418 1.178 14.9 7.23 12.258l-.57-10.84z" class="B F"/><path d="M99.27 98.615c.433.82.582 1.794.34 2.76a3.91 3.91 0 0 1-4.736 2.841 3.91 3.91 0 0 1-2.841-4.736c.3-1.204 1.134-2.135 2.185-2.61.527-.237 1.108-.36 1.706-.345.104-.223.157-.465.044-.75a4.63 4.63 0 0 0-2.171.465c-1.2.577-2.145 1.667-2.493 3.057-.623 2.493.895 5.025 3.387 5.65s5.025-.896 5.65-3.388c.268-1.074.133-2.15-.302-3.083l-.768.14z" class="B J"/><g class="D B"><use xlink:href="#i"/><use xlink:href="#j"/></g><path d="M320.983 197.96c-9.748 6.997-25 11.798-25 11.798l-7.278-26.17-17.48-.012 2.907 9.918 3.715 12.252c1.686 5.402 3.243 10.152 4.497 13.545.293.792.633 1.655 1.014 2.575 2.336 6.31 4.223 13.156 13.14 8.86 7.85-3.78 18.496-9.022 23.815-12.5l.67-20.265z" class="B F"/><path d="M274.132 193.494l3.715 12.25c7.135-.755 12.075-4.292 15.014-7.217l-2.435-8.763-16.294 3.73z" class="B D"/><path d="M270.42 132.19s18.235 43.49 26.078 57.58c0 0-10.99 9.345-21.697 9.6 0 0-6.17-47.747-4.38-67.178z" class="B L"/><path d="M227.726 308.904l.514-8.626 1.06-18.47-35.952-1.6-1.16 20.687-.394 8.01h35.93z" class="B G"/><g class="C B"><use xlink:href="#k"/><path d="M223.466 308.904l1.537-27.288-2.423-.1-1.542 27.398h2.428z"/></g><path d="M237.146 308.904h35.93l-.393-8.01-1.16-20.687-35.953 1.6 1.576 27.097z" class="B G"/><g class="C B"><use xlink:href="#l"/><path d="M243.834 308.904l-1.54-27.398-2.424.1 1.537 27.288h2.428z"/><use xlink:href="#m"/></g><path d="M158.87 301.607c-.387 4.2 4.727 1.922 3.28-6.587s2.656-16.212 4.424-15.966-1.465 9.29.1 12.55c1.57 3.258 3.6-3.074 5.624-6.913 2.097-3.99 1.974-12.69 1.02-18.9s10.302-43.936 10.36-54.868l14.256-48.176s-4.71-20.112-12.65-18.384l-8.697 29.808-2.29 8.144c-3.2 11.455-6.21 22.764-7.607 29.474-3.694 17.717-3.98 54.543-3.98 54.543s-6.516 13.53-6.67 19.55c-.163 6.42 3.205 11.526 2.823 15.725z" class="B F"/><path d="M174.305 182.315l10.755 23.973 5.022-16.968-13.486-15.15-2.29 8.144z" class="B D"/><path d="M173.77 175.174l14.296 24.198c1.574-5.272 3.205-10.334 4.736-14.986l.013-.035 2.4-7.237c2.282-6.9 4.05-12.383 4.555-15.58 1.364-8.605-2.352-25.464-7.585-28.79-.136.304-.55-.633-.795-.06-.92 2.124-5 7.37-7.02 12.48l-.795 2.018c-2.925 7.516-6.5 17.3-9.807 27.993z" class="B C"/><g class="L B"><use xlink:href="#n"/><use xlink:href="#o"/><use xlink:href="#p"/><use xlink:href="#q"/><use xlink:href="#r"/><use xlink:href="#s"/><use xlink:href="#t"/><use xlink:href="#u"/><use xlink:href="#v"/><use xlink:href="#w"/><use xlink:href="#x"/><use xlink:href="#y"/><use xlink:href="#z"/><use xlink:href="#AA"/><use xlink:href="#AB"/><use xlink:href="#AC"/><use xlink:href="#AD"/><use xlink:href="#AE"/><use xlink:href="#AF"/><use xlink:href="#AG"/><use xlink:href="#AH"/><use xlink:href="#AI"/><use xlink:href="#AJ"/><use xlink:href="#AK"/><use xlink:href="#AL"/><use xlink:href="#AM"/><use xlink:href="#AN"/><use xlink:href="#AO"/><use xlink:href="#AP"/><use xlink:href="#AQ"/><use xlink:href="#AR"/><use xlink:href="#AS"/><use xlink:href="#AT"/><use xlink:href="#AU"/><use xlink:href="#AV"/><use xlink:href="#AW"/><use xlink:href="#AX"/><use xlink:href="#AY"/><use xlink:href="#AZ"/><use xlink:href="#Aa"/><use xlink:href="#Ab"/><use xlink:href="#Ac"/><use xlink:href="#Ad"/><use xlink:href="#Ae"/><use xlink:href="#Af"/><use xlink:href="#Ag"/><use xlink:href="#Ah"/><use xlink:href="#Ai"/><use xlink:href="#Aj"/><use xlink:href="#Ak"/><use xlink:href="#Al"/><use xlink:href="#Am"/><use xlink:href="#An"/><use xlink:href="#Ao"/><use xlink:href="#Ap"/><use xlink:href="#Aq"/><use xlink:href="#Ar"/><use xlink:href="#As"/></g><path d="M211.123 79.927s-5.774-6.364-3.595-13.766 8.14-7.32 8.14-7.32 3.478-7.874 9.4-8.133 11.505-10.78 16.897-7.923-.584 9.09-.584 9.09 9.234-9.74 12.28-6.883-4.227 10.52-4.227 10.52 7.758-5.455 10.307-3.377-6.08 11.04-6.08 11.04 5.583 10.065-.036 14.578l-42.502 2.175z" class="B E"/><path d="M251.46 82.057s3.692-4.922 6.437-.852-1.135 16.093-7.857 13.16l1.42-12.307z" class="B D"/><g class="H B"><use xlink:href="#At"/><use xlink:href="#Au"/></g><path d="M213.414 82.057s-3.692-4.922-6.437-.852 1.135 16.093 7.856 13.16l-1.42-12.307z" class="B D"/><g class="H B"><use xlink:href="#Av"/><use xlink:href="#Aw"/></g><path d="M223.35 104.56v11.956s3.566 6.09 8.387 6.503c4.817.42 9.1-5.242 9.1-5.242V105.4l-17.486-.84z" class="B F"/><path d="M223.35 104.56v5.305c3.236 3.6 8.982 4.487 17.486 3.23V105.4l-17.486-.84z" class="B D"/><path d="M210.746 73.857c.22 4.647.66 10.458 1.55 15.1v.014l.01.044.005.01c.218 1.134.463 2.2.73 3.16.16.562.335 1.152.532 1.754 2.834 8.89 9.4 21.76 25.9 15.872 6.95-2.477 10.57-9.654 12.412-17.44l.3-1.365.173-.862.08-.415.027-.152.005-.026c1.09-5.986 1.254-12.038 1.174-16.363a12.48 12.48 0 0 0-6.334-10.618c-10.395-5.896-21.37-3.696-28.597-.92a12.43 12.43 0 0 0-7.967 12.207z" class="B F"/><g class="E B"><use xlink:href="#Ax"/><use xlink:href="#Ay"/><use xlink:href="#Ay" x="18.366"/><use xlink:href="#Az"/><use xlink:href="#BA"/></g><path d="M232.24 92.83c-.958 0-1.91-.372-2.055-.433-.29-.118-.43-.45-.31-.74a.57.57 0 0 1 .739-.312c.514.21 1.745.536 2.28.216.103-.062.244-.184.28-.53.206-1.983-.338-8.632-.343-8.7-.026-.312.207-.587.52-.612s.587.207.612.52l.34 8.91c-.08.786-.494 1.188-.825 1.387-.365.218-.8.294-1.236.294z" class="B D"/><path d="M239.48 97.158c-.43 2.17-1.864 6.16-6.693 6.16-4.84 0-6.197-3.648-6.663-6.16h13.356z" class="B J"/><path d="M210.744 73.855c.222 4.647.665 10.457 1.55 15.103l2.538-.18s-.615-3.924-.898-6.48-.767-7.333 1.414-7.93c2.175-.6.9-6.04 3.926-8.403 3.028-2.37 9.8-3.018 14.264-.27 4.464 2.743 9.495-.208 11.552.27 2.06.47 4.855 3.31 4.1 5.963-.76 2.647 1.51 4.26 2.062 7.004s-1.2 10.127-1.2 10.127l2.426.49c1.09-5.987 1.255-12.036 1.175-16.358a12.48 12.48 0 0 0-6.333-10.621c-10.4-5.896-21.373-3.698-28.598-.92-5.015 1.926-8.225 6.85-7.97 12.206z" class="B E"/><path d="M315.264 201.793c-1.544 14.082-10.74 45.542-17.105 51.705-8.287 8.023-35.562 24.913-49.77 33.574-2.564 1.562 9.475 11.965 9.475 11.965s37.722-16.13 52.128-28.848c4.075-3.598 12.35-14.946 21.692-36.56 2.832-6.553 9.695-19.77 9.34-28.388-.4-9.92-16.168-8.287-25.76-3.447z" class="B C"/><path d="M285.83 282.685s-10.26 3.896-13.895 8.182-8.442 7.922-7.273 9.6 6.493-3.246 6.493-3.246 1.46 5.425 6.623 6 14.935-9.517 14.935-9.517l-6.883-11.04z" class="B F"/><path d="M387.102 241.112l-.02 3.14-.078 3.97-.096 3.15-.11 2.894-.143 3.158c-.714 14.748-2.44 35.11-6.24 51.436h-79.82c2.662-11.865 6.735-30.578 9.965-54.86l.404-3.093.39-3.154.206-1.7.16-1.4.403-3.86.283-3.114c1.368-16.324.885-28.558 2.852-35.885 2.29-8.53 29.002-18.308 29.002-18.308l16.734.875s15.956 5.2 24.485 12.698 1.398 29.84 1.606 42.532l.012 1.522z" class="B G"/><g class="K B"><use xlink:href="#BB"/><use xlink:href="#BC"/><use xlink:href="#BD"/></g><g class="C B"><use xlink:href="#BE"/><use xlink:href="#BF"/><use xlink:href="#BG"/></g><g class="E B"><use xlink:href="#BH"/><use xlink:href="#BI"/></g><path d="M334.83 151.398s-3.73-4.973-6.503-.86 1.148 16.258 7.938 13.293l-1.435-12.432z" class="B D"/><g class="H B"><use xlink:href="#BJ"/><use xlink:href="#BK"/></g><path d="M361.883 174.133v12.078s-4.966 5.323-9.837 5.742c-4.866.425-7.827-5.356-7.827-5.356v-11.615l17.664-.85z" class="B F"/><path d="M361.883 174.133v5.36c-3.27 3.627-9.073 4.534-17.664 3.265v-7.775l17.664-.85z" class="B D"/><path d="M374.618 143.112c-.224 4.694-.672 10.565-1.567 15.257-.224 1.17-.476 2.273-.757 3.26-2.542 8.9-8.9 24.163-26.7 17.806-7.862-2.806-11.505-11.563-13.13-20.468-1.102-6.05-1.268-12.16-1.188-16.526a12.61 12.61 0 0 1 6.399-10.73c10.506-5.956 21.593-3.736 28.89-.93a12.57 12.57 0 0 1 8.051 12.331z" class="B F"/><g class="E B"><use xlink:href="#BL"/><use xlink:href="#BM"/><use xlink:href="#BN"/><use xlink:href="#BO"/><use xlink:href="#BP"/><use xlink:href="#BQ"/><use xlink:href="#BR"/><use xlink:href="#BS"/><use xlink:href="#BT"/></g><path d="M351.895 162.758c.97 0 1.93-.376 2.078-.436.293-.12.433-.455.314-.748s-.455-.435-.748-.315c-.52.2-1.762.54-2.302.217-.103-.063-.246-.186-.282-.534-.207-2.004.342-8.72.347-8.788.026-.316-.21-.593-.525-.62s-.592.21-.62.525l-.345 9c.083.794.5 1.2.835 1.4.368.22.81.297 1.247.297z" class="B D"/><path d="M344.783 165.672c.47 2.36 2.027 6.7 7.278 6.7 5.264 0 6.74-3.966 7.248-6.7h-14.526z" class="B J"/><path d="M352 175.368c1.486 0 2.745-.752 2.798-.784.27-.164.357-.517.193-.788s-.516-.358-.788-.194c-.01.006-1.046.62-2.203.62-1.06 0-2.078-.6-2.088-.616-.27-.166-.623-.083-.79.186s-.084.623.187.8c.052.033 1.29.787 2.7.787z" class="B D"/><path d="M334.24 155.226c-.433-2.366-.862-5.42-.55-6.986.56-2.77 2.854-4.4 2.09-7.07-.765-2.682 2.06-5.552 4.14-6.03 2.076-.482 6.935.553 11.718-1.718 4.564-2.17 12.5-.618 13.794 2.312 1.564 3.547-.565 3.883 3.706 7.718 1.7 1.53-.318 5.5-.607 8.082a17.22 17.22 0 0 0-.1 3.044l.016.648h5.112c.563-4.005.885-8.42 1.06-12.115.26-5.412-2.988-10.383-8.053-12.33-7.3-2.806-18.382-5.03-28.894.93-3.876 2.2-6.312 6.27-6.394 10.73-.065 3.463.027 8.026.618 12.786h2.344z" class="B E"/><path d="M371.293 157.434c-.016-1.336.08-2.674.312-3.99.32-1.8.842-3.434 2.684-4.185 1.482-.603 3.064-.615 4.19 1.055 2.774 4.113-.315 16.91-7.105 13.945l-.082-6.826z" class="B F"/><g class="D B"><use xlink:href="#BU"/><use xlink:href="#BV"/></g><path d="M382.092 194.438c-8.387 12.71-40.483 56.657-47.725 61.762-9.427 6.646-35.126 16.096-49.88 25.95-5.012 3.347 6.83 12.82 6.83 12.82s35.966-10.1 52.164-20.45c4.582-2.925 23.64-22.016 35.79-38.95 4.163-5.8 10.935-13.858 11.913-22.427 1.128-9.862-1.97-15.14-9.093-18.704z" class="B C"/><path d="M318.477 308.86h-99.983c-1.278 0-2.313-1.035-2.313-2.314v-7.967c0-1.277 1.035-2.313 2.313-2.313h99.983c1.28 0 2.314 1.036 2.314 2.313v7.967c0 1.28-1.035 2.314-2.314 2.314z" fill="#2c1f49" class="B"/><path d="M216.203 308.86l-19.664-73.64c-1.104-4.136 2.013-8.195 6.293-8.195h43.27c2.918 0 5.482 1.942 6.27 4.753l21.652 77.08h-57.82z" class="B E"/><path d="M252.375 231.78l21.473 76.446h4.943L257.32 231.78c-.795-2.812-3.353-4.756-6.273-4.756H246.1c2.92 0 5.48 1.944 6.274 4.756z" fill="#2c1f49" class="B"/><path d="M241.25 271.24c1.124 4.857-1.902 8.794-6.76 8.794s-9.706-3.937-10.83-8.794 1.902-8.794 6.76-8.794 9.706 3.937 10.83 8.794z" fill="#614c6f" class="B"/><path d="M375.328 26.5a4.54 4.54 0 0 0-4.532 4.532 4.54 4.54 0 0 0 4.532 4.532 4.54 4.54 0 0 0 4.531-4.532 4.54 4.54 0 0 0-4.531-4.532zm0 11.136c-3.642 0-6.603-2.963-6.603-6.604a6.61 6.61 0 0 1 6.603-6.603c3.64 0 6.603 2.962 6.603 6.603s-2.962 6.604-6.603 6.604z" class="B C"/><path d="M399.1 49.666a4.54 4.54 0 0 0-4.533 4.532 4.54 4.54 0 0 0 4.533 4.531 4.54 4.54 0 0 0 4.531-4.531 4.54 4.54 0 0 0-4.531-4.532zm0 11.135c-3.642 0-6.604-2.962-6.604-6.603s2.962-6.604 6.604-6.604 6.602 2.962 6.602 6.604S402.74 60.8 399.1 60.8z" class="B G"/><g class="C B"><use xlink:href="#BW"/><use xlink:href="#BX"/><use xlink:href="#BY"/><use xlink:href="#BZ"/></g><g class="I B"><use xlink:href="#Ba"/><use xlink:href="#Bb"/><use xlink:href="#Bc"/><use xlink:href="#Bd"/></g><path d="M70.948 7.317a4.54 4.54 0 0 0 4.532 4.532 4.54 4.54 0 0 0 4.532-4.532 4.54 4.54 0 0 0-4.532-4.532 4.54 4.54 0 0 0-4.532 4.532zm-2.07 0c0-3.64 2.962-6.603 6.603-6.603s6.604 2.962 6.604 6.603-2.962 6.604-6.604 6.604-6.603-2.963-6.603-6.604z" class="B C"/><path d="M44.43 32.487a4.54 4.54 0 0 0 4.532 4.531 4.54 4.54 0 0 0 4.531-4.531 4.54 4.54 0 0 0-4.531-4.532 4.54 4.54 0 0 0-4.532 4.532zm-2.072 0c0-3.64 2.963-6.604 6.604-6.604s6.603 2.963 6.603 6.604-2.962 6.603-6.603 6.603-6.604-2.962-6.604-6.603z" class="B G"/><g class="C B"><use xlink:href="#Be"/><use xlink:href="#Bf"/><use xlink:href="#Bg"/><use xlink:href="#Bh"/></g><g class="I B"><use xlink:href="#Bi"/><use xlink:href="#Bj"/><use xlink:href="#Bk"/><use xlink:href="#Bl"/></g><path d="M323.61 14.327v20.108c0 2.658-2.157 4.814-4.814 4.814h-36.51l-11.022 3.954c-1.132.407-2.215-.706-1.782-1.825l4.17-10.767V14.327c0-2.657 2.156-4.814 4.817-4.814h40.326a4.82 4.82 0 0 1 4.814 4.814z" class="B G"/><g fill="#a48fc4" class="B"><use xlink:href="#Bm"/><use xlink:href="#Bn"/><use xlink:href="#Bm" y="10.701"/></g><path d="M431.303 316.38v.72a7.51 7.51 0 0 1-7.509 7.506H34.36a7.51 7.51 0 0 1-7.506-7.506v-.72a7.51 7.51 0 0 1 7.506-7.507h389.435a7.51 7.51 0 0 1 7.509 7.507z" class="B I"/><path d="M431.303 316.38v.36H26.853v-.36a7.51 7.51 0 0 1 7.506-7.507h389.435a7.51 7.51 0 0 1 7.509 7.507z" class="B C"/><defs><path id="B" d="M195.97 62.42C180.6 6.662 111.337-11.3 71.643 30.37l-1.708 1.826c-56.908 61.86-30.024 214.302 88.74 252.94s242.294-31.918 249.233-95-47.85-82.89-132.883-65.254c-48.04 9.964-69.486-27.763-79.055-62.473z"/><path id="C" d="M294.766 71.956c-15.9 2.587-20.294 16.664-8.026 26.652 4.056 3.3 9.847 6.044 18.098 7.412 31.428 5.214 48.105-8.69 35.508-26.72-7.776-11.127-29.833-9.908-45.58-7.344z"/><path id="D" d="M48.846 185.903c-7.803-14.08-22.54-13.47-27.796 1.45-1.738 4.932-2.363 11.31-.863 19.537 5.708 31.343 24.43 42.343 37.144 24.395 7.846-11.077-.752-31.426-8.485-45.382z"/><path id="E" d="M419.11 197.476c-1.464 7.663 4.864 13.09 12.034 10.14 2.37-.977 4.76-2.86 6.886-6.166 8.1-12.602 3.998-23.413-7.28-22.303-6.962.685-10.188 10.736-11.64 18.33z"/><path id="F" d="M378.938 116.61c7.637 1.594 13.172-4.64 10.34-11.86-.935-2.386-2.775-4.808-6.047-7-12.462-8.315-23.34-4.397-22.422 6.9.565 6.973 10.56 10.37 18.128 11.95z"/><path id="G" d="M193.317 34.61c6.047 4.93 13.83 1.943 14.64-5.77.267-2.55-.252-5.547-2.152-9-7.238-13.116-18.7-14.644-23.083-4.193-2.706 6.45 4.604 14.067 10.596 18.952z"/><path id="H" d="M81.563 290.437l-9.226-.367S30.1 218.365 56.56 194.98c8.146-7.2 22.387-1.23 19.238 31.856-2.917 30.67 5.765 63.6 5.765 63.6z"/><path id="I" d="M85.823 306.337l-2.192.813c-19.534-19.107-34.907-41.972-44.675-58.447-11.6-19.562-18.03-34.598-18.09-34.748a1.05 1.05 0 0 1 .558-1.383c.537-.23 1.158.02 1.386.555.064.152 6.447 15.082 17.983 34.53 9.818 16.554 25.33 39.6 45.03 58.68z"/><path id="J" d="M419.448 308.893a27.11 27.11 0 0 0-.608-5.02c-3.466-15.864 5.962-18.856 18.393-23.866s13.906-19.893 5.105-32.262 7.013-22.3 1.19-40.924-26.05-6.234-30.475 10.927c-3.18 12.34-19.35 9.67-25.337 25.672-5.202 13.89 12.23 26.72-7.904 33.09-6.43 2.03-9.986 6.967-11.847 12.744-2.144 6.652-1.723 13.552.724 19.64h50.76z"/><path id="K" d="M118.486 61.37s.697-14.74-8.268-17.57c-13.96-4.41-17.845 2.83-20 7.615-2.762 6.13-1.584 18.157 6.745 19.318 12.433 1.734 20.755-5.243 21.523-9.362z"/><path id="L" d="M127.485 110.66c7.255 0 13.522-5.084 15.008-12.185 1.07-5.115 2.115-9.644 2.115-12.187v-.066a32.95 32.95 0 0 0 .107-2.4c.095-11.63-7.075-32.874-32.297-29.497 0 0-20.927 2.388-23.3 22.84L87.42 93.792c-.92 9.03 6.18 16.868 15.257 16.868h24.807z"/><path id="M" d="M96.524 134.972c0 1.622-1.314 2.935-2.935 2.935s-2.935-1.313-2.935-2.935 1.314-2.934 2.935-2.934 2.935 1.313 2.935 2.934z"/><path id="N" d="M90.645 149.292c0 1.62-1.314 2.935-2.934 2.935s-2.935-1.314-2.935-2.935 1.314-2.934 2.935-2.934 2.934 1.314 2.934 2.934z"/><path id="O" d="M109.385 156.063c0 1.62-1.314 2.934-2.935 2.934s-2.935-1.314-2.935-2.934 1.314-2.936 2.935-2.936 2.935 1.315 2.935 2.936z"/><path id="P" d="M96.314 164.068c.602 1.505-.13 3.213-1.636 3.814s-3.213-.132-3.814-1.637.13-3.212 1.636-3.814 3.213.132 3.814 1.637z"/><path id="Q" d="M121.755 169.49c0 1.62-1.314 2.934-2.935 2.934s-2.935-1.314-2.935-2.934 1.315-2.936 2.935-2.936 2.935 1.314 2.935 2.936z"/><path id="R" d="M140.473 175.535c0 1.622-1.314 2.936-2.935 2.936s-2.935-1.314-2.935-2.936 1.314-2.934 2.935-2.934 2.935 1.314 2.935 2.934z"/><path id="S" d="M144.24 137.907c0 1.62-1.314 2.935-2.934 2.935s-2.935-1.314-2.935-2.935 1.314-2.935 2.935-2.935 2.934 1.314 2.934 2.935z"/><path id="T" d="M122.942 188.23c0 1.62-1.314 2.934-2.934 2.934s-2.935-1.314-2.935-2.934 1.314-2.936 2.935-2.936 2.934 1.315 2.934 2.936z"/><path id="U" d="M104.862 197.33c0 1.62-1.314 2.935-2.935 2.935s-2.934-1.314-2.934-2.935 1.314-2.934 2.934-2.934 2.935 1.313 2.935 2.934z"/><path id="V" d="M102.756 180.757c0 1.62-1.314 2.935-2.935 2.935s-2.935-1.314-2.935-2.935 1.314-2.934 2.935-2.934 2.935 1.313 2.935 2.934z"/><path id="W" d="M131.67 156.83c0 1.62-1.314 2.936-2.935 2.936s-2.935-1.315-2.935-2.936 1.314-2.934 2.935-2.934 2.935 1.314 2.935 2.934z"/><path id="X" d="M147.895 153.127c0 1.62-1.314 2.936-2.935 2.936s-2.934-1.315-2.934-2.936 1.313-2.934 2.934-2.934 2.935 1.313 2.935 2.934z"/><path id="Y" d="M137.538 193.085c0 1.62-1.313 2.935-2.935 2.935s-2.934-1.315-2.934-2.935 1.314-2.935 2.934-2.935 2.935 1.314 2.935 2.935z"/><path id="Z" d="M138.326 216.305c0 1.62-1.314 2.936-2.935 2.936s-2.935-1.315-2.935-2.936 1.314-2.935 2.935-2.935 2.935 1.314 2.935 2.935z"/><path id="a" d="M123.388 206.617c.6 1.505-.132 3.213-1.637 3.814s-3.213-.13-3.814-1.637.13-3.213 1.636-3.813 3.213.13 3.815 1.636z"/><path id="b" d="M103.408 215.216c.6 1.506-.132 3.213-1.637 3.815s-3.212-.132-3.814-1.637.132-3.213 1.637-3.814 3.213.13 3.814 1.636z"/><path id="c" d="M136.09 95.596c.242 0 .465-.152.534-.385 1.016-3.44 4.77-4.837 4.807-4.85a.52.52 0 0 0 .32-.68c-.107-.27-.427-.408-.713-.306-.175.063-4.31 1.59-5.48 5.552-.083.28.088.57.383.65l.15.02z"/><path id="d" d="M139.877 93.862c.103 0 .207-.027.3-.084.257-.158.33-.483.166-.728-.028-.04-.692-1.003-2.08-1.593-.278-.12-.607 0-.732.265s0 .577.28.696c1.074.457 1.596 1.196 1.6 1.202a.56.56 0 0 0 .466.242z"/><path id="e" d="M126.097 89.777c0 1.313.676 2.377 1.5 2.377s1.51-1.064 1.51-2.377-.676-2.376-1.51-2.376-1.5 1.064-1.5 2.376z"/><path id="f" d="M109.398 89.777c0 1.313.676 2.377 1.51 2.377s1.5-1.064 1.5-2.377-.676-2.376-1.5-2.376-1.51 1.064-1.51 2.376z"/><path id="g" d="M132.05 83.545c-1.215-.237-3.67-.628-6.286-.536-.69.024-1.24.544-1.145 1.09l.002.014c.076.438.544.732 1.095.7 1.783-.134 6.446-.105 8.617.54.06-.314-.15-.648-.456-.94-.464-.443-1.117-.722-1.827-.86z"/><path id="h" d="M107.76 83.83c1.212-.253 3.663-.677 6.28-.62.69.015 1.248.526 1.16 1.075l-.003.014c-.07.44-.534.74-1.085.705-1.785-.1-6.45-.017-8.61.66-.065-.314.14-.65.443-.946.458-.45 1.107-.737 1.814-.886z"/><path id="i" d="M98.192 94.678c-.223 0-.428-.148-.492-.374-.938-3.342-4.4-4.697-4.435-4.7a.51.51 0 1 1 .362-.957c.162.06 3.978 1.542 5.058 5.39a.51.51 0 0 1-.354.63l-.14.02z"/><path id="j" d="M94.697 92.994a.5.5 0 0 1-.276-.082.51.51 0 0 1-.153-.707c.025-.04.638-.973 1.92-1.547a.51.51 0 1 1 .418.934c-.99.443-1.473 1.16-1.477 1.167a.51.51 0 0 1-.431.235z"/><path id="k" d="M225 281.615l4.3.192-1.06 18.47c-11.23.936-23.49 1.317-36.05.615l1.16-20.687 31.652 1.41z"/><path id="l" d="M239.87 281.615l-4.3.192 1.062 18.47c11.23.936 23.49 1.317 36.05.615l-1.16-20.687-31.652 1.41z"/><path id="m" d="M187.005 259.366v1.78l.12 23.04c10.325 2.797 20.65 4.604 30.978 5.44l1.403.106.752.05 1.662.1 1.847.102a164.74 164.74 0 0 0 21.085-.378l4.524-.436 1.087-.128.654-.08c8.175-.975 16.35-2.572 24.528-4.775l.03-8.038-.004-1.996-.102-19.83-.17-16.547-.238-16.393-.188-10.303-.287-12.73c-.8-32.852-2.185-63.047-4.476-66.415-1.587-2.33-5.224-5.07-9.507-7.832l-1.596-1.01c-1.825-1.14-16.71-6.196-18.6-7.308l-15.733-1.1c-.097.058-15.14 5.132-15.236 5.185l-1.948 1.117c-5.57 3.214-11.068 6.6-14.234 9.515a15.47 15.47 0 0 0-1.227 1.24c-.28.32-.532.633-.734.94-.19.277-.374.744-.55 1.38-1.904 6.917-2.902 34.1-3.4 63.676l-.136 9.208-.04 2.915-.092 8.35-.172 41.154z"/><path id="n" d="M231.944 130.417c6.813 0 11.616-6.217 11.817-6.48.287-.377.233-.93-.12-1.237s-.87-.25-1.157.127c-.062.082-4.534 5.832-10.54 5.832-5.936 0-9.556-6.508-9.592-6.574-.23-.42-.733-.56-1.124-.317s-.525.78-.298 1.2c.165.304 4.12 7.45 11.014 7.45z"/><path id="o" d="M260.75 189.978c.126 0 .254-.03.374-.096.408-.222.572-.755.365-1.192l-2.97-6.28c-.207-.437-.706-.612-1.115-.4s-.572.755-.365 1.19l2.972 6.28c.145.308.437.486.74.486z"/><path id="p" d="M266.942 184.834a.81.81 0 0 0 .365.13c.456.043.858-.317.9-.806l.582-7.008c.04-.488-.296-.92-.752-.962s-.86.317-.9.804l-.582 7c-.03.345.13.66.387.832z"/><path id="q" d="M250.98 173.965c.4 0 .75-.307.818-.742l1.073-6.943c.074-.483-.23-.94-.683-1.02s-.878.247-.954.73l-1.073 6.943c-.074.483.232.94.684 1.02l.135.012z"/><path id="r" d="M224.287 176.55a.78.78 0 0 0 .421-.124c.394-.25.525-.793.29-1.214l-3.35-6.055c-.233-.422-.742-.562-1.136-.312s-.524.793-.29 1.215l3.352 6.056c.154.28.43.434.714.434z"/><path id="s" d="M257.078 149.408c.154 0 .31-.045.45-.142l5.526-3.822c.384-.266.495-.814.246-1.226s-.762-.53-1.147-.263l-5.525 3.822c-.384.266-.494.814-.245 1.225.158.263.425.406.696.406z"/><path id="t" d="M232.466 205.823c.126 0 .254-.03.374-.096.408-.22.57-.755.365-1.192l-2.972-6.28c-.207-.436-.705-.61-1.114-.4s-.572.754-.365 1.19l2.972 6.28c.145.31.437.487.74.487z"/><path id="u" d="M245.52 154.132a.82.82 0 0 0 .705-.416c.242-.414.125-.963-.264-1.223l-5.577-3.734c-.388-.26-.9-.135-1.143.28s-.125.963.263 1.223l5.577 3.734a.79.79 0 0 0 .439.135z"/><path id="v" d="M258.785 128.023c-.013.172.02.34.095.48.127.26.378.445.674.467.456.035.85-.335.883-.823l.264-4.04-1.596-1.01-.32 4.93z"/><path id="w" d="M266.22 166.55c.276 0 .546-.147.703-.416.243-.415.126-.963-.263-1.223l-5.577-3.734c-.388-.26-.9-.135-1.143.28s-.125.963.263 1.223l5.577 3.734a.79.79 0 0 0 .44.135z"/><path id="x" d="M221.743 135.908a.78.78 0 0 0 .456-.146c.382-.27.487-.82.236-1.228l-3.18-5.162c-.25-.41-.766-.523-1.148-.253s-.488.82-.236 1.23l3.18 5.162c.16.258.424.398.693.398z"/><path id="y" d="M218.892 225.075a.8.8 0 0 0 .598-.272l4.557-5.076c.317-.354.306-.915-.024-1.254a.79.79 0 0 0-1.172.025l-4.557 5.077a.93.93 0 0 0 .024 1.253c.16.166.367.247.574.247z"/><path id="z" d="M235.638 224.02c.216 0 .434-.092.596-.274l4.56-5.076c.317-.353.306-.915-.024-1.254a.79.79 0 0 0-1.173.027l-4.556 5.076a.93.93 0 0 0 .023 1.253.8.8 0 0 0 .575.248z"/><path id="AA" d="M247.677 258.334a.94.94 0 0 0-.03-.694l-2.844-6.346c-.2-.44-.694-.628-1.106-.416s-.587.74-.39 1.183l2.844 6.346c.2.442.694.627 1.107.416a.87.87 0 0 0 .418-.489z"/><path id="AB" d="M199.623 279.273c.076-.218.072-.468-.03-.695l-2.846-6.345c-.197-.443-.692-.628-1.105-.416s-.587.74-.39 1.182l2.845 6.346c.197.44.692.628 1.106.416.2-.103.345-.28.418-.488z"/><path id="AC" d="M220.258 289.783l1.66.1.58-3.953c.07-.483-.238-.937-.7-1.01s-.876.255-.946.738l-.604 4.125z"/><path id="AD" d="M213.64 277.836c.18-.133.308-.34.344-.6l1.018-6.952c.072-.484-.238-.937-.7-1.013s-.876.254-.947.74l-1.02 6.952c-.07.484.24.937.69 1.014.22.037.434-.023.603-.15z"/><path id="AE" d="M253.647 219.703a.79.79 0 0 0 .415-.119c.397-.245.532-.788.302-1.212l-3.296-6.1c-.23-.424-.736-.568-1.133-.323s-.532.787-.302 1.21l3.297 6.09c.153.284.43.442.717.442z"/><path id="AF" d="M243.97 204.48c.3 0 .6-.175.737-.48l3.017-6.254c.2-.434.05-.97-.357-1.194s-.906-.054-1.117.382l-3.017 6.254c-.2.434-.05.97.357 1.194.122.068.252.1.38.1z"/><path id="AG" d="M270.182 203.563a.86.86 0 0 0 .312.246c.28.123.608.08.855-.14l3.392-3.048-.054-2.268-4.407 3.958c-.35.316-.394.875-.098 1.253z"/><path id="AH" d="M244.012 138.13c.3 0 .6-.175.738-.48l3.017-6.254c.2-.435.05-.97-.358-1.194s-.906-.054-1.116.38l-3.017 6.254c-.21.435-.05.97.357 1.195a.79.79 0 0 0 .379.098z"/><path id="AI" d="M224.677 161.04l.158-.015c.45-.094.744-.56.657-1.04l-1.248-6.91c-.086-.482-.522-.795-.97-.704s-.744.56-.657 1.04l1.248 6.91c.076.424.424.718.813.718z"/><path id="AJ" d="M235.44 167.108l.16-.016c.45-.093.744-.558.657-1.038l-1.248-6.9c-.086-.482-.523-.794-.97-.702s-.744.557-.657 1.038l1.248 6.9c.076.424.423.718.81.718z"/><path id="AK" d="M227.73 144.31c.274 0 .543-.145.7-.41l3.526-5.94c.245-.414.13-.962-.256-1.224s-.898-.14-1.144.273l-3.526 5.94c-.246.414-.132.962.255 1.224.138.094.292.138.444.138z"/><path id="AL" d="M260.076 205.578c.227-.258.295-.65.144-.988l-2.834-6.35c-.198-.442-.692-.63-1.106-.418s-.59.74-.4 1.18l2.833 6.352c.197.44.692.63 1.105.418.097-.05.18-.115.248-.194z"/><path id="AM" d="M238.745 187.152c.33 0 .644-.214.773-.565l2.397-6.553c.167-.456-.043-.97-.47-1.148s-.907.046-1.074.502l-2.397 6.554c-.167.456.043.97.47 1.148a.77.77 0 0 0 .302.062z"/><path id="AN" d="M212.4 227.627a.78.78 0 0 0 .374-.095c.41-.22.572-.754.365-1.192l-2.97-6.28c-.206-.437-.705-.61-1.114-.4s-.572.754-.366 1.192l2.972 6.278c.146.31.438.486.74.486z"/><path id="AO" d="M256.063 272.755c.001.135.032.272.094.4.2.434.71.604 1.117.378l5.842-3.237c.407-.224.567-.76.356-1.195s-.712-.605-1.12-.38l-5.84 3.237c-.288.158-.452.473-.45.796z"/><path id="AP" d="M271.925 276.78a.9.9 0 0 0 .091.4c.21.435.71.602 1.118.378l2.54-1.407-.004-1.993-3.297 1.826c-.288.158-.452.474-.448.796z"/><path id="AQ" d="M247.376 284.608l1.998 4.564 1.1-.128.653-.08-2.24-5.11c-.193-.445-.687-.638-1.103-.427s-.595.734-.398 1.18z"/><path id="AR" d="M201.617 211.616c.4 0 .75-.308.817-.743l1.073-6.943c.075-.483-.23-.94-.683-1.02s-.878.248-.953.73l-1.073 6.943c-.075.484.23.94.682 1.02l.137.012z"/><path id="AS" d="M200.933 160.385c.143 0 .29-.04.42-.124.394-.25.525-.793.29-1.215l-3.352-6.054c-.233-.422-.74-.562-1.135-.312s-.525.793-.29 1.215l3.35 6.055a.82.82 0 0 0 .715.435z"/><path id="AT" d="M211.71 184.998a.79.79 0 0 0 .45-.142l5.525-3.822c.384-.266.495-.815.246-1.226s-.762-.528-1.146-.263l-5.525 3.822c-.385.266-.495.814-.247 1.226.16.262.425.405.697.405z"/><path id="AU" d="M270.208 226.278c.126 0 .254-.03.374-.096.408-.22.572-.754.365-1.19l-2.97-6.28c-.207-.437-.705-.612-1.114-.4s-.572.753-.365 1.19l2.97 6.28a.82.82 0 0 0 .74.486z"/><path id="AV" d="M202.296 194.536c.276 0 .546-.147.703-.416.243-.416.125-.962-.262-1.222l-5.577-3.735c-.39-.258-.9-.134-1.143.282s-.125.962.262 1.222l5.577 3.734a.79.79 0 0 0 .44.135z"/><path id="AW" d="M215.666 203.418c.203.2.495.288.78.205.442-.13.702-.616.583-1.09l-1.727-6.8c-.12-.472-.575-.752-1.017-.624s-.703.617-.583 1.09l1.726 6.79c.043.166.127.31.237.418z"/><path id="AX" d="M192.128 131.743l1.443 2.34c.16.255.424.396.695.396a.76.76 0 0 0 .452-.145c.383-.268.49-.818.238-1.227l-1.603-2.603-1.225 1.24z"/><path id="AY" d="M185.82 147.18l1.533 2.49c.16.26.424.4.695.4.157 0 .313-.05.457-.146a.93.93 0 0 0 .234-1.23l-2.175-3.532-.744 2.018z"/><path id="AZ" d="M257.536 248.2a.8.8 0 0 0 .598-.272l4.556-5.076a.93.93 0 0 0-.023-1.254.79.79 0 0 0-1.173.025l-4.557 5.076a.93.93 0 0 0 .025 1.254c.16.165.367.247.574.247z"/><path id="Aa" d="M227.215 265.95a.8.8 0 0 0 .598-.274l4.557-5.076c.317-.354.307-.914-.023-1.254a.79.79 0 0 0-1.173.026l-4.557 5.077a.93.93 0 0 0 .024 1.252c.16.166.368.25.574.25z"/><path id="Ab" d="M218.79 258.9c.137-.18.207-.42.177-.67l-.822-6.983c-.057-.485-.47-.83-.925-.768s-.777.504-.72 1l.822 6.982c.056.487.47.83.926.77a.81.81 0 0 0 .541-.321z"/><path id="Ac" d="M236.06 278.58a.8.8 0 0 0 .597-.273l4.557-5.076a.93.93 0 0 0-.024-1.253.79.79 0 0 0-1.172.025l-4.557 5.076a.93.93 0 0 0 .024 1.254c.16.165.368.247.575.247z"/><path id="Ad" d="M187.005 259.367v1.782l5.143.46c.457.045.86-.32.897-.81s-.3-.915-.757-.96l-5.283-.475z"/><path id="Ae" d="M247.243 237.527c.218 0 .435-.092.598-.273l4.556-5.077a.93.93 0 0 0-.023-1.253.79.79 0 0 0-1.172.026l-4.558 5.076c-.317.353-.305.915.025 1.254.16.165.367.247.574.247z"/><path id="Af" d="M225.32 235.32c.014.232.114.46.294.62l5.036 4.53a.79.79 0 0 0 1.168-.108.93.93 0 0 0-.101-1.249l-5.036-4.53c-.35-.315-.873-.266-1.168.11a.92.92 0 0 0-.193.629z"/><path id="Ag" d="M201.324 260.234c.14 0 .284-.04.415-.12.396-.246.53-.788.302-1.21l-3.296-6.09c-.23-.424-.736-.57-1.133-.323a.92.92 0 0 0-.302 1.211l3.296 6.09a.82.82 0 0 0 .718.443z"/><path id="Ah" d="M195.618 242.13c.3 0 .6-.175.737-.48l3.017-6.254c.2-.435.05-.97-.356-1.195s-.907-.053-1.118.38l-3.016 6.254c-.2.436-.05.97.357 1.196a.79.79 0 0 0 .379.098z"/><path id="Ai" d="M204.616 171.122c.3 0 .6-.174.738-.48l3.016-6.254c.21-.436.05-.97-.356-1.194s-.907-.055-1.117.38l-3.017 6.253c-.2.436-.05.97.357 1.196a.79.79 0 0 0 .379.098z"/><path id="Aj" d="M201.322 144.877l.158-.016c.45-.093.744-.558.657-1.04l-1.247-6.91c-.087-.482-.523-.795-.972-.703s-.743.558-.657 1.04l1.248 6.91c.077.425.424.72.813.72z"/><path id="Ak" d="M186.17 168.72l.16-.016c.45-.093.743-.558.657-1.04l-1.248-6.91c-.087-.48-.523-.795-.97-.703s-.744.56-.658 1.04l1.248 6.91c.077.425.424.72.813.72z"/><path id="Al" d="M212.087 150.944l.158-.016c.45-.093.744-.56.657-1.04l-1.248-6.91c-.086-.482-.522-.794-.97-.703s-.744.558-.657 1.04l1.248 6.91c.077.425.424.72.813.72z"/><path id="Am" d="M207.146 126.875c.16.04.317.027.46-.026a.87.87 0 0 0 .535-.633l1.393-6.346-1.95 1.118-1.056 4.82c-.107.48.17.954.616 1.068z"/><path id="An" d="M188.178 179.403c.274 0 .542-.146.7-.41l3.527-5.942c.245-.413.13-.962-.256-1.224s-.9-.14-1.145.274l-3.526 5.94c-.245.414-.13.962.256 1.225.138.094.292.138.444.138z"/><path id="Ao" d="M211.726 243.23c.226-.26.294-.65.143-.99l-2.834-6.35c-.197-.44-.692-.63-1.105-.418s-.59.74-.39 1.182l2.833 6.35c.197.442.692.63 1.105.418.097-.05.18-.115.25-.193z"/><path id="Ap" d="M270.046 255.163l5.538.96-.017-1.798-5.255-.915c-.452-.075-.878.25-.95.735s.23.94.683 1.02z"/><path id="Aq" d="M271.73 238.938l3.688.637-.02-1.797-3.4-.6c-.452-.08-.876.25-.95.734s.23.937.682 1.016z"/><path id="Ar" d="M190.394 224.802a.83.83 0 0 0 .772-.564l2.398-6.553c.167-.456-.043-.97-.47-1.15s-.908.046-1.075.502l-2.397 6.553c-.167.456.043.97.47 1.15.1.04.2.06.3.06z"/><path id="As" d="M187.348 204.128c1.557-6.433 3.514-13.583 5.453-19.743l.013-.035c.598-1.904 1.196-3.712 1.78-5.37l.03-.088.546-1.522.044-.254v-.005c0-.295-.185-.572-.48-.682-.383-.137-.805.058-.942.44-1.987 5.418-4.335 13.22-6.35 20.87l-.097 6.39z"/><path id="At" d="M251.51 90.648a.57.57 0 0 0 .547-.415c1.042-3.71 4.886-5.216 4.925-5.23.293-.112.44-.44.33-.732s-.44-.44-.73-.33c-.18.068-4.418 1.712-5.617 5.987a.57.57 0 0 0 .393.7l.154.02z"/><path id="Au" d="M255.39 88.78c.105 0 .21-.03.306-.09a.57.57 0 0 0 .17-.785c-.028-.044-.708-1.082-2.132-1.72a.57.57 0 0 0-.75.287c-.128.286 0 .622.287.75 1.1.493 1.635 1.29 1.64 1.297a.57.57 0 0 0 .479.261z"/><path id="Av" d="M213.366 90.648a.57.57 0 0 1-.547-.415c-1.04-3.71-4.886-5.216-4.925-5.23a.57.57 0 0 1-.33-.732.57.57 0 0 1 .732-.33c.18.068 4.417 1.712 5.617 5.987.085.302-.09.615-.394.7l-.153.02z"/><path id="Aw" d="M209.484 88.78a.57.57 0 0 1-.477-.876c.03-.044.71-1.082 2.132-1.72a.57.57 0 0 1 .75.287c.13.286 0 .622-.286.75-1.1.493-1.636 1.29-1.64 1.297a.57.57 0 0 1-.478.261z"/><path id="Ax" d="M232.804 96.022c11.78-1.59 9.926 4.754 9.926 4.754-1.307 1.192-2.503 2.062-3.307 2.513-2.57 1.432-5.103 1.977-6.936 1.888-1.807-.076-2.302.294-6.873-2.178-.808-.433-1.625-1.076-2.424-1.84h-.005v-.004c-.196-1.242-2.19-7.164 9.62-5.134zM212.3 88.957l.005.014.01.044.005.01 1.263 4.914c2.834 8.89 9.4 21.76 25.9 15.872 6.95-2.477 10.57-9.654 12.412-17.44l.3-1.365.173-.862.08-.415.027-.152.005-.026-2.428-.492c-.465 2.3-1.49 4.464-2.75 6.388-2.053-4.92-12.472-1.652-12.472-1.652l-.048.018c-.633.197-1.285.3-1.94.3-.674 0-1.344-.107-1.995-.317 0 0-10.293-3.4-12.426 1.28-2.134-3.303-3.58-6.297-3.58-6.297l-2.535.178h-.005z"/><path id="Ay" d="M222.13 82.503c0 1.277.658 2.31 1.47 2.31s1.47-1.034 1.47-2.31-.658-2.31-1.47-2.31-1.47 1.035-1.47 2.31z"/><path id="Az" d="M218.37 74.71s6.07-2.4 10.745-.38l-.467 2.6s-6.86-.58-10.317.82c-.3-1-.355-2.012.04-3.04z"/><path id="BA" d="M247.234 74.723s-6.115-2.417-10.824-.383l.47 2.62s6.913-.584 10.394.827c.313-1.008.36-2.027-.04-3.063z"/><path id="BB" d="M387.082 244.252c-7.257.88-14.828 1.23-22.257 1.23-24.33 0-47.168-3.72-52.697-4.69l.283-3.114c6.426 1.138 43.612 7.288 74.69 3.434l-.02 3.14z"/><path id="BC" d="M387.004 248.22l-.096 3.15c-7.205.866-14.714 1.205-22.083 1.205-25.703 0-49.742-4.15-53.467-4.823l.206-1.7.16-1.4c3.7.675 42.8 7.574 75.28 3.57z"/><path id="BD" d="M386.8 254.265l-.143 3.158c-7.496.953-15.346 1.325-23.04 1.325-24.886 0-48.207-3.888-53.052-4.748l.404-3.093c5.76 1.026 44.173 7.5 75.832 3.358z"/><path id="BE" d="M349.092 199.54c8.32 0 15.998-8.844 16.33-9.233.21-.246.182-.616-.064-.827s-.616-.183-.828.063c-.08.094-8.12 9.357-16.155 8.798a.59.59 0 0 0-.626.545.59.59 0 0 0 .545.627c.266.02.533.027.798.027z"/><path id="BF" d="M356.307 299.006a.59.59 0 0 0 .582-.519.59.59 0 0 0-.517-.651c-21.494-2.474-30.397-39.68-30.485-40.055a.59.59 0 0 0-.705-.439.59.59 0 0 0-.439.705c.364 1.567 9.187 38.388 31.495 40.955l.07.004z"/><path id="BG" d="M347.747 287.748c.197 0 .4-.1.5-.28.17-.276.085-.638-.19-.808-11.433-7.048-13.132-17.438-13.15-17.543-.048-.32-.345-.543-.668-.492s-.54.348-.492.667c.066.448 1.774 11.02 13.692 18.367a.58.58 0 0 0 .308.088z"/><path id="BH" d="M330.875 144.81a23.55 23.55 0 0 0 23.547 23.547c13.004 0 23.547-10.54 23.547-23.547s-10.543-23.547-23.547-23.547-23.547 10.542-23.547 23.547z"/><path id="BI" d="M331.26 140.587s-6.668-1.84-5.79-8.312c.75-5.51 7.218-1.938 6.65-6.242s-1.833-8.22 3.735-9.296c4.872-.94 4.954 2.398 11.35-2.446 7.557-5.72 13.36 7.528 20.106 7.926 9.948.587 11.204 6.212 12.182 10.713s-2.85 7.657-2.85 7.657H331.26z"/><path id="BJ" d="M334.783 160.077c-.25 0-.48-.166-.553-.42-1.052-3.75-4.936-5.27-4.976-5.285-.295-.113-.444-.444-.332-.74s.443-.444.74-.334c.182.068 4.463 1.73 5.675 6.048.085.306-.093.622-.4.708l-.154.02z"/><path id="BK" d="M330.86 158.2c-.106 0-.214-.032-.31-.093a.57.57 0 0 1-.172-.793c.028-.044.716-1.092 2.153-1.736.288-.13.63 0 .758.3s0 .628-.29.76c-1.112.496-1.652 1.3-1.657 1.308-.11.17-.295.265-.484.265z"/><path id="BL" d="M354.303 151.644c0-.81.658-1.466 1.465-1.466h8.81c.81 0 1.466.655 1.466 1.466v1.126c0 1.628-.634 3.183-1.742 4.26s-2.357 1.63-3.718 1.664h-.21a6.02 6.02 0 0 1-4.269-1.765c-1.16-1.153-1.8-2.69-1.8-4.334v-.952zm-1.04 0v.952a7.1 7.1 0 0 0 2.109 5.073c1.34 1.332 3.114 2.064 5 2.064h.232c1.635-.035 3.122-.694 4.423-1.957 1.307-1.275 2.055-3.098 2.055-5.006v-1.126c0-.313-.06-.61-.166-.887a2.46 2.46 0 0 0-.568-.884c-.454-.454-1.078-.734-1.77-.734h-8.81c-.998 0-1.857.582-2.258 1.428a2.39 2.39 0 0 0-.243 1.01l-.003.067z"/><path id="BM" d="M336.663 151.644c0-.81.658-1.466 1.465-1.466h8.813c.807 0 1.465.655 1.465 1.466v1.126c0 1.628-.637 3.183-1.742 4.26s-2.355 1.63-3.717 1.664h-.215c-1.607 0-3.122-.625-4.264-1.765-1.164-1.153-1.805-2.69-1.805-4.334v-.952zm-1.04 0v.952a7.11 7.11 0 0 0 2.11 5.073c1.34 1.332 3.115 2.064 5 2.064h.236c1.632-.035 3.12-.694 4.42-1.957 1.306-1.275 2.057-3.098 2.057-5.006v-1.126l-.003-.05c-.004-.34-.08-.665-.212-.96-.387-.883-1.267-1.496-2.29-1.496h-8.813c-.773 0-1.465.353-1.926.904-.222.27-.392.585-.48.93-.067.215-.098.44-.098.672z"/><path id="BN" d="M373.36 148.718c-2.992-.13-5.13.734-5.974 1.155-.236.115-.866.525-.893.54l.495.882c.007-.003.696-.415.966-.54.83-.387 2.67-1.162 5.406-1v-1.037z"/><path id="BO" d="M353.96 151.683l.342-.983c-.062-.02-1.52-.522-3.123-.522-1.706 0-2.805.523-2.85.546l.454.934c.008-.002.944-.44 2.397-.44 1.422 0 2.767.46 2.78.466z"/><path id="BP" d="M331.984 148.97v1.042c2.153.178 4.14 1.14 4.17 1.15l.457-.932c-.117-.06-2.252-1.088-4.626-1.26z"/><path id="BQ" d="M343.778 152.975c0 1.29-.664 2.334-1.483 2.334s-1.485-1.045-1.485-2.334.665-2.335 1.485-2.335 1.483 1.045 1.483 2.335z"/><path id="BR" d="M361.16 152.975c0 1.29-.664 2.334-1.484 2.334s-1.484-1.045-1.484-2.334.664-2.335 1.484-2.335 1.484 1.045 1.484 2.335z"/><path id="BS" d="M337.467 145.805s6.178-2.44 10.935-.386l-.397 2.208s-5.153-1.15-10.196.732c-.316-1.02-.744-1.507-.342-2.554z"/><path id="BT" d="M365.74 145.805s-6.18-2.44-10.935-.386l.397 2.208s5.15-1.15 10.196.732c.316-1.02.744-1.507.342-2.554z"/><path id="BU" d="M372.687 160.533a.57.57 0 0 0 .459-.52c.298-3.883 3.81-6.133 3.846-6.155.268-.17.35-.524.182-.792s-.523-.35-.8-.182c-.165.104-4.038 2.57-4.38 7.042a.57.57 0 0 0 .528.615l.156-.008z"/><path id="BV" d="M376.163 157.912a.55.55 0 0 0 .286-.15c.228-.22.234-.584.014-.812-.037-.036-.916-.93-2.452-1.28-.308-.07-.617.124-.687.432s.123.616.432.687c1.188.27 1.876.953 1.882.96a.57.57 0 0 0 .525.163z"/><path id="BW" d="M407.258 82.26c-.573 0-1.036-.464-1.036-1.036v-4.568c0-.572.463-1.036 1.036-1.036s1.036.464 1.036 1.036v4.568c0 .572-.464 1.036-1.036 1.036z"/><path id="BX" d="M407.258 90.252c-.573 0-1.036-.464-1.036-1.035V84.65c0-.573.463-1.036 1.036-1.036s1.036.463 1.036 1.036v4.568c0 .57-.464 1.035-1.036 1.035z"/><path id="BY" d="M413.67 83.97h-4.104c-.572 0-1.036-.463-1.036-1.035s.464-1.036 1.036-1.036h4.104c.57 0 1.035.464 1.035 1.036s-.464 1.035-1.035 1.035z"/><path id="BZ" d="M404.95 83.97h-4.103c-.572 0-1.036-.463-1.036-1.035s.464-1.036 1.036-1.036h4.103c.572 0 1.036.464 1.036 1.036s-.464 1.035-1.036 1.035z"/><path id="Ba" d="M370.796 56.663c-.572 0-1.036-.463-1.036-1.036V51.06c0-.572.464-1.036 1.036-1.036s1.036.464 1.036 1.036v4.568c0 .573-.464 1.036-1.036 1.036z"/><path id="Bb" d="M370.796 64.657c-.572 0-1.036-.464-1.036-1.036v-4.568c0-.572.464-1.036 1.036-1.036s1.036.464 1.036 1.036v4.568c0 .572-.464 1.036-1.036 1.036z"/><path id="Bc" d="M377.208 58.376h-4.104c-.572 0-1.036-.464-1.036-1.036s.464-1.036 1.036-1.036h4.104c.57 0 1.035.464 1.035 1.036s-.464 1.036-1.035 1.036z"/><path id="Bd" d="M368.487 58.376h-4.102c-.573 0-1.036-.464-1.036-1.036s.463-1.036 1.036-1.036h4.102c.573 0 1.036.464 1.036 1.036s-.463 1.036-1.036 1.036z"/><path id="Be" d="M28.63 41.753c.572 0 1.036-.464 1.036-1.036V36.15c0-.572-.464-1.035-1.036-1.035s-1.036.463-1.036 1.035v4.568c0 .572.464 1.036 1.036 1.036z"/><path id="Bf" d="M28.63 49.747c.572 0 1.036-.464 1.036-1.036v-4.568c0-.572-.464-1.036-1.036-1.036s-1.036.464-1.036 1.036v4.568c0 .572.464 1.036 1.036 1.036z"/><path id="Bg" d="M22.218 43.466h4.104c.572 0 1.035-.464 1.035-1.036s-.463-1.036-1.035-1.036h-4.104c-.572 0-1.035.464-1.035 1.036s.463 1.036 1.035 1.036z"/><path id="Bh" d="M30.938 43.466h4.103c.572 0 1.036-.464 1.036-1.036s-.464-1.036-1.036-1.036h-4.103c-.572 0-1.036.464-1.036 1.036s.464 1.036 1.036 1.036z"/><path id="Bi" d="M52.497 6.64c.572 0 1.036-.463 1.036-1.036V1.036C53.533.464 53.07 0 52.497 0S51.46.464 51.46 1.036v4.568c0 .573.464 1.036 1.036 1.036z"/><path id="Bj" d="M52.497 14.634c.572 0 1.036-.464 1.036-1.036V9.03c0-.572-.464-1.036-1.036-1.036s-1.036.464-1.036 1.036v4.568c0 .572.464 1.036 1.036 1.036z"/><path id="Bk" d="M46.085 8.353h4.104c.572 0 1.036-.464 1.036-1.036s-.464-1.035-1.036-1.035h-4.104c-.57 0-1.035.463-1.035 1.035s.464 1.036 1.035 1.036z"/><path id="Bl" d="M54.806 8.353h4.103c.572 0 1.036-.464 1.036-1.036s-.464-1.035-1.036-1.035h-4.103c-.573 0-1.036.463-1.036 1.035s.463 1.036 1.036 1.036z"/><path id="Bm" d="M315.914 20.016H282.42a1.33 1.33 0 0 1-1.328-1.328 1.33 1.33 0 0 1 1.328-1.329h33.493a1.33 1.33 0 0 1 1.329 1.329 1.33 1.33 0 0 1-1.329 1.328z"/><path id="Bn" d="M315.914 25.366H282.42a1.33 1.33 0 0 1-1.328-1.328 1.33 1.33 0 0 1 1.328-1.328h33.493a1.33 1.33 0 0 1 1.329 1.328 1.33 1.33 0 0 1-1.329 1.328z"/></defs></svg>